%FSLAX25Y25*%
%MOIN*%
G70*
G01*
G75*
G04 Layer_Color=0*
%ADD10C,0.00700*%
%ADD11C,0.01000*%
%ADD12C,0.01700*%
%ADD13C,0.01500*%
%ADD14C,0.02000*%
%ADD15R,0.05906X0.09055*%
%ADD16R,0.05906X0.09449*%
%ADD17O,0.01181X0.08268*%
%ADD18O,0.08268X0.01181*%
%ADD19R,0.05000X0.08000*%
%ADD20R,0.03000X0.02500*%
%ADD21R,0.02500X0.03000*%
%ADD22R,0.06000X0.04921*%
G04:AMPARAMS|DCode=23|XSize=25mil|YSize=30mil|CornerRadius=0mil|HoleSize=0mil|Usage=FLASHONLY|Rotation=225.000|XOffset=0mil|YOffset=0mil|HoleType=Round|Shape=Rectangle|*
%AMROTATEDRECTD23*
4,1,4,-0.00177,0.01945,0.01945,-0.00177,0.00177,-0.01945,-0.01945,0.00177,-0.00177,0.01945,0.0*
%
%ADD23ROTATEDRECTD23*%

G04:AMPARAMS|DCode=24|XSize=25mil|YSize=30mil|CornerRadius=0mil|HoleSize=0mil|Usage=FLASHONLY|Rotation=315.000|XOffset=0mil|YOffset=0mil|HoleType=Round|Shape=Rectangle|*
%AMROTATEDRECTD24*
4,1,4,-0.01945,-0.00177,0.00177,0.01945,0.01945,0.00177,-0.00177,-0.01945,-0.01945,-0.00177,0.0*
%
%ADD24ROTATEDRECTD24*%

%ADD25R,0.07087X0.06299*%
%ADD26R,0.05118X0.02165*%
G04:AMPARAMS|DCode=27|XSize=11.81mil|YSize=82.68mil|CornerRadius=0mil|HoleSize=0mil|Usage=FLASHONLY|Rotation=225.000|XOffset=0mil|YOffset=0mil|HoleType=Round|Shape=Round|*
%AMOVALD27*
21,1,0.07087,0.01181,0.00000,0.00000,315.0*
1,1,0.01181,-0.02506,0.02506*
1,1,0.01181,0.02506,-0.02506*
%
%ADD27OVALD27*%

G04:AMPARAMS|DCode=28|XSize=11.81mil|YSize=82.68mil|CornerRadius=0mil|HoleSize=0mil|Usage=FLASHONLY|Rotation=315.000|XOffset=0mil|YOffset=0mil|HoleType=Round|Shape=Round|*
%AMOVALD28*
21,1,0.07087,0.01181,0.00000,0.00000,45.0*
1,1,0.01181,-0.02506,-0.02506*
1,1,0.01181,0.02506,0.02506*
%
%ADD28OVALD28*%

%ADD29R,0.04331X0.05512*%
%ADD30R,0.02756X0.06299*%
%ADD31R,0.04724X0.08661*%
%ADD32R,0.06299X0.05512*%
%ADD33R,0.01575X0.08465*%
G04:AMPARAMS|DCode=34|XSize=59.06mil|YSize=94.49mil|CornerRadius=0mil|HoleSize=0mil|Usage=FLASHONLY|Rotation=315.000|XOffset=0mil|YOffset=0mil|HoleType=Round|Shape=Rectangle|*
%AMROTATEDRECTD34*
4,1,4,-0.05429,-0.01253,0.01253,0.05429,0.05429,0.01253,-0.01253,-0.05429,-0.05429,-0.01253,0.0*
%
%ADD34ROTATEDRECTD34*%

G04:AMPARAMS|DCode=35|XSize=59.06mil|YSize=90.55mil|CornerRadius=0mil|HoleSize=0mil|Usage=FLASHONLY|Rotation=315.000|XOffset=0mil|YOffset=0mil|HoleType=Round|Shape=Rectangle|*
%AMROTATEDRECTD35*
4,1,4,-0.05289,-0.01114,0.01114,0.05289,0.05289,0.01114,-0.01114,-0.05289,-0.05289,-0.01114,0.0*
%
%ADD35ROTATEDRECTD35*%

%ADD36C,0.00500*%
%ADD37C,0.05906*%
%ADD38R,0.05906X0.05906*%
%ADD39R,0.05906X0.05906*%
%ADD40O,0.06200X0.08000*%
%ADD41C,0.09000*%
%ADD42C,0.07200*%
%ADD43R,0.06200X0.08000*%
%ADD44O,0.03937X0.06693*%
%ADD45C,0.17716*%
%ADD46C,0.02200*%
%ADD47C,0.05000*%
%ADD48C,0.03937*%
%ADD49C,0.00984*%
%ADD50C,0.02362*%
%ADD51C,0.00800*%
%ADD52C,0.00787*%
%ADD53C,0.01200*%
%ADD54R,0.08000X0.02000*%
%ADD55R,0.06706X0.09855*%
%ADD56R,0.06706X0.10249*%
%ADD57O,0.01981X0.09068*%
%ADD58O,0.09068X0.01981*%
%ADD59R,0.05800X0.08800*%
%ADD60R,0.03800X0.03300*%
%ADD61R,0.03300X0.03800*%
%ADD62R,0.06800X0.05721*%
G04:AMPARAMS|DCode=63|XSize=33mil|YSize=38mil|CornerRadius=0mil|HoleSize=0mil|Usage=FLASHONLY|Rotation=225.000|XOffset=0mil|YOffset=0mil|HoleType=Round|Shape=Rectangle|*
%AMROTATEDRECTD63*
4,1,4,-0.00177,0.02510,0.02510,-0.00177,0.00177,-0.02510,-0.02510,0.00177,-0.00177,0.02510,0.0*
%
%ADD63ROTATEDRECTD63*%

G04:AMPARAMS|DCode=64|XSize=33mil|YSize=38mil|CornerRadius=0mil|HoleSize=0mil|Usage=FLASHONLY|Rotation=315.000|XOffset=0mil|YOffset=0mil|HoleType=Round|Shape=Rectangle|*
%AMROTATEDRECTD64*
4,1,4,-0.02510,-0.00177,0.00177,0.02510,0.02510,0.00177,-0.00177,-0.02510,-0.02510,-0.00177,0.0*
%
%ADD64ROTATEDRECTD64*%

%ADD65R,0.07887X0.07099*%
%ADD66R,0.05918X0.02965*%
G04:AMPARAMS|DCode=67|XSize=19.81mil|YSize=90.68mil|CornerRadius=0mil|HoleSize=0mil|Usage=FLASHONLY|Rotation=225.000|XOffset=0mil|YOffset=0mil|HoleType=Round|Shape=Round|*
%AMOVALD67*
21,1,0.07087,0.01981,0.00000,0.00000,315.0*
1,1,0.01981,-0.02506,0.02506*
1,1,0.01981,0.02506,-0.02506*
%
%ADD67OVALD67*%

G04:AMPARAMS|DCode=68|XSize=19.81mil|YSize=90.68mil|CornerRadius=0mil|HoleSize=0mil|Usage=FLASHONLY|Rotation=315.000|XOffset=0mil|YOffset=0mil|HoleType=Round|Shape=Round|*
%AMOVALD68*
21,1,0.07087,0.01981,0.00000,0.00000,45.0*
1,1,0.01981,-0.02506,-0.02506*
1,1,0.01981,0.02506,0.02506*
%
%ADD68OVALD68*%

%ADD69R,0.05131X0.06312*%
%ADD70R,0.03556X0.07099*%
%ADD71R,0.05524X0.09461*%
%ADD72R,0.07099X0.06312*%
%ADD73R,0.02375X0.09265*%
G04:AMPARAMS|DCode=74|XSize=67.06mil|YSize=102.49mil|CornerRadius=0mil|HoleSize=0mil|Usage=FLASHONLY|Rotation=315.000|XOffset=0mil|YOffset=0mil|HoleType=Round|Shape=Rectangle|*
%AMROTATEDRECTD74*
4,1,4,-0.05994,-0.01253,0.01253,0.05994,0.05994,0.01253,-0.01253,-0.05994,-0.05994,-0.01253,0.0*
%
%ADD74ROTATEDRECTD74*%

G04:AMPARAMS|DCode=75|XSize=67.06mil|YSize=98.55mil|CornerRadius=0mil|HoleSize=0mil|Usage=FLASHONLY|Rotation=315.000|XOffset=0mil|YOffset=0mil|HoleType=Round|Shape=Rectangle|*
%AMROTATEDRECTD75*
4,1,4,-0.05855,-0.01114,0.01114,0.05855,0.05855,0.01114,-0.01114,-0.05855,-0.05855,-0.01114,0.0*
%
%ADD75ROTATEDRECTD75*%

%ADD76C,0.06706*%
%ADD77R,0.06706X0.06706*%
%ADD78R,0.06706X0.06706*%
%ADD79O,0.07000X0.08800*%
%ADD80C,0.09800*%
%ADD81C,0.08000*%
%ADD82R,0.07000X0.08800*%
%ADD83O,0.04737X0.07493*%
%ADD84C,0.18517*%
%ADD85C,0.00394*%
D15*
X9600Y183900D02*
D03*
D16*
X-9400Y184000D02*
D03*
D17*
X-10827Y133858D02*
D03*
X-8858D02*
D03*
X-6890D02*
D03*
X-4921D02*
D03*
X-2953D02*
D03*
X-984D02*
D03*
X984D02*
D03*
X2953D02*
D03*
X4921D02*
D03*
X6890D02*
D03*
X8858D02*
D03*
X10827D02*
D03*
Y166142D02*
D03*
X8858D02*
D03*
X6890D02*
D03*
X4921D02*
D03*
X2953D02*
D03*
X984D02*
D03*
X-984D02*
D03*
X-2953D02*
D03*
X-4921D02*
D03*
X-6890D02*
D03*
X-8858D02*
D03*
X-10827D02*
D03*
D18*
X16142Y139173D02*
D03*
Y141142D02*
D03*
Y143110D02*
D03*
Y145079D02*
D03*
Y147047D02*
D03*
Y149016D02*
D03*
Y150984D02*
D03*
Y152953D02*
D03*
Y154921D02*
D03*
Y156890D02*
D03*
Y158858D02*
D03*
Y160827D02*
D03*
X-16142D02*
D03*
Y158858D02*
D03*
Y156890D02*
D03*
Y154921D02*
D03*
Y152953D02*
D03*
Y150984D02*
D03*
Y149016D02*
D03*
Y147047D02*
D03*
Y145079D02*
D03*
Y143110D02*
D03*
Y141142D02*
D03*
Y139173D02*
D03*
D19*
X-50000Y207752D02*
D03*
Y239248D02*
D03*
X50000Y239248D02*
D03*
Y207752D02*
D03*
D20*
X-300Y106700D02*
D03*
Y100300D02*
D03*
X-64800D02*
D03*
Y106700D02*
D03*
X-29467D02*
D03*
Y100300D02*
D03*
X-11967D02*
D03*
Y106700D02*
D03*
X-41300D02*
D03*
Y100300D02*
D03*
X-53300D02*
D03*
Y106700D02*
D03*
X-47300Y100300D02*
D03*
Y106700D02*
D03*
X-68000Y267200D02*
D03*
Y260800D02*
D03*
X-62500D02*
D03*
Y267200D02*
D03*
X-57000D02*
D03*
Y260800D02*
D03*
X62500Y234300D02*
D03*
Y240700D02*
D03*
X-6133Y106700D02*
D03*
Y100300D02*
D03*
X-23633Y106700D02*
D03*
Y100300D02*
D03*
X-17800Y106700D02*
D03*
Y100300D02*
D03*
X-35300D02*
D03*
Y106700D02*
D03*
X24500Y182700D02*
D03*
Y176300D02*
D03*
X30000Y182700D02*
D03*
Y176300D02*
D03*
X-58800Y100300D02*
D03*
Y106700D02*
D03*
X16500Y181800D02*
D03*
Y188200D02*
D03*
X-16000D02*
D03*
Y181800D02*
D03*
X-38500Y224800D02*
D03*
Y231200D02*
D03*
X68500Y234300D02*
D03*
Y240700D02*
D03*
X66500Y279800D02*
D03*
Y286200D02*
D03*
D21*
X32800Y163500D02*
D03*
X39200D02*
D03*
X7300Y123500D02*
D03*
X13700D02*
D03*
X-3200Y194000D02*
D03*
X3200D02*
D03*
X-38700Y158000D02*
D03*
X-32300D02*
D03*
Y152500D02*
D03*
X-38700D02*
D03*
Y147000D02*
D03*
X-32300D02*
D03*
Y141500D02*
D03*
X-38700D02*
D03*
X-63700Y208500D02*
D03*
X-57300D02*
D03*
X64200Y183000D02*
D03*
X57800D02*
D03*
X7300Y117000D02*
D03*
X13700D02*
D03*
X32800Y139500D02*
D03*
X39200D02*
D03*
X32800Y151500D02*
D03*
X39200D02*
D03*
X32800Y157500D02*
D03*
X39200D02*
D03*
X32800Y145500D02*
D03*
X39200D02*
D03*
X27800Y76500D02*
D03*
X34200D02*
D03*
X40300Y280000D02*
D03*
X46700D02*
D03*
X-32300Y136000D02*
D03*
X-38700D02*
D03*
X64200Y189000D02*
D03*
X57800D02*
D03*
D22*
X49500Y181750D02*
D03*
X39500D02*
D03*
Y190000D02*
D03*
X49500D02*
D03*
D23*
X20237Y267237D02*
D03*
X24763Y271763D02*
D03*
X42237Y244737D02*
D03*
X46763Y249263D02*
D03*
X-32763Y235237D02*
D03*
X-28237Y239763D02*
D03*
X-14263Y199737D02*
D03*
X-9737Y204263D02*
D03*
X32763Y226763D02*
D03*
X28237Y222237D02*
D03*
D24*
X10263Y265737D02*
D03*
X5737Y270263D02*
D03*
D25*
X58500Y281476D02*
D03*
Y292500D02*
D03*
D26*
X40363Y294240D02*
D03*
Y290500D02*
D03*
Y286760D02*
D03*
X48637D02*
D03*
Y294240D02*
D03*
D27*
X19070Y226742D02*
D03*
X17678Y225350D02*
D03*
X16286Y223958D02*
D03*
X14894Y222566D02*
D03*
X13502Y221174D02*
D03*
X12110Y219782D02*
D03*
X10718Y218390D02*
D03*
X9326Y216998D02*
D03*
X7934Y215606D02*
D03*
X6542Y214214D02*
D03*
X5150Y212822D02*
D03*
X3758Y211430D02*
D03*
X-19070Y234258D02*
D03*
X-17678Y235650D02*
D03*
X-16286Y237042D02*
D03*
X-14894Y238434D02*
D03*
X-13502Y239826D02*
D03*
X-12110Y241218D02*
D03*
X-10718Y242610D02*
D03*
X-9326Y244002D02*
D03*
X-7934Y245394D02*
D03*
X-6542Y246786D02*
D03*
X-5150Y248178D02*
D03*
X-3758Y249570D02*
D03*
D28*
Y211430D02*
D03*
X-5150Y212822D02*
D03*
X-6542Y214214D02*
D03*
X-7934Y215606D02*
D03*
X-9326Y216998D02*
D03*
X-10718Y218390D02*
D03*
X-12110Y219782D02*
D03*
X-13502Y221174D02*
D03*
X-14894Y222566D02*
D03*
X-16286Y223958D02*
D03*
X-17678Y225350D02*
D03*
X-19070Y226742D02*
D03*
X3758Y249570D02*
D03*
X5150Y248178D02*
D03*
X6542Y246786D02*
D03*
X7934Y245394D02*
D03*
X9326Y244002D02*
D03*
X10718Y242610D02*
D03*
X12110Y241218D02*
D03*
X13502Y239826D02*
D03*
X14894Y238434D02*
D03*
X16286Y237042D02*
D03*
X17678Y235650D02*
D03*
X19070Y234258D02*
D03*
D29*
X8396Y59113D02*
D03*
D30*
X13514Y61082D02*
D03*
X17845D02*
D03*
X22176D02*
D03*
X26506D02*
D03*
X30837D02*
D03*
X35168D02*
D03*
X39498D02*
D03*
X43829D02*
D03*
X48160D02*
D03*
D31*
X8593Y21318D02*
D03*
X69813D02*
D03*
D32*
X66270Y59113D02*
D03*
D33*
X-53000Y278559D02*
D03*
X-47882D02*
D03*
X-50441D02*
D03*
X-58118D02*
D03*
X-55559D02*
D03*
D34*
X26353Y264647D02*
D03*
D35*
X39718Y251141D02*
D03*
D37*
X90000Y10000D02*
D03*
Y20000D02*
D03*
Y30000D02*
D03*
Y40000D02*
D03*
Y50000D02*
D03*
Y60000D02*
D03*
Y70000D02*
D03*
X-90000Y100000D02*
D03*
Y110000D02*
D03*
Y120000D02*
D03*
Y130000D02*
D03*
Y140000D02*
D03*
Y150000D02*
D03*
Y160000D02*
D03*
Y170000D02*
D03*
Y180000D02*
D03*
Y190000D02*
D03*
Y200000D02*
D03*
Y210000D02*
D03*
Y220000D02*
D03*
Y230000D02*
D03*
Y240000D02*
D03*
Y250000D02*
D03*
Y260000D02*
D03*
X90000Y280000D02*
D03*
Y270000D02*
D03*
Y260000D02*
D03*
Y250000D02*
D03*
Y240000D02*
D03*
Y230000D02*
D03*
Y220000D02*
D03*
Y210000D02*
D03*
Y200000D02*
D03*
Y190000D02*
D03*
Y180000D02*
D03*
Y170000D02*
D03*
Y160000D02*
D03*
Y150000D02*
D03*
Y140000D02*
D03*
Y130000D02*
D03*
Y120000D02*
D03*
Y110000D02*
D03*
Y100000D02*
D03*
X-90000Y70000D02*
D03*
Y60000D02*
D03*
Y50000D02*
D03*
Y40000D02*
D03*
Y30000D02*
D03*
Y20000D02*
D03*
Y10000D02*
D03*
X25000Y291500D02*
D03*
X15000D02*
D03*
X5000D02*
D03*
X-5000D02*
D03*
X-15000D02*
D03*
D38*
X90000Y80000D02*
D03*
X-90000Y270000D02*
D03*
X90000Y290000D02*
D03*
X-90000Y80000D02*
D03*
D39*
X-25000Y291500D02*
D03*
D40*
X-38302Y79400D02*
D03*
X-33302Y69400D02*
D03*
X-43302D02*
D03*
X-28302Y79400D02*
D03*
X-23302Y69400D02*
D03*
X-18302Y79400D02*
D03*
X-48302D02*
D03*
D41*
X-67278Y56408D02*
D03*
X-4286D02*
D03*
D42*
X-61865Y25109D02*
D03*
X-9702D02*
D03*
X-19715D02*
D03*
X-51902D02*
D03*
D43*
X-53302Y69400D02*
D03*
D44*
X-67173Y277339D02*
D03*
X-38827D02*
D03*
X-67173Y291000D02*
D03*
X-38827D02*
D03*
D45*
X88583Y305118D02*
D03*
X-88583Y289370D02*
D03*
X59055Y78740D02*
D03*
X-76772Y9843D02*
D03*
M02*
