%FSLAX25Y25*%
%MOIN*%
G70*
G01*
G75*
G04 Layer_Physical_Order=1*
G04 Layer_Color=255*
%ADD10C,0.00700*%
%ADD11C,0.01000*%
%ADD12C,0.01700*%
%ADD13C,0.01500*%
%ADD14C,0.02000*%
%ADD15R,0.05906X0.09055*%
%ADD16R,0.05906X0.09449*%
%ADD17O,0.01181X0.08268*%
%ADD18O,0.08268X0.01181*%
%ADD19R,0.05000X0.08000*%
%ADD20R,0.03000X0.02500*%
%ADD21R,0.02500X0.03000*%
%ADD22R,0.06000X0.04921*%
G04:AMPARAMS|DCode=23|XSize=25mil|YSize=30mil|CornerRadius=0mil|HoleSize=0mil|Usage=FLASHONLY|Rotation=225.000|XOffset=0mil|YOffset=0mil|HoleType=Round|Shape=Rectangle|*
%AMROTATEDRECTD23*
4,1,4,-0.00177,0.01945,0.01945,-0.00177,0.00177,-0.01945,-0.01945,0.00177,-0.00177,0.01945,0.0*
%
%ADD23ROTATEDRECTD23*%

G04:AMPARAMS|DCode=24|XSize=25mil|YSize=30mil|CornerRadius=0mil|HoleSize=0mil|Usage=FLASHONLY|Rotation=315.000|XOffset=0mil|YOffset=0mil|HoleType=Round|Shape=Rectangle|*
%AMROTATEDRECTD24*
4,1,4,-0.01945,-0.00177,0.00177,0.01945,0.01945,0.00177,-0.00177,-0.01945,-0.01945,-0.00177,0.0*
%
%ADD24ROTATEDRECTD24*%

%ADD25R,0.07087X0.06299*%
%ADD26R,0.05118X0.02165*%
G04:AMPARAMS|DCode=27|XSize=11.81mil|YSize=82.68mil|CornerRadius=0mil|HoleSize=0mil|Usage=FLASHONLY|Rotation=225.000|XOffset=0mil|YOffset=0mil|HoleType=Round|Shape=Round|*
%AMOVALD27*
21,1,0.07087,0.01181,0.00000,0.00000,315.0*
1,1,0.01181,-0.02506,0.02506*
1,1,0.01181,0.02506,-0.02506*
%
%ADD27OVALD27*%

G04:AMPARAMS|DCode=28|XSize=11.81mil|YSize=82.68mil|CornerRadius=0mil|HoleSize=0mil|Usage=FLASHONLY|Rotation=315.000|XOffset=0mil|YOffset=0mil|HoleType=Round|Shape=Round|*
%AMOVALD28*
21,1,0.07087,0.01181,0.00000,0.00000,45.0*
1,1,0.01181,-0.02506,-0.02506*
1,1,0.01181,0.02506,0.02506*
%
%ADD28OVALD28*%

%ADD29R,0.04331X0.05512*%
%ADD30R,0.02756X0.06299*%
%ADD31R,0.04724X0.08661*%
%ADD32R,0.06299X0.05512*%
%ADD33R,0.01575X0.08465*%
G04:AMPARAMS|DCode=34|XSize=59.06mil|YSize=94.49mil|CornerRadius=0mil|HoleSize=0mil|Usage=FLASHONLY|Rotation=315.000|XOffset=0mil|YOffset=0mil|HoleType=Round|Shape=Rectangle|*
%AMROTATEDRECTD34*
4,1,4,-0.05429,-0.01253,0.01253,0.05429,0.05429,0.01253,-0.01253,-0.05429,-0.05429,-0.01253,0.0*
%
%ADD34ROTATEDRECTD34*%

G04:AMPARAMS|DCode=35|XSize=59.06mil|YSize=90.55mil|CornerRadius=0mil|HoleSize=0mil|Usage=FLASHONLY|Rotation=315.000|XOffset=0mil|YOffset=0mil|HoleType=Round|Shape=Rectangle|*
%AMROTATEDRECTD35*
4,1,4,-0.05289,-0.01114,0.01114,0.05289,0.05289,0.01114,-0.01114,-0.05289,-0.05289,-0.01114,0.0*
%
%ADD35ROTATEDRECTD35*%

%ADD36C,0.00500*%
%ADD37C,0.05906*%
%ADD38R,0.05906X0.05906*%
%ADD39R,0.05906X0.05906*%
%ADD40O,0.06200X0.08000*%
%ADD41C,0.09000*%
%ADD42C,0.07200*%
%ADD43R,0.06200X0.08000*%
%ADD44O,0.03937X0.06693*%
%ADD45C,0.17716*%
%ADD46C,0.02200*%
%ADD47C,0.05000*%
%ADD48C,0.03937*%
G36*
X82671Y313279D02*
X81436Y312265D01*
X80179Y310733D01*
X79245Y308986D01*
X78670Y307090D01*
X78476Y305118D01*
X78670Y303146D01*
X79245Y301250D01*
X80179Y299503D01*
X81436Y297971D01*
X82968Y296714D01*
X84715Y295780D01*
X86611Y295205D01*
X88583Y295011D01*
X90554Y295205D01*
X92450Y295780D01*
X94198Y296714D01*
X95729Y297971D01*
X96731Y299192D01*
X97202Y299023D01*
Y94432D01*
X93635Y90865D01*
X93370Y90468D01*
X93277Y90000D01*
X93370Y89532D01*
X93635Y89135D01*
X97202Y85568D01*
Y4444D01*
X93981Y1223D01*
X-70677D01*
X-70845Y1694D01*
X-69625Y2696D01*
X-68368Y4227D01*
X-67434Y5975D01*
X-66859Y7871D01*
X-66665Y9843D01*
X-66859Y11814D01*
X-67434Y13710D01*
X-68368Y15458D01*
X-69625Y16989D01*
X-71157Y18246D01*
X-72904Y19180D01*
X-74800Y19755D01*
X-76772Y19950D01*
X-78743Y19755D01*
X-80639Y19180D01*
X-82387Y18246D01*
X-83918Y16989D01*
X-85175Y15458D01*
X-86109Y13710D01*
X-86555Y12241D01*
X-87047Y12152D01*
X-87395Y12605D01*
X-88158Y13191D01*
X-89046Y13559D01*
X-90000Y13684D01*
X-90954Y13559D01*
X-91842Y13191D01*
X-92605Y12605D01*
X-93191Y11842D01*
X-93559Y10954D01*
X-93684Y10000D01*
X-93559Y9046D01*
X-93191Y8158D01*
X-92605Y7395D01*
X-91842Y6809D01*
X-90954Y6441D01*
X-90000Y6316D01*
X-89046Y6441D01*
X-88158Y6809D01*
X-87395Y7395D01*
X-87115Y7759D01*
X-86623Y7670D01*
X-86109Y5975D01*
X-85175Y4227D01*
X-83918Y2696D01*
X-82698Y1694D01*
X-82866Y1223D01*
X-93981D01*
X-97202Y4444D01*
Y85568D01*
X-93635Y89135D01*
X-93370Y89532D01*
X-93277Y90000D01*
X-93370Y90468D01*
X-93635Y90865D01*
X-97202Y94432D01*
Y283275D01*
X-96731Y283444D01*
X-95729Y282223D01*
X-94198Y280966D01*
X-92450Y280032D01*
X-90554Y279457D01*
X-88583Y279263D01*
X-86611Y279457D01*
X-84715Y280032D01*
X-82968Y280966D01*
X-81436Y282223D01*
X-80179Y283755D01*
X-79245Y285502D01*
X-78670Y287398D01*
X-78476Y289370D01*
X-78670Y291342D01*
X-79245Y293238D01*
X-80179Y294985D01*
X-81436Y296517D01*
X-82968Y297774D01*
X-82914Y297989D01*
X-23733D01*
X-23265Y298082D01*
X-22868Y298347D01*
X-7466Y313750D01*
X82503D01*
X82671Y313279D01*
D02*
G37*
%LPC*%
G36*
X15650Y125700D02*
X14200D01*
Y124000D01*
X15650D01*
Y125700D01*
D02*
G37*
G36*
X59000Y127236D02*
Y126000D01*
X60236D01*
X60196Y126202D01*
X59798Y126798D01*
X59202Y127196D01*
X59000Y127236D01*
D02*
G37*
G36*
X58000D02*
X57798Y127196D01*
X57202Y126798D01*
X56804Y126202D01*
X56764Y126000D01*
X58000D01*
Y127236D01*
D02*
G37*
G36*
X60236Y125000D02*
X59000D01*
Y123764D01*
X59202Y123804D01*
X59798Y124202D01*
X60196Y124798D01*
X60236Y125000D01*
D02*
G37*
G36*
X15650Y119200D02*
X14200D01*
Y117500D01*
X15650D01*
Y119200D01*
D02*
G37*
G36*
Y123000D02*
X14200D01*
Y121300D01*
X15650D01*
Y123000D01*
D02*
G37*
G36*
X58000Y125000D02*
X56764D01*
X56804Y124798D01*
X57202Y124202D01*
X57798Y123804D01*
X58000Y123764D01*
Y125000D01*
D02*
G37*
G36*
X63500Y139500D02*
X62264D01*
X62304Y139298D01*
X62702Y138702D01*
X63298Y138304D01*
X63500Y138264D01*
Y139500D01*
D02*
G37*
G36*
X65736D02*
X64500D01*
Y138264D01*
X64702Y138304D01*
X65298Y138702D01*
X65696Y139298D01*
X65736Y139500D01*
D02*
G37*
G36*
X38700Y141700D02*
X37250D01*
Y140000D01*
X38700D01*
Y141700D01*
D02*
G37*
G36*
X-16642Y138673D02*
X-20901D01*
X-20901Y138670D01*
X-20616Y138243D01*
X-20189Y137958D01*
X-19685Y137857D01*
X-16642D01*
Y138673D01*
D02*
G37*
G36*
X-11308Y139045D02*
X-11382Y138673D01*
X-15642D01*
Y137857D01*
X-12598D01*
X-12471Y137883D01*
X-12117Y137529D01*
X-12143Y137402D01*
Y130315D01*
X-12042Y129811D01*
X-11897Y129594D01*
Y126117D01*
X-14143Y123871D01*
X-50700D01*
X-51110Y123789D01*
X-51457Y123557D01*
X-52477Y122537D01*
X-52480Y122540D01*
X-52488Y122548D01*
X-52723Y122391D01*
X-53000Y122336D01*
Y122335D01*
X-53637Y122208D01*
X-53873Y122650D01*
X-48246Y128277D01*
X-35000D01*
X-34532Y128370D01*
X-34135Y128635D01*
X-31435Y131335D01*
X-31170Y131732D01*
X-31076Y132200D01*
Y133800D01*
X-30350D01*
Y134776D01*
X-28949D01*
Y134766D01*
X-28799Y134704D01*
X-28798Y134702D01*
X-28202Y134304D01*
X-27500Y134165D01*
X-26798Y134304D01*
X-26202Y134702D01*
X-25804Y135298D01*
X-25665Y136000D01*
X-25804Y136702D01*
X-26202Y137298D01*
X-26798Y137696D01*
X-27500Y137835D01*
X-28202Y137696D01*
X-28798Y137298D01*
X-28799Y137295D01*
X-28949Y137234D01*
Y137223D01*
X-30350D01*
Y138200D01*
X-34250D01*
Y133800D01*
X-33523D01*
Y132707D01*
X-35507Y130724D01*
X-48753D01*
X-49221Y130630D01*
X-49618Y130365D01*
X-59665Y120318D01*
X-59930Y119921D01*
X-60023Y119453D01*
Y108650D01*
X-61000D01*
Y104750D01*
X-56600D01*
Y105476D01*
X-55500D01*
Y104750D01*
X-51100D01*
Y105476D01*
X-49500D01*
Y104750D01*
X-45100D01*
Y105476D01*
X-43500D01*
Y104750D01*
X-39100D01*
Y108650D01*
X-43500D01*
Y107923D01*
X-45100D01*
Y108650D01*
X-49500D01*
Y107923D01*
X-51100D01*
Y108650D01*
X-55500D01*
Y107923D01*
X-56600D01*
Y108650D01*
X-57577D01*
Y118946D01*
X-55150Y121373D01*
X-54708Y121137D01*
X-54835Y120500D01*
X-54696Y119798D01*
X-54298Y119202D01*
X-53702Y118804D01*
X-53000Y118665D01*
X-52298Y118804D01*
X-51702Y119202D01*
X-51304Y119798D01*
X-51165Y120500D01*
X-51164D01*
X-51109Y120777D01*
X-50952Y121012D01*
X-50963Y121023D01*
X-50257Y121729D01*
X-48374D01*
X-48138Y121289D01*
X-48196Y121202D01*
X-48335Y120500D01*
X-48196Y119798D01*
X-47798Y119202D01*
X-47202Y118804D01*
X-46500Y118665D01*
X-45798Y118804D01*
X-45202Y119202D01*
X-45172Y119248D01*
X-44425Y119821D01*
X-43504Y120203D01*
X-42541Y120329D01*
X-13120D01*
X-12710Y120411D01*
X-12363Y120643D01*
X-12363Y120643D01*
X-12363Y120643D01*
X-8101Y124905D01*
X-7869Y125252D01*
X-7788Y125662D01*
X-7788Y125662D01*
X-7788Y125662D01*
Y125662D01*
Y128888D01*
X-7393Y129099D01*
X-7390Y129099D01*
Y133857D01*
Y138618D01*
X-7393Y138617D01*
X-7820Y138332D01*
X-7928D01*
X-8355Y138617D01*
X-8858Y138717D01*
X-9362Y138617D01*
X-9789Y138332D01*
X-9896D01*
X-10323Y138617D01*
X-10827Y138717D01*
X-10954Y138692D01*
X-11308Y139045D01*
D02*
G37*
G36*
X38700Y139000D02*
X37250D01*
Y137300D01*
X38700D01*
Y139000D01*
D02*
G37*
G36*
X41150D02*
X39700D01*
Y137300D01*
X41150D01*
Y139000D01*
D02*
G37*
G36*
X-33100Y106200D02*
X-34800D01*
Y104750D01*
X-33100D01*
Y106200D01*
D02*
G37*
G36*
X-6633D02*
X-8333D01*
Y104750D01*
X-6633D01*
Y106200D01*
D02*
G37*
G36*
X-3933D02*
X-5633D01*
Y104750D01*
X-3933D01*
Y106200D01*
D02*
G37*
G36*
X-35800D02*
X-37500D01*
Y104750D01*
X-35800D01*
Y106200D01*
D02*
G37*
G36*
X-59300Y102250D02*
X-61000D01*
Y100800D01*
X-59300D01*
Y102250D01*
D02*
G37*
G36*
X-56600D02*
X-58300D01*
Y100800D01*
X-56600D01*
Y102250D01*
D02*
G37*
G36*
X-3933D02*
X-8333D01*
Y101423D01*
X-8556Y101379D01*
Y101371D01*
X-9544D01*
Y101378D01*
Y101379D01*
X-9767Y101423D01*
Y102250D01*
X-14167D01*
Y98350D01*
X-13090D01*
X-13046Y98127D01*
X-13046Y98127D01*
X-13046D01*
Y97896D01*
X-13050Y97891D01*
X-13050D01*
X-13115Y97569D01*
X-13295Y97300D01*
X-13298Y97298D01*
X-13696Y96702D01*
X-13835Y96000D01*
X-13696Y95298D01*
X-13298Y94702D01*
X-12702Y94304D01*
X-12000Y94165D01*
X-11298Y94304D01*
X-10702Y94702D01*
X-10304Y95298D01*
X-10165Y96000D01*
X-10304Y96702D01*
X-10702Y97298D01*
X-10750Y97329D01*
X-10896Y97682D01*
Y97852D01*
X-10891Y97891D01*
X-10891D01*
Y98124D01*
X-10888Y98127D01*
X-10888D01*
X-10843Y98350D01*
X-9767D01*
Y99177D01*
X-9544Y99221D01*
Y99222D01*
Y99229D01*
X-8556D01*
Y99222D01*
Y99221D01*
X-8333Y99177D01*
Y98350D01*
X-3933D01*
Y102250D01*
D02*
G37*
G36*
X-62600Y108650D02*
X-67000D01*
Y108280D01*
X-72800D01*
X-73405Y108160D01*
X-73918Y107817D01*
X-74513Y107222D01*
X-74947Y106932D01*
X-75467Y106829D01*
X-75500Y106835D01*
X-76202Y106696D01*
X-76798Y106298D01*
X-77196Y105702D01*
X-77335Y105000D01*
X-77196Y104298D01*
X-76798Y103702D01*
X-76202Y103304D01*
X-75500Y103165D01*
X-74798Y103304D01*
X-74625Y103420D01*
X-74500D01*
X-73895Y103540D01*
X-73383Y103883D01*
X-72297Y104968D01*
X-72242Y105010D01*
X-72249Y105016D01*
X-72249Y105016D01*
X-72145Y105120D01*
X-67000D01*
Y104750D01*
X-62600D01*
Y108650D01*
D02*
G37*
G36*
X9000Y110835D02*
X8487Y110733D01*
X6000D01*
X5337Y110601D01*
X4774Y110226D01*
X2982Y108433D01*
X1900D01*
Y108650D01*
X-2500D01*
Y104750D01*
X1900D01*
Y104967D01*
X3700D01*
X4363Y105099D01*
X4926Y105474D01*
X6718Y107267D01*
X8487D01*
X9000Y107165D01*
X9702Y107304D01*
X10298Y107702D01*
X10696Y108298D01*
X10835Y109000D01*
X10696Y109702D01*
X10298Y110298D01*
X9702Y110696D01*
X9000Y110835D01*
D02*
G37*
G36*
X13200Y116500D02*
X11750D01*
Y114800D01*
X13200D01*
Y116500D01*
D02*
G37*
G36*
X15650D02*
X14200D01*
Y114800D01*
X15650D01*
Y116500D01*
D02*
G37*
G36*
X-3933Y108650D02*
X-5633D01*
Y107200D01*
X-3933D01*
Y108650D01*
D02*
G37*
G36*
X-35800D02*
X-37500D01*
Y107200D01*
X-35800D01*
Y108650D01*
D02*
G37*
G36*
X-33100D02*
X-34800D01*
Y107200D01*
X-33100D01*
Y108650D01*
D02*
G37*
G36*
X-6633D02*
X-8333D01*
Y107200D01*
X-6633D01*
Y108650D01*
D02*
G37*
G36*
X38700Y163000D02*
X37250D01*
Y161300D01*
X38700D01*
Y163000D01*
D02*
G37*
G36*
X41150D02*
X39700D01*
Y161300D01*
X41150D01*
Y163000D01*
D02*
G37*
G36*
X38700Y165700D02*
X37250D01*
Y164000D01*
X38700D01*
Y165700D01*
D02*
G37*
G36*
X41150Y159700D02*
X39700D01*
Y158000D01*
X41150D01*
Y159700D01*
D02*
G37*
G36*
X38700Y157000D02*
X37250D01*
Y155300D01*
X38700D01*
Y157000D01*
D02*
G37*
G36*
X41150D02*
X39700D01*
Y155300D01*
X41150D01*
Y157000D01*
D02*
G37*
G36*
X38700Y159700D02*
X37250D01*
Y158000D01*
X38700D01*
Y159700D01*
D02*
G37*
G36*
X16000Y181300D02*
X14300D01*
Y179850D01*
X16000D01*
Y181300D01*
D02*
G37*
G36*
X18700D02*
X17000D01*
Y179850D01*
X18700D01*
Y181300D01*
D02*
G37*
G36*
X24000Y182200D02*
X22300D01*
Y180750D01*
X24000D01*
Y182200D01*
D02*
G37*
G36*
X-13800Y181300D02*
X-15500D01*
Y179850D01*
X-13800D01*
Y181300D01*
D02*
G37*
G36*
X41150Y165700D02*
X39700D01*
Y164000D01*
X41150D01*
Y165700D01*
D02*
G37*
G36*
X39000Y181250D02*
X35800D01*
Y178589D01*
X39000D01*
Y181250D01*
D02*
G37*
G36*
X43200D02*
X40000D01*
Y178589D01*
X43200D01*
Y181250D01*
D02*
G37*
G36*
X41150Y153700D02*
X39700D01*
Y152000D01*
X41150D01*
Y153700D01*
D02*
G37*
G36*
X38700Y145000D02*
X37250D01*
Y143300D01*
X38700D01*
Y145000D01*
D02*
G37*
G36*
X41150D02*
X39700D01*
Y143300D01*
X41150D01*
Y145000D01*
D02*
G37*
G36*
X38700Y147700D02*
X37250D01*
Y146000D01*
X38700D01*
Y147700D01*
D02*
G37*
G36*
X53000Y146335D02*
X52298Y146196D01*
X51702Y145798D01*
X51304Y145202D01*
X51165Y144500D01*
X51165Y144497D01*
X51103Y144348D01*
X51111Y144341D01*
X51111Y144341D01*
X42964Y136194D01*
X42699Y135797D01*
X42606Y135329D01*
Y64973D01*
X42596D01*
X42588Y64931D01*
X41930D01*
X41930Y64931D01*
Y64931D01*
X41751Y64931D01*
X41664D01*
X41576D01*
X41398Y64931D01*
X41398Y64931D01*
Y64931D01*
X40652D01*
X40576Y65312D01*
X40579Y65335D01*
X40569D01*
Y118186D01*
X40584D01*
X40640Y118465D01*
X40798Y118702D01*
X40798Y118702D01*
X41196Y119298D01*
X41335Y120000D01*
X41196Y120702D01*
X40798Y121298D01*
X40202Y121696D01*
X39500Y121835D01*
X38798Y121696D01*
X38202Y121298D01*
X37804Y120702D01*
X37665Y120000D01*
X37804Y119298D01*
X38202Y118702D01*
X38202Y118702D01*
X38357Y118468D01*
X38412Y118193D01*
X38417D01*
X38424Y118186D01*
Y118186D01*
X38428Y118186D01*
Y65335D01*
X38418D01*
X38421Y65312D01*
X38345Y64931D01*
X37599D01*
X37599Y64931D01*
Y64931D01*
X37420Y64931D01*
X37333D01*
X37246D01*
X37067Y64931D01*
X37067Y64931D01*
Y64931D01*
X36409D01*
X36401Y64973D01*
X36391D01*
Y72103D01*
X36398D01*
X36391Y72175D01*
Y74517D01*
X36401D01*
X36391Y74594D01*
Y78405D01*
X36401Y78483D01*
X36391D01*
Y80825D01*
X36398Y80897D01*
X36391D01*
Y107147D01*
X36395D01*
X36391Y107179D01*
Y107842D01*
X36696Y108298D01*
X36835Y109000D01*
X36696Y109702D01*
X36298Y110298D01*
X35702Y110696D01*
X35000Y110835D01*
X34298Y110696D01*
X33702Y110298D01*
X33304Y109702D01*
X33165Y109000D01*
X33304Y108298D01*
X33702Y107702D01*
X33703Y107702D01*
X33873Y107448D01*
X33933Y107147D01*
X33944D01*
Y80845D01*
X33818Y79888D01*
X33429Y78948D01*
X33239Y78700D01*
X32261D01*
X32261Y78700D01*
Y78700D01*
X32250Y78700D01*
X31907Y79043D01*
Y87163D01*
X31907Y87163D01*
X31826Y87573D01*
X31594Y87920D01*
X31594Y87920D01*
X26571Y92943D01*
Y132500D01*
X26489Y132910D01*
X26257Y133257D01*
X24537Y134977D01*
X24548Y134988D01*
X24391Y135223D01*
X24336Y135500D01*
X24335D01*
X24196Y136202D01*
X23798Y136798D01*
X23202Y137196D01*
X22500Y137335D01*
X21798Y137196D01*
X21202Y136798D01*
X20804Y136202D01*
X20665Y135500D01*
X20804Y134798D01*
X21202Y134202D01*
X21798Y133804D01*
X22500Y133665D01*
Y133664D01*
X22777Y133609D01*
X23012Y133452D01*
X23020Y133460D01*
X23023Y133463D01*
X24429Y132056D01*
Y131213D01*
X23951Y131068D01*
X23798Y131298D01*
X23202Y131696D01*
X22500Y131835D01*
X21798Y131696D01*
X21202Y131298D01*
X20804Y130702D01*
X20665Y130000D01*
X20804Y129298D01*
X21202Y128702D01*
X21204Y128701D01*
X21266Y128551D01*
X21276D01*
Y65695D01*
X21135Y64985D01*
X21100Y64931D01*
X20276D01*
X20276Y64931D01*
Y64931D01*
X20098Y64931D01*
X20010D01*
X19923D01*
X19744Y64931D01*
X19744Y64931D01*
Y64931D01*
X15946D01*
X15946Y64931D01*
Y64931D01*
X15767Y64931D01*
X15679D01*
X15592D01*
X15413Y64931D01*
X15413Y64931D01*
Y64931D01*
X11436D01*
Y62569D01*
X11436D01*
X11261D01*
X11083Y62569D01*
X11083Y62569D01*
Y62569D01*
X8896D01*
Y59112D01*
Y55658D01*
X11261D01*
Y57057D01*
X11436Y57232D01*
X11615Y57232D01*
X11615Y57232D01*
Y57232D01*
X15592D01*
Y57232D01*
X15767D01*
X15946Y57232D01*
X15946Y57232D01*
Y57232D01*
X19923D01*
Y57232D01*
X20098D01*
X20276Y57232D01*
X20276Y57232D01*
Y57232D01*
X24253D01*
Y57232D01*
X24428D01*
X24607Y57232D01*
X24607Y57232D01*
Y57232D01*
X26006D01*
Y61081D01*
Y64931D01*
X24607D01*
X24607Y64931D01*
Y64931D01*
X24428Y64931D01*
X24341D01*
X24253D01*
X24077Y64931D01*
X23723Y65285D01*
Y65645D01*
X23738Y65756D01*
X23723D01*
Y128551D01*
X23734D01*
X23796Y128701D01*
X23798Y128702D01*
X23951Y128932D01*
X24429Y128787D01*
Y92500D01*
X24511Y92090D01*
X24743Y91743D01*
X29766Y86720D01*
Y78716D01*
X29750Y78700D01*
X29413Y78700D01*
X29413Y78700D01*
Y78700D01*
X28300D01*
Y76499D01*
Y74300D01*
X29413D01*
X29766Y73946D01*
Y65335D01*
X29757D01*
X29759Y65312D01*
X29684Y64931D01*
X28938D01*
X28938Y64931D01*
Y64931D01*
X28759Y64931D01*
X28672D01*
X28584D01*
X28405Y64931D01*
X28405Y64931D01*
Y64931D01*
X27006D01*
Y61081D01*
Y57232D01*
X28584D01*
Y57232D01*
X28759D01*
X28938Y57232D01*
X28938Y57232D01*
Y57232D01*
X32915D01*
Y57232D01*
X33090D01*
X33268Y57232D01*
X33268Y57232D01*
Y57232D01*
X37246D01*
Y57232D01*
X37420D01*
X37599Y57232D01*
X37599Y57232D01*
Y57232D01*
X41576D01*
Y57232D01*
X41751D01*
X41930Y57232D01*
X41930Y57232D01*
Y57232D01*
X45907D01*
X45907Y57232D01*
Y57232D01*
X45907D01*
X46082D01*
X46261Y57232D01*
X46261Y57232D01*
Y57232D01*
X50238D01*
Y64931D01*
X46261D01*
X46261Y64931D01*
Y64931D01*
X46082Y64931D01*
X45994D01*
X45907D01*
X45728Y64931D01*
X45728Y64931D01*
Y64931D01*
X45070D01*
X45062Y64973D01*
X45053D01*
Y134822D01*
X52841Y142611D01*
X52841Y142611D01*
X52848Y142603D01*
X52997Y142665D01*
X53000Y142665D01*
X53702Y142804D01*
X54298Y143202D01*
X54696Y143798D01*
X54835Y144500D01*
X54696Y145202D01*
X54298Y145798D01*
X53702Y146196D01*
X53000Y146335D01*
D02*
G37*
G36*
X41150Y141700D02*
X39700D01*
Y140000D01*
X41150D01*
Y141700D01*
D02*
G37*
G36*
X63500Y141736D02*
X63298Y141696D01*
X62702Y141298D01*
X62304Y140702D01*
X62264Y140500D01*
X63500D01*
Y141736D01*
D02*
G37*
G36*
X64500D02*
Y140500D01*
X65736D01*
X65696Y140702D01*
X65298Y141298D01*
X64702Y141696D01*
X64500Y141736D01*
D02*
G37*
G36*
X41150Y151000D02*
X39700D01*
Y149300D01*
X41150D01*
Y151000D01*
D02*
G37*
G36*
X-11382Y152453D02*
X-20901D01*
X-20901Y152449D01*
X-20616Y152022D01*
Y151915D01*
X-20901Y151488D01*
X-20901Y151484D01*
X-11382D01*
X-11383Y151488D01*
X-11668Y151915D01*
Y152022D01*
X-11383Y152449D01*
X-11382Y152453D01*
D02*
G37*
G36*
X38700Y153700D02*
X37250D01*
Y152000D01*
X38700D01*
Y153700D01*
D02*
G37*
G36*
Y151000D02*
X37250D01*
Y149300D01*
X38700D01*
Y151000D01*
D02*
G37*
G36*
X41150Y147700D02*
X39700D01*
Y146000D01*
X41150D01*
Y147700D01*
D02*
G37*
G36*
X-30350Y154700D02*
X-34250D01*
Y150300D01*
X-30350D01*
Y151377D01*
X-30127Y151421D01*
Y151422D01*
Y151429D01*
X-27944D01*
X-25094Y148580D01*
X-25285Y148118D01*
X-30013D01*
X-30013Y148126D01*
X-30013D01*
Y148126D01*
X-30350Y148151D01*
Y149200D01*
X-34250D01*
Y144800D01*
X-30350D01*
Y145904D01*
X-30013Y145971D01*
Y145977D01*
X-24691D01*
X-24499Y145515D01*
X-27569Y142446D01*
X-29825D01*
Y142446D01*
X-30350Y142550D01*
Y143700D01*
X-34250D01*
Y139300D01*
X-30350D01*
Y140304D01*
X-29908D01*
X-29825Y140294D01*
Y140304D01*
X-27125D01*
X-26715Y140386D01*
X-26368Y140618D01*
X-26368Y140618D01*
X-26368Y140618D01*
X-22978Y144008D01*
X-21112D01*
X-20901Y143614D01*
X-21001Y143110D01*
X-20901Y142607D01*
X-20616Y142180D01*
Y142072D01*
X-20901Y141645D01*
X-21001Y141142D01*
X-20901Y140638D01*
X-20616Y140211D01*
Y140104D01*
X-20901Y139677D01*
X-20901Y139673D01*
X-11382D01*
X-11383Y139677D01*
X-11668Y140104D01*
Y140211D01*
X-11383Y140638D01*
X-11283Y141142D01*
X-11383Y141645D01*
X-11668Y142072D01*
Y142180D01*
X-11383Y142607D01*
X-11283Y143110D01*
X-11383Y143614D01*
X-11668Y144041D01*
Y144148D01*
X-11383Y144575D01*
X-11283Y145079D01*
X-11383Y145582D01*
X-11668Y146009D01*
Y146117D01*
X-11383Y146544D01*
X-11283Y147047D01*
X-11383Y147551D01*
X-11668Y147978D01*
Y148085D01*
X-11383Y148512D01*
X-11283Y149016D01*
X-11383Y149519D01*
X-11668Y149946D01*
Y150054D01*
X-11383Y150481D01*
X-11382Y150484D01*
X-20901D01*
X-20901Y150481D01*
X-21112Y150086D01*
X-23572D01*
X-26743Y153257D01*
X-27090Y153489D01*
X-27500Y153571D01*
X-30127D01*
Y153578D01*
Y153579D01*
X-30350Y153623D01*
Y154700D01*
D02*
G37*
G36*
X24236Y149500D02*
X23000D01*
Y148264D01*
X23202Y148304D01*
X23798Y148702D01*
X24196Y149298D01*
X24236Y149500D01*
D02*
G37*
G36*
X-58302Y51469D02*
X-59876Y51314D01*
X-61389Y50855D01*
X-62784Y50109D01*
X-64007Y49106D01*
X-65011Y47883D01*
X-65756Y46488D01*
X-66215Y44974D01*
X-66370Y43400D01*
X-66215Y41826D01*
X-65756Y40312D01*
X-65011Y38917D01*
X-64007Y37694D01*
X-62784Y36691D01*
X-61389Y35945D01*
X-59876Y35486D01*
X-58302Y35331D01*
X-56727Y35486D01*
X-55214Y35945D01*
X-53819Y36691D01*
X-52596Y37694D01*
X-51593Y38917D01*
X-50847Y40312D01*
X-50388Y41826D01*
X-50233Y43400D01*
X-50388Y44974D01*
X-50847Y46488D01*
X-51593Y47883D01*
X-52596Y49106D01*
X-53819Y50109D01*
X-55214Y50855D01*
X-56727Y51314D01*
X-58302Y51469D01*
D02*
G37*
G36*
X-13302D02*
X-14876Y51314D01*
X-16389Y50855D01*
X-17784Y50109D01*
X-19007Y49106D01*
X-20011Y47883D01*
X-20756Y46488D01*
X-21215Y44974D01*
X-21370Y43400D01*
X-21215Y41826D01*
X-20756Y40312D01*
X-20011Y38917D01*
X-19007Y37694D01*
X-17784Y36691D01*
X-16389Y35945D01*
X-14876Y35486D01*
X-13302Y35331D01*
X-11727Y35486D01*
X-10214Y35945D01*
X-8819Y36691D01*
X-7596Y37694D01*
X-6593Y38917D01*
X-5847Y40312D01*
X-5388Y41826D01*
X-5233Y43400D01*
X-5388Y44974D01*
X-5847Y46488D01*
X-6593Y47883D01*
X-7596Y49106D01*
X-8819Y50109D01*
X-10214Y50855D01*
X-11727Y51314D01*
X-13302Y51469D01*
D02*
G37*
G36*
X-90000Y43684D02*
X-90954Y43559D01*
X-91842Y43191D01*
X-92605Y42605D01*
X-93191Y41842D01*
X-93559Y40954D01*
X-93684Y40000D01*
X-93559Y39046D01*
X-93191Y38158D01*
X-92605Y37395D01*
X-91842Y36809D01*
X-90954Y36441D01*
X-90000Y36316D01*
X-89046Y36441D01*
X-88158Y36809D01*
X-87395Y37395D01*
X-86809Y38158D01*
X-86441Y39046D01*
X-86316Y40000D01*
X-86441Y40954D01*
X-86809Y41842D01*
X-87395Y42605D01*
X-88158Y43191D01*
X-89046Y43559D01*
X-90000Y43684D01*
D02*
G37*
G36*
X-62600Y102250D02*
X-67000D01*
Y98350D01*
X-65923D01*
X-65879Y98127D01*
X-65871D01*
Y67800D01*
X-65871Y67800D01*
X-65871D01*
X-65789Y67390D01*
X-65557Y67043D01*
X-49071Y50556D01*
Y38443D01*
X-55412Y32102D01*
X-55412Y32102D01*
Y32102D01*
X-55517Y31997D01*
X-56787Y30955D01*
X-58367Y30110D01*
X-60081Y29590D01*
X-61729Y29428D01*
X-61865Y29446D01*
X-62987Y29298D01*
X-64033Y28865D01*
X-64931Y28176D01*
X-65621Y27277D01*
X-66054Y26231D01*
X-66202Y25109D01*
X-66054Y23986D01*
X-65621Y22940D01*
X-64931Y22042D01*
X-64033Y21353D01*
X-62987Y20919D01*
X-61865Y20772D01*
X-60742Y20919D01*
X-59696Y21353D01*
X-58798Y22042D01*
X-58109Y22940D01*
X-57675Y23986D01*
X-57528Y25109D01*
X-57540Y25204D01*
X-57401Y26256D01*
X-56958Y27326D01*
X-56338Y28134D01*
X-56276Y28186D01*
X-56288Y28198D01*
X-55277Y29209D01*
X-55075Y29375D01*
X-55093Y29393D01*
X-54026Y30461D01*
X-53888Y30578D01*
X-53898Y30588D01*
X-47243Y37243D01*
X-47011Y37590D01*
X-46929Y38000D01*
Y51000D01*
X-46929Y51000D01*
X-47011Y51410D01*
X-47243Y51757D01*
X-63729Y68243D01*
Y98127D01*
X-63721D01*
X-63677Y98350D01*
X-62600D01*
Y102250D01*
D02*
G37*
G36*
X72876Y26349D02*
X70313D01*
Y21818D01*
X72876D01*
Y26349D01*
D02*
G37*
G36*
X-90000Y33684D02*
X-90954Y33559D01*
X-91842Y33191D01*
X-92605Y32605D01*
X-93191Y31842D01*
X-93559Y30954D01*
X-93684Y30000D01*
X-93559Y29046D01*
X-93191Y28158D01*
X-92605Y27395D01*
X-91842Y26809D01*
X-90954Y26441D01*
X-90000Y26316D01*
X-89046Y26441D01*
X-88158Y26809D01*
X-87395Y27395D01*
X-86809Y28158D01*
X-86441Y29046D01*
X-86316Y30000D01*
X-86441Y30954D01*
X-86809Y31842D01*
X-87395Y32605D01*
X-88158Y33191D01*
X-89046Y33559D01*
X-90000Y33684D01*
D02*
G37*
G36*
X90000D02*
X89046Y33559D01*
X88158Y33191D01*
X87395Y32605D01*
X86809Y31842D01*
X86441Y30954D01*
X86316Y30000D01*
X86441Y29046D01*
X86809Y28158D01*
X87395Y27395D01*
X88158Y26809D01*
X89046Y26441D01*
X90000Y26316D01*
X90954Y26441D01*
X91842Y26809D01*
X92605Y27395D01*
X93191Y28158D01*
X93559Y29046D01*
X93684Y30000D01*
X93559Y30954D01*
X93191Y31842D01*
X92605Y32605D01*
X91842Y33191D01*
X90954Y33559D01*
X90000Y33684D01*
D02*
G37*
G36*
X-67778Y55908D02*
X-72457D01*
X-72344Y55050D01*
X-71820Y53786D01*
X-70987Y52699D01*
X-69900Y51866D01*
X-68635Y51342D01*
X-67778Y51229D01*
Y55908D01*
D02*
G37*
G36*
X-62099D02*
X-66778D01*
Y51229D01*
X-65921Y51342D01*
X-64656Y51866D01*
X-63569Y52699D01*
X-62736Y53786D01*
X-62212Y55050D01*
X-62099Y55908D01*
D02*
G37*
G36*
X7896Y58613D02*
X5531D01*
Y55658D01*
X7896D01*
Y58613D01*
D02*
G37*
G36*
X-4286Y61653D02*
X-5643Y61474D01*
X-6908Y60950D01*
X-7994Y60117D01*
X-8828Y59030D01*
X-9352Y57765D01*
X-9531Y56408D01*
X-9352Y55050D01*
X-8828Y53786D01*
X-7994Y52699D01*
X-6908Y51866D01*
X-5643Y51342D01*
X-4286Y51163D01*
X-2928Y51342D01*
X-1663Y51866D01*
X-577Y52699D01*
X256Y53786D01*
X780Y55050D01*
X959Y56408D01*
X780Y57765D01*
X256Y59030D01*
X-577Y60117D01*
X-1663Y60950D01*
X-2928Y61474D01*
X-4286Y61653D01*
D02*
G37*
G36*
X90000Y43684D02*
X89046Y43559D01*
X88158Y43191D01*
X87395Y42605D01*
X86809Y41842D01*
X86441Y40954D01*
X86316Y40000D01*
X86441Y39046D01*
X86809Y38158D01*
X87395Y37395D01*
X88158Y36809D01*
X89046Y36441D01*
X90000Y36316D01*
X90954Y36441D01*
X91842Y36809D01*
X92605Y37395D01*
X93191Y38158D01*
X93559Y39046D01*
X93684Y40000D01*
X93559Y40954D01*
X93191Y41842D01*
X92605Y42605D01*
X91842Y43191D01*
X90954Y43559D01*
X90000Y43684D01*
D02*
G37*
G36*
X-90000Y53684D02*
X-90954Y53559D01*
X-91842Y53191D01*
X-92605Y52605D01*
X-93191Y51842D01*
X-93559Y50954D01*
X-93684Y50000D01*
X-93559Y49046D01*
X-93191Y48158D01*
X-92605Y47395D01*
X-91842Y46809D01*
X-90954Y46441D01*
X-90000Y46316D01*
X-89046Y46441D01*
X-88158Y46809D01*
X-87395Y47395D01*
X-86809Y48158D01*
X-86441Y49046D01*
X-86316Y50000D01*
X-86441Y50954D01*
X-86809Y51842D01*
X-87395Y52605D01*
X-88158Y53191D01*
X-89046Y53559D01*
X-90000Y53684D01*
D02*
G37*
G36*
X90000D02*
X89046Y53559D01*
X88158Y53191D01*
X87395Y52605D01*
X86809Y51842D01*
X86441Y50954D01*
X86316Y50000D01*
X86441Y49046D01*
X86809Y48158D01*
X87395Y47395D01*
X88158Y46809D01*
X89046Y46441D01*
X90000Y46316D01*
X90954Y46441D01*
X91842Y46809D01*
X92605Y47395D01*
X93191Y48158D01*
X93559Y49046D01*
X93684Y50000D01*
X93559Y50954D01*
X93191Y51842D01*
X92605Y52605D01*
X91842Y53191D01*
X90954Y53559D01*
X90000Y53684D01*
D02*
G37*
G36*
X69313Y26349D02*
X66751D01*
Y21818D01*
X69313D01*
Y26349D01*
D02*
G37*
G36*
X72876Y20818D02*
X70313D01*
Y16287D01*
X72876D01*
Y20818D01*
D02*
G37*
G36*
X-90000Y23684D02*
X-90954Y23559D01*
X-91842Y23191D01*
X-92605Y22605D01*
X-93191Y21842D01*
X-93559Y20954D01*
X-93684Y20000D01*
X-93559Y19046D01*
X-93191Y18158D01*
X-92605Y17395D01*
X-91842Y16809D01*
X-90954Y16441D01*
X-90000Y16316D01*
X-89046Y16441D01*
X-88158Y16809D01*
X-87395Y17395D01*
X-86809Y18158D01*
X-86441Y19046D01*
X-86316Y20000D01*
X-86441Y20954D01*
X-86809Y21842D01*
X-87395Y22605D01*
X-88158Y23191D01*
X-89046Y23559D01*
X-90000Y23684D01*
D02*
G37*
G36*
X90000D02*
X89046Y23559D01*
X88158Y23191D01*
X87395Y22605D01*
X86809Y21842D01*
X86441Y20954D01*
X86316Y20000D01*
X86441Y19046D01*
X86809Y18158D01*
X87395Y17395D01*
X88158Y16809D01*
X89046Y16441D01*
X90000Y16316D01*
X90954Y16441D01*
X91842Y16809D01*
X92605Y17395D01*
X93191Y18158D01*
X93559Y19046D01*
X93684Y20000D01*
X93559Y20954D01*
X93191Y21842D01*
X92605Y22605D01*
X91842Y23191D01*
X90954Y23559D01*
X90000Y23684D01*
D02*
G37*
G36*
X69313Y20818D02*
X66751D01*
Y16287D01*
X69313D01*
Y20818D01*
D02*
G37*
G36*
X90000Y13684D02*
X89046Y13559D01*
X88158Y13191D01*
X87395Y12605D01*
X86809Y11842D01*
X86441Y10954D01*
X86316Y10000D01*
X86441Y9046D01*
X86809Y8158D01*
X87395Y7395D01*
X88158Y6809D01*
X89046Y6441D01*
X90000Y6316D01*
X90954Y6441D01*
X91842Y6809D01*
X92605Y7395D01*
X93191Y8158D01*
X93559Y9046D01*
X93684Y10000D01*
X93559Y10954D01*
X93191Y11842D01*
X92605Y12605D01*
X91842Y13191D01*
X90954Y13559D01*
X90000Y13684D01*
D02*
G37*
G36*
X8093Y20818D02*
X5531D01*
Y16287D01*
X8093D01*
Y20818D01*
D02*
G37*
G36*
X11655D02*
X9093D01*
Y16287D01*
X11655D01*
Y20818D01*
D02*
G37*
G36*
X1900Y102250D02*
X-2500D01*
Y98350D01*
X-1423D01*
X-1379Y98127D01*
X-1371D01*
Y71500D01*
Y71200D01*
Y66300D01*
X-1289Y65890D01*
X-1057Y65543D01*
X1929Y62557D01*
Y46444D01*
X-10459Y34055D01*
X-10691Y33708D01*
X-10772Y33298D01*
Y32955D01*
X-10795D01*
X-10782Y32825D01*
X-10899Y31632D01*
X-11285Y30361D01*
X-11911Y29189D01*
X-12700Y28228D01*
X-12768Y28176D01*
X-13458Y27277D01*
X-13891Y26231D01*
X-14039Y25109D01*
X-13891Y23986D01*
X-13458Y22940D01*
X-12768Y22042D01*
X-11870Y21353D01*
X-10824Y20919D01*
X-9702Y20772D01*
X-8579Y20919D01*
X-7533Y21353D01*
X-6635Y22042D01*
X-5945Y22940D01*
X-5512Y23986D01*
X-5364Y25109D01*
X-5512Y26231D01*
X-5945Y27277D01*
X-6635Y28176D01*
X-6703Y28228D01*
X-7492Y29189D01*
X-8118Y30361D01*
X-8504Y31632D01*
X-8621Y32825D01*
X-8617Y32869D01*
X3757Y45243D01*
X3989Y45590D01*
X4071Y46000D01*
X4071Y46000D01*
X4071Y46000D01*
Y46000D01*
Y63000D01*
X3989Y63410D01*
X3757Y63757D01*
X771Y66743D01*
Y71200D01*
Y71500D01*
Y98127D01*
X779D01*
X823Y98350D01*
X1900D01*
Y102250D01*
D02*
G37*
G36*
X8093Y26349D02*
X5531D01*
Y21818D01*
X8093D01*
Y26349D01*
D02*
G37*
G36*
X11655D02*
X9093D01*
Y21818D01*
X11655D01*
Y26349D01*
D02*
G37*
G36*
X-19715Y29446D02*
X-20838Y29298D01*
X-21883Y28865D01*
X-22782Y28176D01*
X-23471Y27277D01*
X-23904Y26231D01*
X-24052Y25109D01*
X-23904Y23986D01*
X-23471Y22940D01*
X-22782Y22042D01*
X-21883Y21353D01*
X-20838Y20919D01*
X-19715Y20772D01*
X-18592Y20919D01*
X-17546Y21353D01*
X-16648Y22042D01*
X-15959Y22940D01*
X-15526Y23986D01*
X-15378Y25109D01*
X-15526Y26231D01*
X-15959Y27277D01*
X-16648Y28176D01*
X-17546Y28865D01*
X-18592Y29298D01*
X-19715Y29446D01*
D02*
G37*
G36*
X19813Y22435D02*
X19117Y22343D01*
X18468Y22074D01*
X17910Y21646D01*
X17482Y21089D01*
X17214Y20440D01*
X17122Y19743D01*
X17214Y19047D01*
X17482Y18397D01*
X17910Y17840D01*
X18468Y17412D01*
X19117Y17143D01*
X19813Y17052D01*
X20510Y17143D01*
X21159Y17412D01*
X21717Y17840D01*
X22144Y18397D01*
X22413Y19047D01*
X22505Y19743D01*
X22413Y20440D01*
X22144Y21089D01*
X21717Y21646D01*
X21159Y22074D01*
X20510Y22343D01*
X19813Y22435D01*
D02*
G37*
G36*
X51310D02*
X50613Y22343D01*
X49964Y22074D01*
X49406Y21646D01*
X48978Y21089D01*
X48710Y20440D01*
X48618Y19743D01*
X48710Y19047D01*
X48978Y18397D01*
X49406Y17840D01*
X49964Y17412D01*
X50613Y17143D01*
X51310Y17052D01*
X52006Y17143D01*
X52655Y17412D01*
X53213Y17840D01*
X53640Y18397D01*
X53909Y19047D01*
X54001Y19743D01*
X53909Y20440D01*
X53640Y21089D01*
X53213Y21646D01*
X52655Y22074D01*
X52006Y22343D01*
X51310Y22435D01*
D02*
G37*
G36*
X-51902Y29446D02*
X-53024Y29298D01*
X-54070Y28865D01*
X-54968Y28176D01*
X-55658Y27277D01*
X-56091Y26231D01*
X-56239Y25109D01*
X-56091Y23986D01*
X-55658Y22940D01*
X-54968Y22042D01*
X-54070Y21353D01*
X-53024Y20919D01*
X-51902Y20772D01*
X-50779Y20919D01*
X-49733Y21353D01*
X-48835Y22042D01*
X-48145Y22940D01*
X-47712Y23986D01*
X-47565Y25109D01*
X-47712Y26231D01*
X-48145Y27277D01*
X-48835Y28176D01*
X-49733Y28865D01*
X-50779Y29298D01*
X-51902Y29446D01*
D02*
G37*
G36*
X-51100Y102250D02*
X-55500D01*
Y98350D01*
X-54423D01*
X-54379Y98127D01*
X-54371D01*
Y97200D01*
X-54404Y97118D01*
X-54696Y96682D01*
X-54835Y95980D01*
X-54696Y95278D01*
X-54298Y94682D01*
X-53702Y94284D01*
X-53000Y94145D01*
Y94144D01*
X-52723Y94089D01*
X-52488Y93932D01*
X-52480Y93940D01*
X-52477Y93943D01*
X-52477Y93942D01*
X-49372Y90838D01*
Y86939D01*
X-49389D01*
X-49374Y86787D01*
X-49544Y85493D01*
X-50102Y84146D01*
X-50919Y83082D01*
X-51012Y83010D01*
X-51621Y82216D01*
X-51741Y81927D01*
X-52231Y82025D01*
Y88991D01*
X-52215D01*
X-52160Y89268D01*
X-52003Y89503D01*
X-52004Y89504D01*
X-51606Y90099D01*
X-51466Y90802D01*
X-51606Y91504D01*
X-52004Y92099D01*
X-52599Y92497D01*
X-53302Y92637D01*
X-54004Y92497D01*
X-54599Y92099D01*
X-54997Y91504D01*
X-55137Y90802D01*
X-54997Y90099D01*
X-54599Y89504D01*
X-54600Y89503D01*
X-54443Y89268D01*
X-54388Y88991D01*
X-54372D01*
Y76939D01*
X-54389D01*
X-54374Y76787D01*
X-54544Y75493D01*
X-55102Y74146D01*
X-55137Y74100D01*
X-57102D01*
Y64700D01*
X-49502D01*
Y74100D01*
X-51466D01*
X-51501Y74146D01*
X-52059Y75493D01*
X-52177Y76388D01*
X-51829Y76748D01*
X-51683Y76733D01*
X-51621Y76584D01*
X-51012Y75790D01*
X-50218Y75181D01*
X-49294Y74798D01*
X-48302Y74667D01*
X-47310Y74798D01*
X-46385Y75181D01*
X-45591Y75790D01*
X-44982Y76584D01*
X-44599Y77508D01*
X-44469Y78500D01*
Y80300D01*
X-44599Y81292D01*
X-44982Y82216D01*
X-45591Y83010D01*
X-45684Y83082D01*
X-46501Y84146D01*
X-47059Y85493D01*
X-47229Y86787D01*
X-47214Y86939D01*
X-47231D01*
Y91281D01*
X-47313Y91691D01*
X-47545Y92039D01*
X-47545Y92039D01*
X-50963Y95457D01*
X-50963Y95457D01*
X-50952Y95468D01*
X-51109Y95703D01*
X-51164Y95980D01*
X-51165D01*
X-51304Y96682D01*
X-51702Y97278D01*
X-51743Y97305D01*
X-52099Y97838D01*
X-52189Y98288D01*
X-52177Y98350D01*
X-51100D01*
Y102250D01*
D02*
G37*
G36*
X-21433D02*
X-25833D01*
Y98350D01*
X-24757D01*
X-24712Y98127D01*
X-24704D01*
Y95000D01*
Y93310D01*
X-29059Y88955D01*
X-29291Y88608D01*
X-29372Y88198D01*
Y86939D01*
X-29389D01*
X-29374Y86787D01*
X-29544Y85493D01*
X-30102Y84146D01*
X-30919Y83082D01*
X-31012Y83010D01*
X-31621Y82216D01*
X-31741Y81927D01*
X-32231Y82025D01*
Y88755D01*
X-28743Y92243D01*
X-28511Y92590D01*
X-28429Y93000D01*
X-28429Y93000D01*
X-28429Y93000D01*
Y93000D01*
Y94189D01*
X-28414D01*
X-28359Y94467D01*
X-28202Y94702D01*
X-28202Y94702D01*
X-27804Y95298D01*
X-27665Y96000D01*
X-27804Y96702D01*
X-28202Y97298D01*
X-28250Y97329D01*
X-28396Y97682D01*
Y97852D01*
X-28391Y97891D01*
X-28391D01*
Y98124D01*
X-28388Y98127D01*
X-28388D01*
X-28343Y98350D01*
X-27267D01*
Y102250D01*
X-31667D01*
Y98350D01*
X-30590D01*
X-30546Y98127D01*
X-30546Y98127D01*
X-30546D01*
Y97896D01*
X-30551Y97891D01*
X-30551D01*
X-30615Y97569D01*
X-30795Y97300D01*
X-30798Y97298D01*
X-31196Y96702D01*
X-31335Y96000D01*
X-31196Y95298D01*
X-30798Y94702D01*
X-30798Y94702D01*
X-30641Y94467D01*
X-30586Y94189D01*
X-30571D01*
Y93443D01*
X-34059Y89955D01*
X-34291Y89608D01*
X-34372Y89198D01*
Y82025D01*
X-34863Y81927D01*
X-34982Y82216D01*
X-35591Y83010D01*
X-35684Y83082D01*
X-36501Y84146D01*
X-37059Y85493D01*
X-37229Y86787D01*
X-37214Y86939D01*
X-37231D01*
Y90802D01*
X-37312Y91211D01*
X-37545Y91559D01*
X-40229Y94243D01*
Y98127D01*
X-40221D01*
X-40177Y98350D01*
X-39100D01*
Y99177D01*
X-38877Y99221D01*
Y99222D01*
Y99229D01*
X-37723D01*
Y99222D01*
Y99221D01*
X-37500Y99177D01*
Y98350D01*
X-33100D01*
Y102250D01*
X-37500D01*
Y101423D01*
X-37723Y101379D01*
Y101371D01*
X-38877D01*
Y101379D01*
X-39100Y101423D01*
Y102250D01*
X-43500D01*
Y98350D01*
X-42423D01*
X-42379Y98127D01*
X-42371D01*
Y93800D01*
X-42371Y93800D01*
X-42371D01*
X-42289Y93390D01*
X-42057Y93043D01*
X-39372Y90358D01*
Y86939D01*
X-39389D01*
X-39374Y86787D01*
X-39544Y85493D01*
X-40102Y84146D01*
X-40919Y83082D01*
X-41012Y83010D01*
X-41621Y82216D01*
X-42004Y81292D01*
X-42134Y80300D01*
Y78500D01*
X-42004Y77508D01*
X-41621Y76584D01*
X-41012Y75790D01*
X-40218Y75181D01*
X-39294Y74798D01*
X-38302Y74667D01*
X-37310Y74798D01*
X-36385Y75181D01*
X-35591Y75790D01*
X-34982Y76584D01*
X-34920Y76733D01*
X-34774Y76748D01*
X-34426Y76388D01*
X-34544Y75493D01*
X-35102Y74146D01*
X-35919Y73081D01*
X-36012Y73010D01*
X-36621Y72216D01*
X-37004Y71292D01*
X-37134Y70300D01*
Y68500D01*
X-37004Y67508D01*
X-36621Y66584D01*
X-36012Y65790D01*
X-35218Y65181D01*
X-34294Y64798D01*
X-33302Y64667D01*
X-32310Y64798D01*
X-31385Y65181D01*
X-30591Y65790D01*
X-29982Y66584D01*
X-29599Y67508D01*
X-29469Y68500D01*
Y70300D01*
X-29599Y71292D01*
X-29982Y72216D01*
X-30591Y73010D01*
X-30684Y73081D01*
X-31501Y74146D01*
X-32059Y75493D01*
X-32177Y76388D01*
X-31829Y76748D01*
X-31683Y76733D01*
X-31621Y76584D01*
X-31012Y75790D01*
X-30218Y75181D01*
X-29294Y74798D01*
X-28302Y74667D01*
X-27310Y74798D01*
X-26385Y75181D01*
X-25591Y75790D01*
X-24982Y76584D01*
X-24599Y77508D01*
X-24469Y78500D01*
Y80300D01*
X-24599Y81292D01*
X-24982Y82216D01*
X-25591Y83010D01*
X-25684Y83082D01*
X-26501Y84146D01*
X-27059Y85493D01*
X-27229Y86787D01*
X-27214Y86939D01*
X-27231D01*
Y87755D01*
X-22876Y92110D01*
X-22876Y92110D01*
X-22644Y92457D01*
X-22563Y92867D01*
Y98127D01*
X-22554D01*
X-22510Y98350D01*
X-21433D01*
Y102250D01*
D02*
G37*
G36*
X-15600D02*
X-20000D01*
Y98350D01*
X-18923D01*
X-18879Y98127D01*
X-18871D01*
Y94776D01*
X-19171Y94326D01*
X-19257Y94256D01*
X-19925Y94389D01*
X-20628Y94249D01*
X-21223Y93851D01*
X-21621Y93256D01*
X-21760Y92553D01*
X-21621Y91851D01*
X-21223Y91255D01*
X-20628Y90858D01*
X-19925Y90718D01*
X-19223Y90858D01*
X-18628Y91255D01*
X-18519Y91418D01*
X-18345Y91453D01*
X-18195Y91553D01*
X-18137Y91564D01*
X-17790Y91796D01*
X-17707Y91878D01*
X-17610Y91944D01*
X-17626Y91960D01*
X-17626Y91960D01*
X-17134Y92452D01*
X-17025Y92525D01*
X-17043Y92543D01*
X-17043Y92543D01*
X-16811Y92890D01*
X-16729Y93300D01*
Y98127D01*
X-16721D01*
X-16677Y98350D01*
X-15600D01*
Y102250D01*
D02*
G37*
G36*
X27300Y78700D02*
X25850D01*
Y77000D01*
X27300D01*
Y78700D01*
D02*
G37*
G36*
X-18302Y84133D02*
X-19294Y84002D01*
X-20218Y83619D01*
X-21012Y83010D01*
X-21621Y82216D01*
X-22004Y81292D01*
X-22134Y80300D01*
Y78500D01*
X-22004Y77508D01*
X-21621Y76584D01*
X-21012Y75790D01*
X-20218Y75181D01*
X-19294Y74798D01*
X-18302Y74667D01*
X-17310Y74798D01*
X-16385Y75181D01*
X-15591Y75790D01*
X-14982Y76584D01*
X-14599Y77508D01*
X-14469Y78500D01*
Y80300D01*
X-14599Y81292D01*
X-14982Y82216D01*
X-15591Y83010D01*
X-16385Y83619D01*
X-17310Y84002D01*
X-18302Y84133D01*
D02*
G37*
G36*
X-86347Y83653D02*
X-93653D01*
Y76347D01*
X-86347D01*
Y83653D01*
D02*
G37*
G36*
X93653D02*
X86347D01*
Y76347D01*
X93653D01*
Y83653D01*
D02*
G37*
G36*
X-56600Y99800D02*
X-58300D01*
Y98350D01*
X-56600D01*
Y99800D01*
D02*
G37*
G36*
X89500Y103618D02*
X89046Y103559D01*
X88158Y103191D01*
X87395Y102605D01*
X86809Y101842D01*
X86441Y100954D01*
X86382Y100500D01*
X89500D01*
Y103618D01*
D02*
G37*
G36*
X90500D02*
Y100500D01*
X93618D01*
X93559Y100954D01*
X93191Y101842D01*
X92605Y102605D01*
X91842Y103191D01*
X90954Y103559D01*
X90500Y103618D01*
D02*
G37*
G36*
X-59300Y99800D02*
X-61000D01*
Y98350D01*
X-59300D01*
Y99800D01*
D02*
G37*
G36*
X-45100Y102250D02*
X-49500D01*
Y98350D01*
X-48944D01*
X-48709Y97909D01*
X-48771Y97816D01*
X-48798Y97798D01*
X-49196Y97202D01*
X-49335Y96500D01*
X-49196Y95798D01*
X-48798Y95202D01*
X-48202Y94804D01*
X-47500Y94665D01*
X-46798Y94804D01*
X-46202Y95202D01*
X-45804Y95798D01*
X-45665Y96500D01*
X-45804Y97202D01*
X-46202Y97798D01*
X-46194Y97807D01*
X-46198Y97817D01*
X-46202Y97828D01*
X-46202Y97828D01*
X-46221Y97847D01*
Y98127D01*
X-46221D01*
X-46221Y98127D01*
X-46177Y98350D01*
X-45100D01*
Y102250D01*
D02*
G37*
G36*
X89500Y99500D02*
X86382D01*
X86441Y99046D01*
X86809Y98158D01*
X87395Y97395D01*
X88158Y96809D01*
X89046Y96441D01*
X89500Y96382D01*
Y99500D01*
D02*
G37*
G36*
X93618D02*
X90500D01*
Y96382D01*
X90954Y96441D01*
X91842Y96809D01*
X92605Y97395D01*
X93191Y98158D01*
X93559Y99046D01*
X93618Y99500D01*
D02*
G37*
G36*
X27300Y76000D02*
X25850D01*
Y74300D01*
X27300D01*
Y76000D01*
D02*
G37*
G36*
X-67778Y61587D02*
X-68635Y61474D01*
X-69900Y60950D01*
X-70987Y60117D01*
X-71820Y59030D01*
X-72344Y57765D01*
X-72457Y56908D01*
X-67778D01*
Y61587D01*
D02*
G37*
G36*
X-66778D02*
Y56908D01*
X-62099D01*
X-62212Y57765D01*
X-62736Y59030D01*
X-63569Y60117D01*
X-64656Y60950D01*
X-65921Y61474D01*
X-66778Y61587D01*
D02*
G37*
G36*
X7896Y62569D02*
X5531D01*
Y59613D01*
X7896D01*
Y62569D01*
D02*
G37*
G36*
X90000Y63684D02*
X89046Y63559D01*
X88158Y63191D01*
X87395Y62605D01*
X86809Y61842D01*
X86441Y60954D01*
X86316Y60000D01*
X86441Y59046D01*
X86809Y58158D01*
X87395Y57395D01*
X88158Y56809D01*
X89046Y56441D01*
X90000Y56316D01*
X90954Y56441D01*
X91842Y56809D01*
X92605Y57395D01*
X93191Y58158D01*
X93559Y59046D01*
X93684Y60000D01*
X93559Y60954D01*
X93191Y61842D01*
X92605Y62605D01*
X91842Y63191D01*
X90954Y63559D01*
X90000Y63684D01*
D02*
G37*
G36*
X65770Y58613D02*
X62420D01*
Y55658D01*
X65770D01*
Y58613D01*
D02*
G37*
G36*
X70120D02*
X66770D01*
Y55658D01*
X70120D01*
Y58613D01*
D02*
G37*
G36*
X-90000Y63684D02*
X-90954Y63559D01*
X-91842Y63191D01*
X-92605Y62605D01*
X-93191Y61842D01*
X-93559Y60954D01*
X-93684Y60000D01*
X-93559Y59046D01*
X-93191Y58158D01*
X-92605Y57395D01*
X-91842Y56809D01*
X-90954Y56441D01*
X-90000Y56316D01*
X-89046Y56441D01*
X-88158Y56809D01*
X-87395Y57395D01*
X-86809Y58158D01*
X-86441Y59046D01*
X-86316Y60000D01*
X-86441Y60954D01*
X-86809Y61842D01*
X-87395Y62605D01*
X-88158Y63191D01*
X-89046Y63559D01*
X-90000Y63684D01*
D02*
G37*
G36*
Y73684D02*
X-90954Y73559D01*
X-91842Y73191D01*
X-92605Y72605D01*
X-93191Y71842D01*
X-93559Y70954D01*
X-93684Y70000D01*
X-93559Y69046D01*
X-93191Y68158D01*
X-92605Y67395D01*
X-91842Y66809D01*
X-90954Y66441D01*
X-90000Y66316D01*
X-89046Y66441D01*
X-88158Y66809D01*
X-87395Y67395D01*
X-86809Y68158D01*
X-86441Y69046D01*
X-86316Y70000D01*
X-86441Y70954D01*
X-86809Y71842D01*
X-87395Y72605D01*
X-88158Y73191D01*
X-89046Y73559D01*
X-90000Y73684D01*
D02*
G37*
G36*
X90000D02*
X89046Y73559D01*
X88158Y73191D01*
X87395Y72605D01*
X86809Y71842D01*
X86441Y70954D01*
X86316Y70000D01*
X86441Y69046D01*
X86809Y68158D01*
X87395Y67395D01*
X88158Y66809D01*
X89046Y66441D01*
X90000Y66316D01*
X90954Y66441D01*
X91842Y66809D01*
X92605Y67395D01*
X93191Y68158D01*
X93559Y69046D01*
X93684Y70000D01*
X93559Y70954D01*
X93191Y71842D01*
X92605Y72605D01*
X91842Y73191D01*
X90954Y73559D01*
X90000Y73684D01*
D02*
G37*
G36*
X59055Y88847D02*
X57083Y88653D01*
X55187Y88078D01*
X53440Y87144D01*
X51908Y85887D01*
X50652Y84355D01*
X49718Y82608D01*
X49142Y80712D01*
X48948Y78740D01*
X49142Y76768D01*
X49718Y74872D01*
X50652Y73125D01*
X51908Y71593D01*
X53440Y70337D01*
X55187Y69403D01*
X57083Y68827D01*
X59055Y68633D01*
X61027Y68827D01*
X62923Y69403D01*
X64670Y70337D01*
X66202Y71593D01*
X67459Y73125D01*
X68393Y74872D01*
X68968Y76768D01*
X69162Y78740D01*
X68968Y80712D01*
X68393Y82608D01*
X67459Y84355D01*
X66202Y85887D01*
X64670Y87144D01*
X62923Y88078D01*
X61027Y88653D01*
X59055Y88847D01*
D02*
G37*
G36*
X-23302Y74133D02*
X-24294Y74002D01*
X-25218Y73619D01*
X-26012Y73010D01*
X-26621Y72216D01*
X-27004Y71292D01*
X-27134Y70300D01*
Y68500D01*
X-27004Y67508D01*
X-26621Y66584D01*
X-26012Y65790D01*
X-25218Y65181D01*
X-24294Y64798D01*
X-23302Y64667D01*
X-22310Y64798D01*
X-21385Y65181D01*
X-20591Y65790D01*
X-19982Y66584D01*
X-19599Y67508D01*
X-19469Y68500D01*
Y70300D01*
X-19599Y71292D01*
X-19982Y72216D01*
X-20591Y73010D01*
X-21385Y73619D01*
X-22310Y74002D01*
X-23302Y74133D01*
D02*
G37*
G36*
X65770Y62569D02*
X62420D01*
Y59613D01*
X65770D01*
Y62569D01*
D02*
G37*
G36*
X70120D02*
X66770D01*
Y59613D01*
X70120D01*
Y62569D01*
D02*
G37*
G36*
X-43302Y74133D02*
X-44294Y74002D01*
X-45218Y73619D01*
X-46012Y73010D01*
X-46621Y72216D01*
X-47004Y71292D01*
X-47134Y70300D01*
Y68500D01*
X-47004Y67508D01*
X-46621Y66584D01*
X-46012Y65790D01*
X-45218Y65181D01*
X-44294Y64798D01*
X-43302Y64667D01*
X-42310Y64798D01*
X-41385Y65181D01*
X-40591Y65790D01*
X-39982Y66584D01*
X-39599Y67508D01*
X-39469Y68500D01*
Y70300D01*
X-39599Y71292D01*
X-39982Y72216D01*
X-40591Y73010D01*
X-41385Y73619D01*
X-42310Y74002D01*
X-43302Y74133D01*
D02*
G37*
G36*
X26700Y182200D02*
X25000D01*
Y180750D01*
X26700D01*
Y182200D01*
D02*
G37*
G36*
X-58618Y278059D02*
X-59605D01*
Y273627D01*
X-58618D01*
Y278059D01*
D02*
G37*
G36*
X93618Y279500D02*
X90500D01*
Y276382D01*
X90954Y276441D01*
X91842Y276809D01*
X92605Y277395D01*
X93191Y278158D01*
X93559Y279046D01*
X93618Y279500D01*
D02*
G37*
G36*
X58000Y280976D02*
X54257D01*
Y277627D01*
X58000D01*
Y280976D01*
D02*
G37*
G36*
X-64482Y276839D02*
X-66673D01*
Y273335D01*
X-66477Y273361D01*
X-65828Y273630D01*
X-65270Y274057D01*
X-64842Y274615D01*
X-64573Y275264D01*
X-64482Y275961D01*
Y276839D01*
D02*
G37*
G36*
X-39327D02*
X-41518D01*
Y275961D01*
X-41427Y275264D01*
X-41158Y274615D01*
X-40730Y274057D01*
X-40172Y273630D01*
X-39523Y273361D01*
X-39327Y273335D01*
Y276839D01*
D02*
G37*
G36*
X-36135D02*
X-38327D01*
Y273335D01*
X-38130Y273361D01*
X-37481Y273630D01*
X-36924Y274057D01*
X-36496Y274615D01*
X-36227Y275264D01*
X-36135Y275961D01*
Y276839D01*
D02*
G37*
G36*
X62743Y280976D02*
X59000D01*
Y277627D01*
X62743D01*
Y280976D01*
D02*
G37*
G36*
X-38327Y281342D02*
Y277839D01*
X-36135D01*
Y278716D01*
X-36227Y279413D01*
X-36496Y280062D01*
X-36924Y280620D01*
X-37481Y281048D01*
X-38130Y281316D01*
X-38327Y281342D01*
D02*
G37*
G36*
X66000Y279300D02*
X64300D01*
Y277850D01*
X66000D01*
Y279300D01*
D02*
G37*
G36*
X68700D02*
X67000D01*
Y277850D01*
X68700D01*
Y279300D01*
D02*
G37*
G36*
X-67673Y281342D02*
X-67870Y281316D01*
X-68519Y281048D01*
X-69076Y280620D01*
X-69504Y280062D01*
X-69773Y279413D01*
X-69865Y278716D01*
Y277839D01*
X-67673D01*
Y281342D01*
D02*
G37*
G36*
X-66673D02*
Y277839D01*
X-64482D01*
Y278716D01*
X-64573Y279413D01*
X-64842Y280062D01*
X-65270Y280620D01*
X-65828Y281048D01*
X-66477Y281316D01*
X-66673Y281342D01*
D02*
G37*
G36*
X-39327D02*
X-39523Y281316D01*
X-40172Y281048D01*
X-40730Y280620D01*
X-41158Y280062D01*
X-41427Y279413D01*
X-41518Y278716D01*
Y277839D01*
X-39327D01*
Y281342D01*
D02*
G37*
G36*
X-67673Y276839D02*
X-69865D01*
Y275961D01*
X-69773Y275264D01*
X-69504Y274615D01*
X-69076Y274057D01*
X-68519Y273630D01*
X-67870Y273361D01*
X-67673Y273335D01*
Y276839D01*
D02*
G37*
G36*
X43970Y245763D02*
X42944Y244737D01*
X44146Y243535D01*
X45172Y244561D01*
X43970Y245763D01*
D02*
G37*
G36*
X-90500Y259500D02*
X-93618D01*
X-93559Y259046D01*
X-93191Y258158D01*
X-92605Y257395D01*
X-91842Y256809D01*
X-90954Y256441D01*
X-90500Y256382D01*
Y259500D01*
D02*
G37*
G36*
X-86382D02*
X-89500D01*
Y256382D01*
X-89046Y256441D01*
X-88158Y256809D01*
X-87395Y257395D01*
X-86809Y258158D01*
X-86441Y259046D01*
X-86382Y259500D01*
D02*
G37*
G36*
X-30146Y240965D02*
X-31172Y239939D01*
X-29970Y238737D01*
X-28944Y239763D01*
X-30146Y240965D01*
D02*
G37*
G36*
X-46800Y243948D02*
X-49500D01*
Y239748D01*
X-46800D01*
Y243948D01*
D02*
G37*
G36*
X42237Y244030D02*
X41212Y243005D01*
X42414Y241803D01*
X43439Y242828D01*
X42237Y244030D01*
D02*
G37*
G36*
X-90500Y263618D02*
X-90954Y263559D01*
X-91842Y263191D01*
X-92605Y262605D01*
X-93191Y261842D01*
X-93559Y260954D01*
X-93618Y260500D01*
X-90500D01*
Y263618D01*
D02*
G37*
G36*
X-65800Y269150D02*
X-70200D01*
Y268580D01*
X-71982D01*
Y268598D01*
X-72116Y268580D01*
X-74000D01*
X-74605Y268460D01*
X-75117Y268117D01*
X-75499Y267736D01*
X-75702Y267696D01*
X-76298Y267298D01*
X-76696Y266702D01*
X-76835Y266000D01*
X-76696Y265298D01*
X-76298Y264702D01*
X-75702Y264304D01*
X-75000Y264165D01*
X-74298Y264304D01*
X-73702Y264702D01*
X-73656Y264772D01*
X-72926Y265260D01*
X-72122Y265420D01*
X-70200D01*
Y265250D01*
X-65800D01*
Y269150D01*
D02*
G37*
G36*
X7647Y271465D02*
X6444Y270263D01*
X7470Y269237D01*
X8672Y270440D01*
X7647Y271465D01*
D02*
G37*
G36*
X5914Y273197D02*
X4712Y271995D01*
X5737Y270970D01*
X6939Y272172D01*
X5914Y273197D01*
D02*
G37*
G36*
X-89500Y263618D02*
Y260500D01*
X-86382D01*
X-86441Y260954D01*
X-86809Y261842D01*
X-87395Y262605D01*
X-88158Y263191D01*
X-89046Y263559D01*
X-89500Y263618D01*
D02*
G37*
G36*
X-86347Y273653D02*
X-93653D01*
Y266347D01*
X-86347D01*
Y273653D01*
D02*
G37*
G36*
X20061Y270172D02*
X19035Y269146D01*
X20237Y267944D01*
X21263Y268970D01*
X20061Y270172D01*
D02*
G37*
G36*
X-61071Y284710D02*
X-61903Y284544D01*
X-62608Y284073D01*
X-63080Y283368D01*
X-63245Y282535D01*
X-63080Y281703D01*
X-62608Y280998D01*
X-61903Y280526D01*
X-61071Y280361D01*
X-60239Y280526D01*
X-60046Y280655D01*
X-59605Y280419D01*
Y279059D01*
X-58618D01*
Y283491D01*
X-59145D01*
X-59533Y284073D01*
X-60239Y284544D01*
X-61071Y284710D01*
D02*
G37*
G36*
X15000Y295184D02*
X14046Y295059D01*
X13158Y294691D01*
X12395Y294105D01*
X11809Y293342D01*
X11441Y292454D01*
X11316Y291500D01*
X11441Y290546D01*
X11809Y289658D01*
X12395Y288895D01*
X13158Y288309D01*
X14046Y287941D01*
X15000Y287816D01*
X15954Y287941D01*
X16842Y288309D01*
X17605Y288895D01*
X18191Y289658D01*
X18559Y290546D01*
X18684Y291500D01*
X18559Y292454D01*
X18191Y293342D01*
X17605Y294105D01*
X16842Y294691D01*
X15954Y295059D01*
X15000Y295184D01*
D02*
G37*
G36*
X24500Y291000D02*
X21382D01*
X21441Y290546D01*
X21809Y289658D01*
X22395Y288895D01*
X23158Y288309D01*
X24046Y287941D01*
X24500Y287882D01*
Y291000D01*
D02*
G37*
G36*
X28618D02*
X25500D01*
Y287882D01*
X25954Y287941D01*
X26842Y288309D01*
X27605Y288895D01*
X28191Y289658D01*
X28559Y290546D01*
X28618Y291000D01*
D02*
G37*
G36*
X-15000Y295184D02*
X-15954Y295059D01*
X-16842Y294691D01*
X-17605Y294105D01*
X-18191Y293342D01*
X-18559Y292454D01*
X-18684Y291500D01*
X-18559Y290546D01*
X-18191Y289658D01*
X-17605Y288895D01*
X-16842Y288309D01*
X-15954Y287941D01*
X-15000Y287816D01*
X-14046Y287941D01*
X-13158Y288309D01*
X-12395Y288895D01*
X-11809Y289658D01*
X-11441Y290546D01*
X-11316Y291500D01*
X-11441Y292454D01*
X-11809Y293342D01*
X-12395Y294105D01*
X-13158Y294691D01*
X-14046Y295059D01*
X-15000Y295184D01*
D02*
G37*
G36*
X-5000D02*
X-5954Y295059D01*
X-6842Y294691D01*
X-7605Y294105D01*
X-8191Y293342D01*
X-8559Y292454D01*
X-8684Y291500D01*
X-8559Y290546D01*
X-8191Y289658D01*
X-7605Y288895D01*
X-6842Y288309D01*
X-5954Y287941D01*
X-5000Y287816D01*
X-4046Y287941D01*
X-3158Y288309D01*
X-2395Y288895D01*
X-1809Y289658D01*
X-1441Y290546D01*
X-1316Y291500D01*
X-1441Y292454D01*
X-1809Y293342D01*
X-2395Y294105D01*
X-3158Y294691D01*
X-4046Y295059D01*
X-5000Y295184D01*
D02*
G37*
G36*
X5000D02*
X4046Y295059D01*
X3158Y294691D01*
X2395Y294105D01*
X1809Y293342D01*
X1441Y292454D01*
X1316Y291500D01*
X1441Y290546D01*
X1809Y289658D01*
X2395Y288895D01*
X3158Y288309D01*
X4046Y287941D01*
X5000Y287816D01*
X5954Y287941D01*
X6842Y288309D01*
X7605Y288895D01*
X8191Y289658D01*
X8559Y290546D01*
X8684Y291500D01*
X8559Y292454D01*
X8191Y293342D01*
X7605Y294105D01*
X6842Y294691D01*
X5954Y295059D01*
X5000Y295184D01*
D02*
G37*
G36*
X-67673Y295004D02*
X-67870Y294978D01*
X-68519Y294709D01*
X-69076Y294281D01*
X-69504Y293724D01*
X-69773Y293075D01*
X-69865Y292378D01*
Y291500D01*
X-67673D01*
Y295004D01*
D02*
G37*
G36*
X24500Y295118D02*
X24046Y295059D01*
X23158Y294691D01*
X22395Y294105D01*
X21809Y293342D01*
X21441Y292454D01*
X21382Y292000D01*
X24500D01*
Y295118D01*
D02*
G37*
G36*
X25500D02*
Y292000D01*
X28618D01*
X28559Y292454D01*
X28191Y293342D01*
X27605Y294105D01*
X26842Y294691D01*
X25954Y295059D01*
X25500Y295118D01*
D02*
G37*
G36*
X67000Y297468D02*
X66165Y297358D01*
X65386Y297035D01*
X64751Y296548D01*
X64716Y296524D01*
X64718Y296522D01*
X64673Y296464D01*
X63946Y295978D01*
X63153Y295820D01*
X63149D01*
X63017Y295838D01*
D01*
X63017D01*
X62743Y296111D01*
Y296350D01*
X54257D01*
Y295820D01*
X52734D01*
X52622Y295831D01*
Y295820D01*
X51896D01*
Y296023D01*
X45378D01*
Y292458D01*
X50607D01*
X52182Y291980D01*
X53783Y291124D01*
X54257Y290735D01*
Y288650D01*
X62743D01*
Y290983D01*
X63509Y291612D01*
X64338Y292055D01*
X64767Y291797D01*
Y289419D01*
X64766Y289412D01*
X64767D01*
Y288150D01*
X64300D01*
Y284250D01*
X68700D01*
Y288150D01*
X68233D01*
Y289519D01*
X68342Y290346D01*
X68703Y291216D01*
X69255Y291937D01*
X69284Y291956D01*
X69286Y291954D01*
X69329Y292018D01*
X70053Y292502D01*
X70847Y292660D01*
X70851D01*
X70983Y292642D01*
Y292660D01*
X76605D01*
X83320Y285945D01*
Y226933D01*
X66718D01*
X62151Y231500D01*
X63001Y232350D01*
X64700D01*
Y236250D01*
X60300D01*
Y234551D01*
X58982Y233233D01*
X37500D01*
X36837Y233101D01*
X36274Y232726D01*
X32916Y229367D01*
X32586Y229697D01*
X31291Y228402D01*
X31190Y228335D01*
X31188Y228338D01*
X30803Y228080D01*
X30349Y227990D01*
Y227986D01*
X27893D01*
Y228011D01*
X27638Y227986D01*
X25479D01*
Y228000D01*
X25343Y227986D01*
X23065D01*
Y228008D01*
X22901Y227986D01*
X20651D01*
Y227987D01*
X20645Y227986D01*
X19686D01*
X17494Y230178D01*
X17068Y230463D01*
X17494Y230822D01*
Y230822D01*
X17495D01*
X17495Y230822D01*
X17495Y230822D01*
X17495Y230822D01*
X22505Y235833D01*
X22791Y236260D01*
X22891Y236764D01*
X22791Y237267D01*
X22505Y237694D01*
X22079Y237979D01*
X22048Y238080D01*
X22366Y238466D01*
X22537Y238449D01*
X22702Y238202D01*
X23298Y237804D01*
X24000Y237665D01*
X24702Y237804D01*
X25298Y238202D01*
X25696Y238798D01*
X25835Y239500D01*
X25696Y240202D01*
X25298Y240798D01*
X24702Y241196D01*
X25298Y241702D01*
D01*
D01*
X25298Y241702D01*
X25298Y241702D01*
X25298Y241702D01*
X25298Y241702D01*
D01*
X25696Y242298D01*
X25835Y243000D01*
X25696Y243702D01*
X25298Y244298D01*
X24702Y244696D01*
X25202Y244804D01*
X25202D01*
X25798Y245202D01*
X26196Y245798D01*
X26335Y246500D01*
X26196Y247202D01*
X25798Y247798D01*
X25202Y248196D01*
X24500Y248335D01*
X24192Y248274D01*
X23930Y248700D01*
X24077Y248887D01*
X25260Y250071D01*
X29775D01*
X31394Y249911D01*
X33087Y249397D01*
X34648Y248563D01*
X36006Y247449D01*
X36007Y247430D01*
Y247430D01*
X36094Y247372D01*
X38604Y244862D01*
X38980Y245237D01*
X39303Y244914D01*
X39303D01*
X40505Y243712D01*
X41883Y245090D01*
D01*
X41884Y245091D01*
X41884Y245092D01*
D01*
X43263Y246470D01*
X42061Y247672D01*
X42061Y247672D01*
X41987Y247745D01*
Y248245D01*
X43341Y249599D01*
X43429Y249657D01*
X43430Y249656D01*
X43539Y249728D01*
X43828Y249440D01*
Y249440D01*
X46940Y246328D01*
X49697Y249086D01*
X46586Y252197D01*
X46320Y251931D01*
X45997Y252255D01*
X45997Y252255D01*
X45997Y252255D01*
X40831Y257420D01*
X36094Y252683D01*
X36007Y252625D01*
X36005Y252627D01*
X35548Y252321D01*
X35009Y252214D01*
Y252212D01*
X34791D01*
X34702Y252220D01*
Y252212D01*
X33184D01*
X33012Y252229D01*
Y252212D01*
X31577D01*
X31322Y252237D01*
Y252212D01*
X29808D01*
X29632Y252225D01*
Y252212D01*
X25271D01*
X25080Y252674D01*
X26020Y253614D01*
X26020Y253614D01*
X26252Y253961D01*
X26333Y254371D01*
Y256719D01*
X26351D01*
X26333Y256897D01*
Y257582D01*
X26482Y258711D01*
X26948Y259837D01*
X27684Y260796D01*
X27698Y260797D01*
X27698D01*
X27757Y260884D01*
X32772Y265899D01*
X27606Y271065D01*
X27606D01*
Y271065D01*
Y271495D01*
X27697Y271586D01*
X24586Y274697D01*
X21828Y271939D01*
X23487Y270280D01*
X23546Y270193D01*
X23546Y270193D01*
X23563Y270191D01*
Y270191D01*
X24036Y269482D01*
X24192Y268699D01*
Y267652D01*
X23386Y266846D01*
X23172Y267060D01*
X23172Y267060D01*
X23172Y267060D01*
X21970Y268263D01*
X20592Y266884D01*
D01*
X20591Y266884D01*
X20590Y266883D01*
D01*
X19212Y265505D01*
X20414Y264303D01*
X20414Y264303D01*
Y264303D01*
Y263873D01*
X19935Y263394D01*
X22444Y260884D01*
X22503Y260797D01*
X22503Y260797D01*
X22529Y260795D01*
Y260795D01*
X23437Y259612D01*
X24015Y258217D01*
X24192Y256871D01*
Y254814D01*
X18432Y249055D01*
X17971Y249246D01*
Y266093D01*
X18432Y266284D01*
X18505Y266212D01*
X19530Y267237D01*
X18328Y268440D01*
X18432Y268544D01*
X17971Y268735D01*
Y271957D01*
X21443Y275429D01*
X40556D01*
X54929Y261057D01*
Y242192D01*
X54554Y241862D01*
X54196Y241910D01*
X53200Y242322D01*
Y243948D01*
X46800D01*
Y234548D01*
X53200D01*
Y239147D01*
X54049Y239499D01*
X55041Y239629D01*
X55201D01*
X55307Y239619D01*
Y239629D01*
X60077D01*
Y239622D01*
Y239621D01*
X60300Y239577D01*
Y238750D01*
X64700D01*
Y239577D01*
X64923Y239621D01*
Y239622D01*
Y239629D01*
X66077D01*
Y239622D01*
Y239621D01*
X66300Y239577D01*
Y238750D01*
X70700D01*
Y240597D01*
X70721Y240700D01*
X70721D01*
X70718Y240703D01*
X70847Y241354D01*
X71208Y241894D01*
X72642Y243328D01*
X73202Y243702D01*
X73798Y243304D01*
X74500Y243165D01*
X75202Y243304D01*
X75798Y243702D01*
X76196Y244298D01*
X76335Y245000D01*
X76196Y245702D01*
X75798Y246298D01*
X75202Y246696D01*
X74500Y246835D01*
X73798Y246696D01*
X73202Y246298D01*
X73156Y246228D01*
X73155Y246228D01*
X73155D01*
X72803Y246072D01*
X72800Y246072D01*
Y246071D01*
D01*
X72800Y246071D01*
X72800Y246071D01*
X72800D01*
X72390Y245989D01*
X72043Y245757D01*
X69706Y243420D01*
X69706Y243420D01*
X69697Y243429D01*
X69639Y243353D01*
X69087Y242801D01*
X68758Y242665D01*
X68750Y242671D01*
Y242671D01*
X68647Y242650D01*
X66300D01*
Y241823D01*
X66077Y241779D01*
Y241771D01*
X64923D01*
Y241778D01*
Y241779D01*
X64700Y241823D01*
Y242650D01*
X60300D01*
Y241823D01*
X60077Y241779D01*
Y241771D01*
X57071D01*
Y261500D01*
X56989Y261910D01*
X56757Y262257D01*
X56757Y262257D01*
X41757Y277257D01*
X41410Y277489D01*
X41000Y277571D01*
X41229Y277800D01*
X42250D01*
Y279500D01*
X38350D01*
Y277924D01*
X38350Y277924D01*
X38350D01*
X38350Y277800D01*
X38121Y277571D01*
X21000D01*
X21000Y277571D01*
X20590Y277489D01*
X20243Y277257D01*
X20243Y277257D01*
X16143Y273157D01*
X15911Y272810D01*
X15829Y272400D01*
Y249235D01*
X13475Y246881D01*
X13047Y247011D01*
X13045Y247014D01*
X9680Y243649D01*
D01*
X9680Y243648D01*
X9679Y243648D01*
D01*
X6314Y240283D01*
X6317Y240281D01*
X6820Y240180D01*
D01*
X6897Y240104D01*
X6997Y239601D01*
X7282Y239174D01*
X7709Y238889D01*
X8212Y238789D01*
X8289Y238712D01*
X8389Y238209D01*
X8674Y237782D01*
X9101Y237497D01*
X9604Y237397D01*
X9680Y237320D01*
X9781Y236817D01*
X10066Y236390D01*
X10493Y236105D01*
X10996Y236005D01*
X11073Y235929D01*
D01*
X11173Y235425D01*
X11458Y234998D01*
X11885Y234713D01*
X12388Y234613D01*
X12464Y234537D01*
X12564Y234033D01*
X12850Y233606D01*
X13277Y233321D01*
X13780Y233221D01*
X13856Y233145D01*
X13957Y232641D01*
X14242Y232214D01*
X14669Y231929D01*
X14798Y231501D01*
X13864Y230566D01*
X683D01*
Y236629D01*
X5177Y241123D01*
X5605Y240993D01*
X5607Y240990D01*
X8972Y244355D01*
D01*
X8973Y244355D01*
X8973Y244356D01*
D01*
X12338Y247721D01*
X12335Y247723D01*
X12205Y248151D01*
X14857Y250803D01*
X15089Y251150D01*
X15171Y251560D01*
Y258870D01*
X15178D01*
X15171Y258946D01*
Y260560D01*
X15186D01*
X15171Y260674D01*
Y261900D01*
X15171Y261900D01*
X15089Y262310D01*
X15008Y262432D01*
X15073Y262762D01*
X14933Y263464D01*
X14536Y264060D01*
X13940Y264458D01*
X13238Y264597D01*
Y264598D01*
X12961Y264653D01*
X12726Y264810D01*
X12721Y264805D01*
X12562Y264964D01*
X12562Y264964D01*
X12562D01*
X12436Y265153D01*
X13197Y265914D01*
X10440Y268672D01*
X7641Y265873D01*
X7141D01*
X5623Y267391D01*
X6763Y268530D01*
X5384Y269908D01*
D01*
X5384Y269909D01*
X5383Y269910D01*
D01*
X4005Y271288D01*
X2803Y270086D01*
X2803Y270086D01*
X2803D01*
X2766Y270018D01*
X2500Y270071D01*
X-42359D01*
X-42359Y270071D01*
X-42769Y269989D01*
X-43116Y269757D01*
X-56324Y256549D01*
X-56803Y256694D01*
X-56804Y256702D01*
X-57196Y257288D01*
X-56793Y258259D01*
X-56340Y258850D01*
X-54800D01*
Y262750D01*
X-59200D01*
Y260695D01*
X-59449Y260093D01*
X-59520Y259553D01*
X-59571Y259300D01*
Y259171D01*
X-59584Y259070D01*
X-59571D01*
Y257811D01*
X-59586D01*
X-59641Y257533D01*
X-59798Y257298D01*
X-59798Y257298D01*
X-60000Y256995D01*
X-60500D01*
X-60702Y257298D01*
X-60772Y257344D01*
X-61260Y258074D01*
X-61395Y258756D01*
X-61377Y258850D01*
X-60300D01*
Y262750D01*
X-64700D01*
Y261923D01*
X-64923Y261879D01*
Y261878D01*
Y261871D01*
X-65577D01*
Y261878D01*
Y261879D01*
X-65800Y261923D01*
Y262750D01*
X-70200D01*
Y258850D01*
X-65800D01*
Y259677D01*
X-65577Y259721D01*
Y259722D01*
Y259729D01*
X-64923D01*
Y259722D01*
Y259721D01*
X-64700Y259677D01*
Y258850D01*
X-63623D01*
X-63579Y258627D01*
X-63571D01*
Y257328D01*
X-63575D01*
X-63571Y257295D01*
Y256889D01*
X-63696Y256702D01*
X-63835Y256000D01*
X-63696Y255298D01*
X-63298Y254702D01*
X-62702Y254304D01*
X-62000Y254165D01*
X-61298Y254304D01*
X-60702Y254702D01*
X-60500Y255005D01*
X-60000D01*
X-59798Y254702D01*
X-59202Y254304D01*
X-59194Y254303D01*
X-59049Y253824D01*
X-61803Y251071D01*
X-83716D01*
Y251085D01*
X-83848Y251073D01*
X-85070Y251233D01*
X-86331Y251756D01*
X-87334Y252525D01*
X-87395Y252605D01*
X-88158Y253191D01*
X-89046Y253559D01*
X-90000Y253684D01*
X-90954Y253559D01*
X-91842Y253191D01*
X-92605Y252605D01*
X-93191Y251842D01*
X-93559Y250954D01*
X-93684Y250000D01*
X-93559Y249046D01*
X-93191Y248158D01*
X-92605Y247395D01*
X-91842Y246809D01*
X-90954Y246441D01*
X-90000Y246316D01*
X-89046Y246441D01*
X-88158Y246809D01*
X-87395Y247395D01*
X-87334Y247475D01*
X-86331Y248244D01*
X-85070Y248767D01*
X-83848Y248927D01*
X-83716Y248915D01*
Y248929D01*
X-62617D01*
X-62426Y248467D01*
X-69823Y241071D01*
X-83716D01*
Y241086D01*
X-83848Y241073D01*
X-85070Y241233D01*
X-86331Y241756D01*
X-87334Y242525D01*
X-87395Y242605D01*
X-88158Y243191D01*
X-89046Y243559D01*
X-90000Y243684D01*
X-90954Y243559D01*
X-91842Y243191D01*
X-92605Y242605D01*
X-93191Y241842D01*
X-93559Y240954D01*
X-93684Y240000D01*
X-93559Y239046D01*
X-93191Y238158D01*
X-92605Y237395D01*
X-91842Y236809D01*
X-90954Y236441D01*
X-90000Y236316D01*
X-89046Y236441D01*
X-88158Y236809D01*
X-87395Y237395D01*
X-87334Y237475D01*
X-86331Y238244D01*
X-85070Y238767D01*
X-83848Y238927D01*
X-83716Y238914D01*
Y238929D01*
X-70637D01*
X-70446Y238468D01*
X-77843Y231071D01*
X-83716D01*
Y231085D01*
X-83848Y231073D01*
X-85070Y231233D01*
X-86331Y231756D01*
X-87334Y232525D01*
X-87395Y232605D01*
X-88158Y233191D01*
X-89046Y233559D01*
X-90000Y233684D01*
X-90954Y233559D01*
X-91842Y233191D01*
X-92605Y232605D01*
X-93191Y231842D01*
X-93559Y230954D01*
X-93684Y230000D01*
X-93559Y229046D01*
X-93191Y228158D01*
X-92605Y227395D01*
X-91842Y226809D01*
X-90954Y226441D01*
X-90000Y226316D01*
X-89046Y226441D01*
X-88158Y226809D01*
X-87395Y227395D01*
X-87334Y227475D01*
X-86331Y228244D01*
X-85070Y228767D01*
X-83848Y228927D01*
X-83716Y228914D01*
Y228929D01*
X-78657D01*
X-78466Y228467D01*
X-85791Y221142D01*
X-86055Y221195D01*
X-86594Y221554D01*
X-86821Y221894D01*
X-86840Y221883D01*
X-87395Y222605D01*
X-88158Y223191D01*
X-89046Y223559D01*
X-90000Y223684D01*
X-90954Y223559D01*
X-91842Y223191D01*
X-92605Y222605D01*
X-93191Y221842D01*
X-93559Y220954D01*
X-93684Y220000D01*
X-93559Y219046D01*
X-93191Y218158D01*
X-92605Y217395D01*
X-91842Y216809D01*
X-90954Y216441D01*
X-90000Y216316D01*
X-89046Y216441D01*
X-88158Y216809D01*
X-87395Y217395D01*
X-86840Y218117D01*
X-86821Y218106D01*
X-86594Y218445D01*
X-86055Y218806D01*
X-85464Y218923D01*
X-85420Y218917D01*
Y218929D01*
X-85420D01*
X-85010Y219011D01*
X-84662Y219243D01*
X-80233Y223673D01*
X-79771Y223482D01*
Y216263D01*
X-84911Y211122D01*
X-85399Y211187D01*
X-86218Y211526D01*
X-86922Y212066D01*
X-87131Y212339D01*
X-87131D01*
X-87190Y212348D01*
X-87226Y212402D01*
X-87252Y212419D01*
X-87395Y212605D01*
X-88158Y213191D01*
X-89046Y213559D01*
X-90000Y213684D01*
X-90954Y213559D01*
X-91842Y213191D01*
X-92605Y212605D01*
X-93191Y211842D01*
X-93559Y210954D01*
X-93684Y210000D01*
X-93559Y209046D01*
X-93191Y208158D01*
X-92605Y207395D01*
X-91842Y206809D01*
X-90954Y206441D01*
X-90000Y206316D01*
X-89046Y206441D01*
X-88158Y206809D01*
X-87395Y207395D01*
X-87252Y207581D01*
X-87226Y207598D01*
X-87190Y207652D01*
X-87131Y207661D01*
X-87131D01*
X-86922Y207934D01*
X-86218Y208474D01*
X-85399Y208813D01*
X-84621Y208916D01*
X-84520Y208902D01*
Y208929D01*
X-84520D01*
X-84110Y209011D01*
X-83763Y209243D01*
X-81533Y211473D01*
X-81071Y211282D01*
Y210443D01*
X-86314Y205200D01*
X-86314Y205200D01*
X-86324Y205211D01*
X-86408Y205109D01*
X-87386Y204359D01*
X-88647Y203836D01*
X-89900Y203671D01*
X-90000Y203684D01*
X-90954Y203559D01*
X-91842Y203191D01*
X-92605Y202605D01*
X-93191Y201842D01*
X-93559Y200954D01*
X-93684Y200000D01*
X-93559Y199046D01*
X-93191Y198158D01*
X-92605Y197395D01*
X-91842Y196809D01*
X-90954Y196441D01*
X-90000Y196316D01*
X-89046Y196441D01*
X-88158Y196809D01*
X-87395Y197395D01*
X-86809Y198158D01*
X-86441Y199046D01*
X-86316Y200000D01*
X-86329Y200100D01*
X-86164Y201353D01*
X-85641Y202614D01*
X-84891Y203592D01*
X-84789Y203676D01*
X-84800Y203686D01*
X-84800Y203686D01*
X-79243Y209243D01*
X-79243Y209243D01*
X-79011Y209590D01*
X-79011Y209590D01*
X-79011Y209590D01*
X-78929Y210000D01*
X-78929Y210000D01*
Y212096D01*
X-78532Y212493D01*
X-78071Y212302D01*
Y203443D01*
X-86314Y195200D01*
X-86314Y195200D01*
X-86324Y195211D01*
X-86408Y195109D01*
X-87386Y194359D01*
X-88647Y193836D01*
X-89900Y193671D01*
X-90000Y193684D01*
X-90954Y193559D01*
X-91842Y193191D01*
X-92605Y192605D01*
X-93191Y191842D01*
X-93559Y190954D01*
X-93684Y190000D01*
X-93559Y189046D01*
X-93191Y188158D01*
X-92605Y187395D01*
X-91842Y186809D01*
X-90954Y186441D01*
X-90000Y186316D01*
X-89046Y186441D01*
X-88158Y186809D01*
X-87395Y187395D01*
X-86809Y188158D01*
X-86441Y189046D01*
X-86316Y190000D01*
X-86329Y190100D01*
X-86164Y191353D01*
X-85641Y192614D01*
X-84891Y193592D01*
X-84789Y193676D01*
X-84800Y193686D01*
X-84800Y193686D01*
X-76243Y202243D01*
X-76243Y202243D01*
X-76049Y202533D01*
X-75571Y202388D01*
Y195943D01*
X-86314Y185200D01*
X-86324Y185211D01*
X-86408Y185109D01*
X-87386Y184359D01*
X-88647Y183836D01*
X-89900Y183671D01*
X-90000Y183684D01*
X-90954Y183559D01*
X-91842Y183191D01*
X-92605Y182605D01*
X-93191Y181842D01*
X-93559Y180954D01*
X-93684Y180000D01*
X-93559Y179046D01*
X-93191Y178158D01*
X-92605Y177395D01*
X-91842Y176809D01*
X-90954Y176441D01*
X-90000Y176316D01*
X-89046Y176441D01*
X-88158Y176809D01*
X-87395Y177395D01*
X-86809Y178158D01*
X-86441Y179046D01*
X-86316Y180000D01*
X-86329Y180100D01*
X-86164Y181353D01*
X-85641Y182614D01*
X-84891Y183592D01*
X-84789Y183676D01*
X-84800Y183686D01*
X-73743Y194743D01*
X-73511Y195090D01*
X-73429Y195500D01*
X-73429Y195500D01*
X-73429Y195500D01*
Y195500D01*
Y222557D01*
X-53662Y242324D01*
X-53200Y242133D01*
Y239748D01*
X-50500D01*
Y243948D01*
X-51385D01*
X-51576Y244410D01*
X-37857Y258129D01*
X-27606D01*
X-27371Y257688D01*
X-27696Y257202D01*
X-27835Y256500D01*
X-27696Y255798D01*
X-27298Y255202D01*
X-27626Y254711D01*
X-27702Y254696D01*
X-28298Y254298D01*
X-28696Y253702D01*
X-28835Y253000D01*
X-28696Y252298D01*
X-28298Y251702D01*
X-27702Y251304D01*
X-27429Y251250D01*
Y250750D01*
X-27702Y250696D01*
X-28298Y250298D01*
X-28696Y249702D01*
X-28835Y249000D01*
X-28696Y248298D01*
X-28298Y247702D01*
X-28068Y247549D01*
X-28214Y247071D01*
X-33689D01*
Y247075D01*
Y247086D01*
X-33967Y247141D01*
X-34202Y247298D01*
X-34202Y247298D01*
X-34798Y247696D01*
X-35500Y247835D01*
X-36202Y247696D01*
X-36798Y247298D01*
X-37196Y246702D01*
X-37335Y246000D01*
X-37196Y245298D01*
X-36798Y244702D01*
X-36689Y244630D01*
X-36689Y244486D01*
X-37130Y244251D01*
X-37202Y244298D01*
X-37202Y244298D01*
X-37798Y244696D01*
X-38500Y244835D01*
X-39202Y244696D01*
X-39798Y244298D01*
X-40196Y243702D01*
X-40335Y243000D01*
X-40196Y242298D01*
X-39798Y241702D01*
X-39202Y241304D01*
X-38500Y241165D01*
X-37798Y241304D01*
X-37202Y241702D01*
X-37202Y241702D01*
X-37202Y241702D01*
X-36967Y241859D01*
X-36689Y241914D01*
Y241925D01*
Y241929D01*
X-29835D01*
X-29644Y241468D01*
X-29439Y241672D01*
X-28237Y240470D01*
X-27212Y241495D01*
X-27184Y241468D01*
X-26993Y241929D01*
X-22687D01*
X-20557Y239799D01*
X-20687Y239371D01*
X-20690Y239369D01*
X-17325Y236004D01*
D01*
X-17324Y236004D01*
X-17323Y236003D01*
D01*
X-13959Y232638D01*
X-13957Y232641D01*
X-13856Y233145D01*
X-13780Y233221D01*
X-13277Y233321D01*
X-12850Y233606D01*
X-12565Y234033D01*
X-12464Y234537D01*
X-12388Y234613D01*
X-11885Y234713D01*
X-11458Y234998D01*
X-11173Y235425D01*
X-11073Y235929D01*
X-10996Y236005D01*
X-10493Y236105D01*
X-10066Y236390D01*
X-9781Y236817D01*
X-9680Y237320D01*
D01*
X-9604Y237397D01*
X-9101Y237497D01*
X-8674Y237782D01*
X-8389Y238209D01*
X-8289Y238712D01*
X-8212Y238789D01*
X-7709Y238889D01*
X-7282Y239174D01*
X-6997Y239601D01*
X-6897Y240104D01*
X-6820Y240180D01*
X-6317Y240281D01*
X-5890Y240566D01*
X-5605Y240993D01*
X-5505Y241496D01*
X-5429Y241572D01*
D01*
X-4925Y241673D01*
X-4498Y241958D01*
X-4213Y242385D01*
X-4113Y242888D01*
X-4037Y242964D01*
X-3533Y243065D01*
X-3106Y243350D01*
X-2821Y243777D01*
X-2721Y244280D01*
X-2645Y244356D01*
X-2141Y244457D01*
X-1714Y244742D01*
X-1429Y245169D01*
X-1329Y245672D01*
X-1253Y245748D01*
X-749Y245848D01*
X-322Y246134D01*
X-250Y246242D01*
X250D01*
X322Y246134D01*
X749Y245848D01*
X1253Y245748D01*
X1329Y245672D01*
X1429Y245169D01*
X1714Y244742D01*
X2141Y244457D01*
X2645Y244356D01*
X2721Y244280D01*
X2821Y243777D01*
X3106Y243350D01*
X3533Y243065D01*
X3663Y242637D01*
X-1145Y237829D01*
X-1377Y237482D01*
X-1458Y237072D01*
Y230566D01*
X-13864D01*
X-14798Y231501D01*
X-14669Y231929D01*
X-14666Y231931D01*
X-18031Y235296D01*
D01*
X-18031Y235297D01*
X-18032Y235297D01*
D01*
X-21397Y238662D01*
X-21399Y238659D01*
X-21499Y238156D01*
Y238156D01*
X-21811Y238071D01*
X-22590D01*
X-22726Y238098D01*
Y238071D01*
X-24500D01*
X-24910Y237989D01*
X-25257Y237757D01*
X-25257Y237757D01*
X-28943Y234071D01*
X-30082D01*
X-30292Y234281D01*
X-30292Y234281D01*
X-30287Y234287D01*
X-30413Y234476D01*
X-29828Y235061D01*
X-32939Y238172D01*
X-35697Y235414D01*
X-32586Y232303D01*
X-32001Y232887D01*
X-31813Y232761D01*
X-31812Y232762D01*
X-31807Y232767D01*
X-31806Y232767D01*
X-31282Y232243D01*
X-31282Y232243D01*
X-30935Y232011D01*
X-30935Y232011D01*
X-30935Y232011D01*
D01*
X-30935Y232011D01*
X-30935Y232011D01*
X-30525Y231929D01*
X-28500D01*
X-28090Y232011D01*
X-27743Y232243D01*
X-24057Y235929D01*
X-22726D01*
Y235924D01*
X-22726Y235924D01*
X-22726Y235924D01*
X-22726Y235924D01*
X-22506Y235833D01*
X-22506Y235833D01*
X-22505D01*
X-17494Y230822D01*
X-17386Y230750D01*
Y230250D01*
X-17494Y230178D01*
X-22505Y225167D01*
X-22506D01*
X-22506Y225167D01*
X-22616Y225122D01*
X-22726Y225076D01*
X-22726Y225076D01*
X-22738Y225071D01*
X-24822D01*
X-25852Y225206D01*
X-26855Y225622D01*
X-27667Y226244D01*
X-27702Y226298D01*
X-28298Y226696D01*
X-29000Y226835D01*
X-29702Y226696D01*
X-30298Y226298D01*
X-30696Y225702D01*
X-30835Y225000D01*
X-30758Y224611D01*
X-31111Y224258D01*
X-31500Y224335D01*
X-32202Y224196D01*
X-32798Y223798D01*
X-33196Y223202D01*
X-33335Y222500D01*
X-33322Y222433D01*
X-33738Y222155D01*
X-33798Y222196D01*
X-34500Y222335D01*
X-35202Y222196D01*
X-35798Y221798D01*
X-36196Y221202D01*
X-36335Y220500D01*
X-36196Y219798D01*
X-35798Y219202D01*
X-35568Y219049D01*
X-35652Y218773D01*
X-36137Y218651D01*
X-36463Y218977D01*
X-36460Y218980D01*
X-36452Y218988D01*
X-36609Y219223D01*
X-36664Y219500D01*
X-36665D01*
X-36804Y220202D01*
X-37202Y220798D01*
X-37798Y221196D01*
X-38500Y221335D01*
X-39202Y221196D01*
X-39798Y220798D01*
X-40196Y220202D01*
X-40335Y219500D01*
X-40196Y218798D01*
X-39798Y218202D01*
X-39202Y217804D01*
X-38500Y217665D01*
Y217664D01*
X-38223Y217609D01*
X-37988Y217452D01*
X-37980Y217460D01*
X-37977Y217463D01*
X-37257Y216743D01*
X-36910Y216511D01*
X-36500Y216429D01*
X-36500Y216429D01*
X-20414D01*
X-20222Y215967D01*
X-23619Y212571D01*
X-34500D01*
X-34500Y212571D01*
X-34910Y212489D01*
X-35257Y212257D01*
X-35257Y212257D01*
X-38691Y208822D01*
X-44809D01*
Y208832D01*
X-44877Y208825D01*
X-45877Y208957D01*
X-46800Y209339D01*
Y212452D01*
X-48665D01*
X-48805Y212662D01*
X-48858Y212928D01*
X-39706Y222080D01*
X-39706D01*
X-39697Y222071D01*
X-39697Y222071D01*
X-39639Y222147D01*
X-39103Y222683D01*
X-39103Y222683D01*
D01*
X-39087Y222699D01*
X-38759Y222835D01*
X-38750Y222829D01*
Y222829D01*
X-38647Y222850D01*
X-36300D01*
Y226750D01*
X-40700D01*
Y224903D01*
X-40721Y224800D01*
X-40721D01*
X-40718Y224797D01*
X-40847Y224146D01*
X-41208Y223606D01*
X-50757Y214057D01*
X-50989Y213710D01*
X-51071Y213300D01*
Y213300D01*
X-51083D01*
X-51077Y213255D01*
X-51195Y212662D01*
X-51335Y212452D01*
X-53200D01*
Y210867D01*
X-53973Y210547D01*
X-54909Y210423D01*
X-55350D01*
Y210700D01*
X-59250D01*
Y206300D01*
X-55350D01*
Y207742D01*
X-55221Y207828D01*
X-54558Y207960D01*
X-53815Y207862D01*
X-53200Y207608D01*
Y203052D01*
X-46800D01*
Y206165D01*
X-45877Y206547D01*
X-44877Y206678D01*
X-44809Y206672D01*
Y206681D01*
X-41486D01*
X-41295Y206220D01*
X-41546Y205968D01*
X-76443Y171071D01*
X-83716D01*
Y171086D01*
X-83848Y171073D01*
X-85070Y171233D01*
X-86331Y171756D01*
X-87334Y172525D01*
X-87395Y172605D01*
X-88158Y173191D01*
X-89046Y173559D01*
X-90000Y173684D01*
X-90954Y173559D01*
X-91842Y173191D01*
X-92605Y172605D01*
X-93191Y171842D01*
X-93559Y170954D01*
X-93684Y170000D01*
X-93559Y169046D01*
X-93191Y168158D01*
X-92605Y167395D01*
X-91842Y166809D01*
X-90954Y166441D01*
X-90000Y166316D01*
X-89046Y166441D01*
X-88158Y166809D01*
X-87395Y167395D01*
X-87334Y167475D01*
X-86331Y168244D01*
X-85070Y168767D01*
X-83848Y168927D01*
X-83716Y168914D01*
Y168929D01*
X-76000D01*
X-75590Y169011D01*
X-75243Y169243D01*
X-75243Y169243D01*
X-75243Y169243D01*
X-40032Y204454D01*
X-40032Y204454D01*
X-40032Y204454D01*
X-37673Y206813D01*
X-37400Y206995D01*
X-37218Y207268D01*
X-34057Y210429D01*
X-32738D01*
X-32546Y209967D01*
X-48286Y194228D01*
D01*
X-48289Y194231D01*
X-48297Y194239D01*
X-48532Y194082D01*
X-48809Y194027D01*
Y194026D01*
X-49511Y193886D01*
X-50107Y193489D01*
X-50505Y192893D01*
X-50644Y192191D01*
X-50645D01*
X-50700Y191914D01*
X-50857Y191679D01*
X-50857D01*
X-50857Y191679D01*
Y191679D01*
X-50846Y191668D01*
X-50846Y191668D01*
X-81443Y161071D01*
X-83716D01*
Y161085D01*
X-83848Y161073D01*
X-85070Y161233D01*
X-86331Y161756D01*
X-87334Y162525D01*
X-87395Y162605D01*
X-88158Y163191D01*
X-89046Y163559D01*
X-90000Y163684D01*
X-90954Y163559D01*
X-91842Y163191D01*
X-92605Y162605D01*
X-93191Y161842D01*
X-93559Y160954D01*
X-93684Y160000D01*
X-93559Y159046D01*
X-93191Y158158D01*
X-92605Y157395D01*
X-91842Y156809D01*
X-90954Y156441D01*
X-90000Y156316D01*
X-89046Y156441D01*
X-88158Y156809D01*
X-87395Y157395D01*
X-87334Y157475D01*
X-86331Y158244D01*
X-85070Y158767D01*
X-83848Y158927D01*
X-83716Y158914D01*
Y158929D01*
X-81000D01*
X-80590Y159011D01*
X-80243Y159243D01*
X-80243Y159243D01*
X-80243Y159243D01*
X-49332Y190154D01*
D01*
D01*
D01*
X-49321Y190143D01*
X-49321D01*
X-49321Y190143D01*
Y190143D01*
X-49086Y190300D01*
X-48809Y190355D01*
Y190356D01*
X-48107Y190495D01*
X-47511Y190893D01*
X-47113Y191489D01*
X-46974Y192191D01*
X-46973D01*
X-46918Y192468D01*
X-46761Y192703D01*
X-46772Y192714D01*
D01*
X-30457Y209029D01*
X-29138D01*
X-28947Y208568D01*
X-50697Y186817D01*
D01*
X-50700Y186820D01*
X-50708Y186828D01*
X-50943Y186671D01*
X-51221Y186615D01*
Y186615D01*
X-51923Y186475D01*
X-52518Y186077D01*
X-52916Y185482D01*
X-53056Y184779D01*
X-53057D01*
X-53112Y184502D01*
X-53269Y184267D01*
X-53261Y184259D01*
X-53258Y184256D01*
X-86103Y151411D01*
X-86600Y151460D01*
X-86624Y151496D01*
X-86646Y151486D01*
X-86688Y151548D01*
X-86809Y151842D01*
X-87395Y152605D01*
X-88158Y153191D01*
X-89046Y153559D01*
X-90000Y153684D01*
X-90954Y153559D01*
X-91842Y153191D01*
X-92605Y152605D01*
X-93191Y151842D01*
X-93559Y150954D01*
X-93684Y150000D01*
X-93559Y149046D01*
X-93191Y148158D01*
X-92605Y147395D01*
X-91842Y146809D01*
X-90954Y146441D01*
X-90000Y146316D01*
X-89046Y146441D01*
X-88158Y146809D01*
X-87395Y147395D01*
X-86809Y148158D01*
X-86688Y148452D01*
X-86646Y148514D01*
X-86624Y148504D01*
X-86485Y148713D01*
X-86262Y148861D01*
X-86000Y148913D01*
Y148926D01*
Y148929D01*
X-86000D01*
X-85590Y149011D01*
X-85243Y149243D01*
X-51744Y182742D01*
X-51741Y182739D01*
X-51733Y182731D01*
X-51498Y182888D01*
X-51221Y182943D01*
Y182944D01*
X-50518Y183084D01*
X-49923Y183482D01*
X-49525Y184077D01*
X-49385Y184779D01*
X-49385D01*
X-49329Y185057D01*
X-49172Y185292D01*
X-49183Y185303D01*
D01*
X-26857Y207629D01*
X-25538D01*
X-25346Y207168D01*
X-58059Y174455D01*
X-58065D01*
X-58073Y174463D01*
X-58308Y174306D01*
X-58585Y174251D01*
Y174250D01*
X-59287Y174111D01*
X-59883Y173713D01*
X-60281Y173117D01*
X-60420Y172415D01*
X-60421D01*
X-60476Y172138D01*
X-60633Y171903D01*
X-60625Y171895D01*
X-60622Y171892D01*
X-85607Y146907D01*
X-85625Y146926D01*
X-85798Y146716D01*
X-86802Y145712D01*
X-86802Y145712D01*
X-86815Y145725D01*
X-86934Y145580D01*
X-87997Y144517D01*
X-88004Y144525D01*
X-88029Y144493D01*
X-88603Y144053D01*
X-89277Y143774D01*
X-89979Y143682D01*
X-90000Y143684D01*
X-90954Y143559D01*
X-91842Y143191D01*
X-92605Y142605D01*
X-93191Y141842D01*
X-93559Y140954D01*
X-93684Y140000D01*
X-93559Y139046D01*
X-93191Y138158D01*
X-92605Y137395D01*
X-91842Y136809D01*
X-90954Y136441D01*
X-90000Y136316D01*
X-89046Y136441D01*
X-88158Y136809D01*
X-87395Y137395D01*
X-86809Y138158D01*
X-86441Y139046D01*
X-86316Y140000D01*
X-86326Y140079D01*
X-86187Y141489D01*
X-85753Y142922D01*
X-85047Y144241D01*
X-84145Y145341D01*
X-63878Y165608D01*
X-63724Y165525D01*
X-63603Y165040D01*
X-63862Y164652D01*
X-80457Y148057D01*
X-80689Y147710D01*
X-80771Y147300D01*
Y140744D01*
X-86314Y135200D01*
X-86324Y135211D01*
X-86408Y135109D01*
X-87386Y134359D01*
X-88647Y133836D01*
X-89900Y133671D01*
X-90000Y133684D01*
X-90954Y133559D01*
X-91842Y133191D01*
X-92605Y132605D01*
X-93191Y131842D01*
X-93559Y130954D01*
X-93684Y130000D01*
X-93559Y129046D01*
X-93191Y128158D01*
X-92605Y127395D01*
X-91842Y126809D01*
X-90954Y126441D01*
X-90000Y126316D01*
X-89046Y126441D01*
X-88158Y126809D01*
X-87395Y127395D01*
X-86809Y128158D01*
X-86441Y129046D01*
X-86316Y130000D01*
X-86329Y130100D01*
X-86164Y131353D01*
X-85641Y132614D01*
X-84891Y133592D01*
X-84789Y133676D01*
X-84800Y133686D01*
X-79833Y138654D01*
X-79371Y138462D01*
Y132143D01*
X-86314Y125200D01*
X-86324Y125211D01*
X-86408Y125109D01*
X-87386Y124358D01*
X-88647Y123836D01*
X-89900Y123671D01*
X-90000Y123684D01*
X-90954Y123559D01*
X-91842Y123191D01*
X-92605Y122605D01*
X-93191Y121842D01*
X-93559Y120954D01*
X-93684Y120000D01*
X-93559Y119046D01*
X-93191Y118158D01*
X-92605Y117395D01*
X-91842Y116809D01*
X-90954Y116441D01*
X-90000Y116316D01*
X-89046Y116441D01*
X-88158Y116809D01*
X-87395Y117395D01*
X-86809Y118158D01*
X-86441Y119046D01*
X-86316Y120000D01*
X-86329Y120100D01*
X-86164Y121353D01*
X-85641Y122614D01*
X-84891Y123592D01*
X-84789Y123676D01*
X-84800Y123686D01*
X-78433Y130053D01*
X-77971Y129862D01*
Y123544D01*
X-86314Y115200D01*
X-86324Y115211D01*
X-86408Y115109D01*
X-87386Y114358D01*
X-88647Y113836D01*
X-89900Y113671D01*
X-90000Y113684D01*
X-90954Y113559D01*
X-91842Y113191D01*
X-92605Y112605D01*
X-93191Y111842D01*
X-93559Y110954D01*
X-93684Y110000D01*
X-93559Y109046D01*
X-93191Y108158D01*
X-92605Y107395D01*
X-91842Y106809D01*
X-90954Y106441D01*
X-90000Y106316D01*
X-89046Y106441D01*
X-88158Y106809D01*
X-87395Y107395D01*
X-86809Y108158D01*
X-86441Y109046D01*
X-86316Y110000D01*
X-86329Y110100D01*
X-86164Y111353D01*
X-85641Y112614D01*
X-84891Y113592D01*
X-84789Y113676D01*
X-84800Y113686D01*
X-77033Y121453D01*
X-76571Y121262D01*
Y114943D01*
X-86314Y105200D01*
X-86314Y105200D01*
X-86324Y105211D01*
X-86408Y105109D01*
X-87386Y104358D01*
X-88647Y103836D01*
X-89900Y103671D01*
X-90000Y103684D01*
X-90954Y103559D01*
X-91842Y103191D01*
X-92605Y102605D01*
X-93191Y101842D01*
X-93559Y100954D01*
X-93684Y100000D01*
X-93559Y99046D01*
X-93191Y98158D01*
X-92605Y97395D01*
X-91842Y96809D01*
X-90954Y96441D01*
X-90000Y96316D01*
X-89046Y96441D01*
X-88158Y96809D01*
X-87395Y97395D01*
X-86809Y98158D01*
X-86441Y99046D01*
X-86316Y100000D01*
X-86329Y100100D01*
X-86164Y101353D01*
X-85641Y102614D01*
X-84891Y103592D01*
X-84789Y103676D01*
X-84800Y103686D01*
X-84800Y103686D01*
X-74743Y113743D01*
X-74743Y113743D01*
X-74511Y114090D01*
X-74429Y114500D01*
X-74429Y114500D01*
Y136597D01*
X-70188Y140839D01*
X-69690Y140790D01*
X-69298Y140202D01*
X-68702Y139804D01*
X-68000Y139665D01*
X-67487Y139767D01*
X-40650D01*
Y139300D01*
X-39924D01*
Y138200D01*
X-40650D01*
Y133800D01*
X-36750D01*
Y138200D01*
X-37477D01*
Y139300D01*
X-36750D01*
Y143700D01*
X-37477D01*
Y144800D01*
X-36750D01*
Y149200D01*
X-37477D01*
Y150300D01*
X-36750D01*
Y154700D01*
X-37477D01*
Y155800D01*
X-36750D01*
Y160200D01*
X-40650D01*
Y155800D01*
X-39924D01*
Y154700D01*
X-40650D01*
Y150300D01*
X-39924D01*
Y149200D01*
X-40650D01*
Y144800D01*
X-39924D01*
Y143700D01*
X-40650D01*
Y143233D01*
X-67140D01*
X-67331Y143695D01*
X-17197Y193829D01*
X-8600D01*
X-8190Y193911D01*
X-7843Y194143D01*
X-5642Y196344D01*
X-5443Y196304D01*
X-5150Y196183D01*
Y196183D01*
X-5150D01*
Y193853D01*
X-5171Y193750D01*
X-5171D01*
X-5165Y193742D01*
X-5301Y193413D01*
X-5317Y193397D01*
D01*
X-5317Y193397D01*
X-5474Y193239D01*
X-5475Y193239D01*
X-5483Y193248D01*
X-5583Y193131D01*
X-5853Y192861D01*
X-5929Y192803D01*
X-5920Y192794D01*
X-5920Y192794D01*
X-6669Y192044D01*
X-6685Y192060D01*
X-6829Y191885D01*
X-7864Y190849D01*
X-7864Y190849D01*
X-7875Y190859D01*
X-7966Y190749D01*
X-9059Y189655D01*
X-9078Y189673D01*
X-9179Y189542D01*
Y189542D01*
X-9179Y189542D01*
X-9181Y189542D01*
D01*
X-9181D01*
D01*
D01*
X-9290Y189496D01*
X-9400Y189451D01*
X-9400Y189451D01*
X-9419Y189441D01*
X-9503Y189424D01*
X-13053D01*
Y189424D01*
X-13190Y189189D01*
X-13600Y189271D01*
X-13600D01*
Y189277D01*
Y189280D01*
X-13800Y189320D01*
Y190150D01*
X-18200D01*
Y186250D01*
X-13800D01*
D01*
X-13800Y186250D01*
X-13800Y186250D01*
Y186250D01*
X-13239Y186250D01*
X-13155Y186125D01*
X-13085Y185772D01*
X-13073D01*
X-13053Y185668D01*
Y178576D01*
X-9503D01*
X-9400Y178555D01*
Y178555D01*
X-9384Y178570D01*
X-7545Y178389D01*
X-5762Y177848D01*
X-4118Y176969D01*
X-2807Y175893D01*
X-2055Y175141D01*
Y172722D01*
X-2517Y172531D01*
X-5743Y175757D01*
X-6090Y175989D01*
X-6500Y176071D01*
X-14557D01*
X-14963Y176477D01*
X-14952Y176488D01*
X-15109Y176723D01*
X-15164Y177000D01*
X-15165D01*
X-15304Y177702D01*
X-15702Y178298D01*
X-16298Y178696D01*
X-17000Y178835D01*
X-17702Y178696D01*
X-18298Y178298D01*
X-18696Y177702D01*
X-18835Y177000D01*
X-18696Y176298D01*
X-18298Y175702D01*
X-17702Y175304D01*
X-17000Y175165D01*
Y175164D01*
X-16986Y175161D01*
X-16729Y174732D01*
X-16779Y174571D01*
X-20057D01*
X-20256Y174769D01*
X-20256Y174770D01*
X-20254Y174771D01*
X-20755Y175424D01*
X-21070Y176184D01*
X-21172Y176963D01*
X-21165Y177000D01*
X-21304Y177702D01*
X-21702Y178298D01*
X-22298Y178696D01*
X-23000Y178835D01*
X-23000D01*
X-23000Y178835D01*
Y178909D01*
X-22646Y179262D01*
X-22215D01*
Y179253D01*
X-22146Y179262D01*
X-21407D01*
Y179244D01*
X-21407Y179244D01*
X-21407Y179244D01*
X-21407Y179244D01*
X-21300Y179200D01*
X-21300Y179200D01*
D01*
D01*
D01*
X-21298Y179202D01*
D01*
X-20702Y178804D01*
X-20000Y178665D01*
X-19298Y178804D01*
X-18702Y179202D01*
X-18304Y179798D01*
X-18292Y179859D01*
X-18200Y179850D01*
X-18200Y179850D01*
X-18200Y179850D01*
X-16500D01*
Y181300D01*
X-18200D01*
Y181907D01*
X-18678Y181762D01*
X-18702Y181798D01*
X-19298Y182196D01*
X-20000Y182335D01*
X-20702Y182196D01*
X-21298Y181798D01*
X-21313Y181776D01*
X-21714Y181507D01*
X-22215Y181408D01*
Y181403D01*
X-23667D01*
X-24077Y181322D01*
X-24424Y181090D01*
X-27084Y178430D01*
X-27316Y178083D01*
X-27397Y177673D01*
Y161270D01*
X-29597Y159071D01*
X-30127D01*
Y159078D01*
Y159079D01*
X-30350Y159123D01*
Y160200D01*
X-34250D01*
Y155800D01*
X-30350D01*
Y156877D01*
X-30127Y156921D01*
Y156922D01*
Y156929D01*
X-29153D01*
X-28744Y157011D01*
X-28396Y157243D01*
X-25883Y159756D01*
X-21112D01*
X-20901Y159362D01*
X-20901Y159358D01*
X-16141D01*
Y158358D01*
X-20901D01*
X-20901Y158355D01*
X-20616Y157928D01*
Y157820D01*
X-20901Y157393D01*
X-20901Y157390D01*
X-16141D01*
Y156390D01*
X-20901D01*
X-20901Y156386D01*
X-20616Y155959D01*
Y155852D01*
X-20901Y155425D01*
X-20901Y155421D01*
X-16141D01*
Y154421D01*
X-20901D01*
X-20901Y154418D01*
X-20616Y153991D01*
Y153883D01*
X-20901Y153456D01*
X-20901Y153453D01*
X-11382D01*
X-11309Y153085D01*
X-10847Y153276D01*
X-10798Y153202D01*
X-10202Y152804D01*
X-9500Y152665D01*
X-8798Y152804D01*
X-8202Y153202D01*
X-7804Y153798D01*
X-7750Y154071D01*
X-7250D01*
X-7196Y153798D01*
X-6798Y153202D01*
X-6202Y152804D01*
X-5500Y152665D01*
X-4798Y152804D01*
X-4202Y153202D01*
X-3804Y153798D01*
X-3665Y154500D01*
X-3804Y155202D01*
X-4057Y155580D01*
X-4000Y155665D01*
X-3298Y155804D01*
X-2702Y156202D01*
X-2304Y156798D01*
X-2165Y157500D01*
X-2304Y158202D01*
X-2702Y158798D01*
X-2750Y158829D01*
X-3334Y159590D01*
X-3722Y160528D01*
X-3772Y160910D01*
X-3522Y161284D01*
X-3424Y161376D01*
X-2953Y161283D01*
X-2449Y161383D01*
X-2022Y161668D01*
X-1915D01*
X-1488Y161383D01*
X-984Y161283D01*
X-481Y161383D01*
X-54Y161668D01*
X54D01*
X481Y161383D01*
X984Y161283D01*
X1488Y161383D01*
X1915Y161668D01*
X2022D01*
X2449Y161383D01*
X2453Y161382D01*
Y166141D01*
Y170901D01*
X2449Y170901D01*
X2055Y171112D01*
Y174841D01*
X3326Y176112D01*
X4584Y177144D01*
X6145Y177979D01*
X7839Y178492D01*
X9586Y178665D01*
X9600Y178652D01*
Y178652D01*
X9703Y178672D01*
X13253D01*
Y185371D01*
X13273Y185475D01*
X13276D01*
X13383Y186014D01*
X13667Y186439D01*
X14166Y186455D01*
X14230Y186373D01*
X14300Y186250D01*
Y186250D01*
X18700D01*
Y190150D01*
X14300D01*
Y189323D01*
X14077Y189279D01*
Y189278D01*
Y189271D01*
X13900D01*
X13490Y189189D01*
X13334Y189084D01*
X13253Y189128D01*
Y189128D01*
X13253Y189128D01*
X9703D01*
X9600Y189148D01*
Y189173D01*
D01*
X9600Y189173D01*
D01*
Y189173D01*
X9580Y189182D01*
X9560Y189190D01*
D01*
D01*
X9560D01*
X9556Y189187D01*
X9542Y189172D01*
X9345Y189369D01*
X9211Y189543D01*
X9191Y189523D01*
X8105Y190609D01*
X8007Y190729D01*
X7996Y190718D01*
X7996Y190718D01*
X6969Y191745D01*
X6818Y191929D01*
X6801Y191913D01*
X5920Y192794D01*
X5920Y192794D01*
X5929Y192803D01*
X5615Y193117D01*
X5606Y193108D01*
X5606Y193108D01*
X5301Y193413D01*
X5165Y193742D01*
X5171Y193750D01*
X5171D01*
X5150Y193853D01*
Y196200D01*
X1250D01*
Y191800D01*
X3097D01*
X3200Y191779D01*
Y191779D01*
X3203Y191782D01*
X3854Y191653D01*
X3858Y191650D01*
X4200Y191233D01*
X5158Y189441D01*
X5748Y187497D01*
X5945Y185495D01*
X5927Y185475D01*
X5927D01*
X5947Y185371D01*
Y182429D01*
X5927Y182325D01*
X5924D01*
X5817Y181786D01*
X5512Y181329D01*
X5513Y181327D01*
X5359Y181173D01*
X5290Y181117D01*
X5296Y181110D01*
X4223Y180037D01*
X4089Y179927D01*
X4101Y179915D01*
X3087Y178901D01*
X2889Y178738D01*
X2906Y178720D01*
X1836Y177650D01*
X1702Y177535D01*
X1711Y177525D01*
X354Y176168D01*
X-144Y176217D01*
X-227Y176341D01*
X-1175Y177289D01*
X-1175Y177289D01*
X-1165Y177300D01*
X-1313Y177427D01*
X-2370Y178484D01*
X-2351Y178504D01*
X-2567Y178681D01*
X-3565Y179679D01*
X-3552Y179693D01*
X-3704Y179818D01*
X-4752Y180867D01*
Y180882D01*
Y180882D01*
X-4840Y180954D01*
X-5453Y181567D01*
X-5444Y181575D01*
X-5645Y181875D01*
X-5715Y182228D01*
X-5727D01*
X-5747Y182332D01*
Y185668D01*
X-5727Y185772D01*
X-5727D01*
X-5744Y185791D01*
X-5551Y187748D01*
X-4975Y189648D01*
X-4039Y191399D01*
X-3826Y191658D01*
X-3203Y191782D01*
X-3200Y191779D01*
Y191779D01*
X-3097Y191800D01*
X-1250D01*
Y196200D01*
X-5133D01*
X-5196Y196353D01*
X-5264Y196518D01*
Y196518D01*
X-5324Y196662D01*
X-557Y201429D01*
X4500D01*
X4910Y201511D01*
X5257Y201743D01*
X10257Y206743D01*
X10489Y207090D01*
X10571Y207500D01*
X10571Y207500D01*
Y208018D01*
X11033Y208210D01*
X16499Y202743D01*
X16499Y202743D01*
X16847Y202511D01*
X17256Y202429D01*
X17256Y202429D01*
X20689D01*
Y202425D01*
Y202414D01*
X20967Y202359D01*
X21202Y202202D01*
X21202D01*
X21202D01*
X21202Y202202D01*
D01*
X21798Y201804D01*
X22500Y201665D01*
X23202Y201804D01*
X23798Y202202D01*
X24196Y202798D01*
X24335Y203500D01*
X24196Y204202D01*
X24094Y204355D01*
X24372Y204770D01*
X24426Y204760D01*
X25156Y204272D01*
X25202Y204202D01*
X25798Y203804D01*
X26500Y203665D01*
X27202Y203804D01*
X27798Y204202D01*
X28196Y204798D01*
X28335Y205500D01*
X28196Y206202D01*
X28011Y206478D01*
X28289Y206894D01*
X28467Y206859D01*
X28702Y206702D01*
X28702D01*
X28702D01*
X28702Y206702D01*
D01*
X29298Y206304D01*
X30000Y206165D01*
X30702Y206304D01*
X31298Y206702D01*
X31696Y207298D01*
X31835Y208000D01*
X31696Y208702D01*
X31298Y209298D01*
X31338Y209429D01*
X32689D01*
Y209425D01*
Y209414D01*
X32967Y209359D01*
X33202Y209202D01*
X33202Y209202D01*
X33798Y208804D01*
X34500Y208665D01*
X35202Y208804D01*
X35798Y209202D01*
X36196Y209798D01*
X36335Y210500D01*
X36196Y211202D01*
X35798Y211798D01*
X35202Y212196D01*
X34500Y212335D01*
X34594Y212429D01*
X36189D01*
Y212425D01*
Y212414D01*
X36467Y212359D01*
X36702Y212202D01*
X36702D01*
X36702D01*
X36702Y212202D01*
D01*
X37298Y211804D01*
X38000Y211665D01*
X38702Y211804D01*
X38877Y211921D01*
X39293Y211643D01*
X39165Y211000D01*
X39304Y210298D01*
X39702Y209702D01*
X40298Y209304D01*
X41000Y209165D01*
X41702Y209304D01*
X41877Y209421D01*
X42293Y209143D01*
X42165Y208500D01*
X42304Y207798D01*
X42702Y207202D01*
X43298Y206804D01*
X44000Y206665D01*
X44702Y206804D01*
X45298Y207202D01*
X45696Y207798D01*
X45835Y208500D01*
X45696Y209202D01*
X45298Y209798D01*
X45298Y209798D01*
X45141Y210033D01*
X45086Y210311D01*
X45071D01*
Y217000D01*
X44989Y217410D01*
X44757Y217757D01*
X44757Y217757D01*
X43757Y218757D01*
X43410Y218989D01*
X43000Y219071D01*
X28835D01*
X28644Y219532D01*
X29439Y220328D01*
X27883Y221884D01*
X28236Y222237D01*
X27883Y222590D01*
X29263Y223970D01*
X28155Y225077D01*
X28346Y225539D01*
X30349D01*
Y225532D01*
X30407Y225539D01*
X31162D01*
X31164Y225536D01*
X31164D01*
X31169Y225523D01*
D01*
D01*
D01*
Y225523D01*
X31169D01*
X31183Y225517D01*
Y225517D01*
D01*
D01*
D01*
D01*
X31189Y225515D01*
X31202Y225509D01*
D01*
D01*
D01*
D01*
D01*
D01*
D01*
X31202D01*
D01*
D01*
Y225509D01*
X31225Y225521D01*
X31291Y225477D01*
X32939Y223828D01*
X35697Y226586D01*
X35367Y226916D01*
X38218Y229767D01*
X58982D01*
X64774Y223974D01*
X64774Y223974D01*
X65150Y223723D01*
X65337Y223599D01*
X66000Y223467D01*
X66000Y223467D01*
X83320D01*
Y166733D01*
X46718D01*
X35426Y178026D01*
X34863Y178401D01*
X34200Y178533D01*
X27949D01*
X27939Y178535D01*
Y178533D01*
X26561D01*
Y178535D01*
X26551Y178533D01*
X23000D01*
X22337Y178401D01*
X21774Y178026D01*
X19982Y176233D01*
X11000D01*
X10337Y176101D01*
X9774Y175726D01*
X9773Y175724D01*
X7000D01*
X6532Y175630D01*
X6135Y175365D01*
X4056Y173286D01*
X3791Y172889D01*
X3698Y172421D01*
Y171247D01*
X3311Y170930D01*
X3453Y170902D01*
Y166141D01*
Y161382D01*
X3456Y161383D01*
X3883Y161668D01*
X3991D01*
X4418Y161383D01*
X4921Y161283D01*
X5425Y161383D01*
X5819Y161172D01*
Y159333D01*
X-2443Y151071D01*
X-6689D01*
Y151086D01*
X-6967Y151141D01*
X-7202Y151298D01*
X-7202Y151298D01*
X-7798Y151696D01*
X-8500Y151835D01*
X-9202Y151696D01*
X-9798Y151298D01*
X-10196Y150702D01*
X-10335Y150000D01*
X-10196Y149298D01*
X-9798Y148702D01*
X-9495Y148500D01*
Y148000D01*
X-9798Y147798D01*
X-10196Y147202D01*
X-10335Y146500D01*
X-10196Y145798D01*
X-9798Y145202D01*
X-9202Y144804D01*
X-8929Y144750D01*
Y144250D01*
X-9202Y144196D01*
X-9798Y143798D01*
X-10196Y143202D01*
X-10335Y142500D01*
X-10196Y141798D01*
X-9798Y141202D01*
X-9202Y140804D01*
X-8500Y140665D01*
X-7798Y140804D01*
X-7202Y141202D01*
X-7201Y141205D01*
X-7051Y141266D01*
Y141277D01*
X-5355D01*
X-5164Y140815D01*
X-5786Y140192D01*
X-6052Y139795D01*
X-6145Y139327D01*
Y138963D01*
X-6531Y138646D01*
X-6390Y138618D01*
Y133857D01*
Y129099D01*
X-6386Y129099D01*
X-5959Y129385D01*
X-5852D01*
X-5425Y129099D01*
X-4921Y128999D01*
X-4418Y129099D01*
X-4023Y128888D01*
Y124991D01*
X-11343Y117671D01*
X-18400D01*
X-18400Y117671D01*
X-18810Y117589D01*
X-19157Y117357D01*
X-22657Y113857D01*
X-22889Y113510D01*
X-22971Y113100D01*
Y109287D01*
X-23383Y108671D01*
X-23383Y108671D01*
D01*
X-23487Y108650D01*
X-25833D01*
Y107823D01*
X-26056Y107779D01*
Y107771D01*
X-27044D01*
Y107778D01*
Y107779D01*
X-27267Y107823D01*
Y108650D01*
X-31667D01*
Y104750D01*
X-27267D01*
Y105577D01*
X-27044Y105621D01*
Y105622D01*
Y105629D01*
X-26056D01*
Y105622D01*
Y105621D01*
X-25833Y105577D01*
Y104750D01*
X-21433D01*
Y106708D01*
X-21417Y106789D01*
X-21433Y106870D01*
Y106894D01*
X-21398Y106897D01*
X-21416Y106990D01*
X-21343Y107357D01*
X-21173Y107612D01*
X-20675Y107661D01*
Y107661D01*
X-20607Y107578D01*
Y107578D01*
X-20544Y107530D01*
X-20237Y107223D01*
D01*
X-20248Y107212D01*
Y107212D01*
X-20248Y107212D01*
X-20248D01*
X-20091Y106977D01*
X-20036Y106700D01*
X-20021D01*
X-20000Y106597D01*
Y104750D01*
X-15600D01*
Y105577D01*
X-15377Y105621D01*
Y105622D01*
Y105629D01*
X-14390D01*
Y105622D01*
Y105621D01*
X-14167Y105577D01*
Y104750D01*
X-9767D01*
Y108650D01*
X-14167D01*
Y107823D01*
X-14390Y107779D01*
Y107778D01*
Y107771D01*
X-15377D01*
Y107779D01*
X-15600Y107823D01*
Y108650D01*
X-17947D01*
X-18050Y108671D01*
Y108672D01*
X-18610Y108783D01*
X-19084Y109100D01*
X-19085Y109099D01*
X-19085Y109099D01*
X-19429Y109443D01*
Y112077D01*
X-17377Y114129D01*
X-10320D01*
X-9910Y114211D01*
X-9563Y114443D01*
X-227Y123779D01*
X5Y124126D01*
X86Y124536D01*
Y128888D01*
X481Y129099D01*
X984Y128999D01*
X1488Y129099D01*
X1915Y129385D01*
X2022D01*
X2449Y129099D01*
X2953Y128999D01*
X3456Y129099D01*
X3883Y129385D01*
X3991D01*
X4418Y129099D01*
X4421Y129099D01*
Y133859D01*
X5421D01*
Y129099D01*
X5425Y129099D01*
X5819Y128888D01*
Y126913D01*
X5800D01*
X5819Y126766D01*
Y125700D01*
X5350D01*
Y121300D01*
X9076D01*
Y120507D01*
X8142Y119572D01*
X8142Y119572D01*
X8139Y119575D01*
X7754Y119318D01*
X7300Y119227D01*
Y119223D01*
X7182Y119200D01*
X5350D01*
Y114800D01*
X9250D01*
Y117132D01*
X9266Y117210D01*
X9290Y117217D01*
Y117217D01*
X9290Y117217D01*
X9303Y117250D01*
X9831Y117801D01*
X9878Y117836D01*
X9872Y117842D01*
X11165Y119135D01*
X11271Y119294D01*
X11306Y119283D01*
X11744Y119151D01*
D01*
X11750Y119149D01*
Y117500D01*
X13200D01*
Y119200D01*
X11766D01*
Y119200D01*
X11759D01*
X11759D01*
X11441Y119587D01*
X11524Y120000D01*
Y121300D01*
X11524D01*
X11750D01*
X11877Y121300D01*
X11877Y121300D01*
Y121300D01*
X13200D01*
Y123499D01*
Y125700D01*
X11877D01*
X11877Y125700D01*
Y125700D01*
X11750Y125700D01*
X11524Y125926D01*
Y126000D01*
X11430Y126468D01*
X11165Y126865D01*
X10768Y127130D01*
X10663Y127151D01*
X9929Y127885D01*
Y128888D01*
X10323Y129099D01*
X10827Y128999D01*
X11330Y129099D01*
X11757Y129385D01*
X12042Y129811D01*
X12143Y130315D01*
Y137402D01*
X12117Y137529D01*
X12471Y137883D01*
X12598Y137857D01*
X19685D01*
X20189Y137958D01*
X20616Y138243D01*
X20901Y138670D01*
X21001Y139173D01*
X20901Y139677D01*
X20616Y140104D01*
Y140211D01*
X20901Y140638D01*
X20901Y140642D01*
X16141D01*
Y141642D01*
X20901D01*
X20901Y141645D01*
X20616Y142072D01*
Y142180D01*
X20901Y142607D01*
X21001Y143110D01*
X20901Y143614D01*
X20616Y144041D01*
Y144148D01*
X20901Y144575D01*
X20901Y144579D01*
X16141D01*
Y145579D01*
X20901D01*
X20901Y145582D01*
X21112Y145977D01*
X22009D01*
X29243Y138743D01*
X29243Y138743D01*
X29590Y138511D01*
X30000Y138429D01*
X30627D01*
Y138422D01*
Y138421D01*
X30850Y138377D01*
Y137300D01*
X34750D01*
Y141700D01*
X30850D01*
Y140817D01*
X30388Y140626D01*
X23210Y147804D01*
X22862Y148036D01*
X22489Y148111D01*
D01*
Y148111D01*
X22500Y148164D01*
X22000Y148264D01*
Y150001D01*
X22499D01*
Y150500D01*
X23986D01*
X24298Y150188D01*
X24336Y150000D01*
X24257Y149606D01*
X24735Y149751D01*
X29743Y144743D01*
X29743Y144743D01*
X30090Y144511D01*
X30500Y144429D01*
X30627D01*
Y144422D01*
Y144421D01*
X30850Y144377D01*
Y143300D01*
X34750D01*
Y147700D01*
X30850D01*
Y147317D01*
X30388Y147126D01*
X27547Y149968D01*
X27738Y150429D01*
X30627D01*
Y150422D01*
Y150421D01*
X30850Y150377D01*
Y149300D01*
X34750D01*
Y153700D01*
X30850D01*
Y152623D01*
X30627Y152579D01*
Y152571D01*
X26984D01*
X23876Y155678D01*
X23919Y155819D01*
X29757D01*
Y155801D01*
X29893Y155819D01*
X30850D01*
Y155300D01*
X34750D01*
Y159700D01*
X30850D01*
Y158253D01*
X30656Y158123D01*
X29836Y157960D01*
X24411D01*
X24220Y158422D01*
X28227Y162429D01*
X30627D01*
Y162422D01*
Y162421D01*
X30850Y162377D01*
Y161300D01*
X34750D01*
Y165700D01*
X30850D01*
Y164623D01*
X30627Y164579D01*
Y164578D01*
Y164571D01*
X27784D01*
X27784Y164571D01*
X27374Y164489D01*
X27026Y164257D01*
X22698Y159929D01*
X21112D01*
X20901Y160323D01*
X21001Y160827D01*
X20901Y161330D01*
X20616Y161757D01*
X20189Y162042D01*
X19685Y162143D01*
X12598D01*
X12471Y162117D01*
X12117Y162471D01*
X12143Y162598D01*
Y169685D01*
X12042Y170189D01*
X11757Y170615D01*
X11330Y170901D01*
X10827Y171001D01*
X10323Y170901D01*
X9896Y170615D01*
X9789D01*
X9362Y170901D01*
X8858Y171001D01*
X8355Y170901D01*
X7928Y170615D01*
X7820D01*
X7393Y170901D01*
X6890Y171001D01*
X6531Y170930D01*
X6145Y171247D01*
Y171915D01*
X7507Y173276D01*
X9773D01*
X9774Y173274D01*
X10337Y172899D01*
X11000Y172767D01*
X20700D01*
X21363Y172899D01*
X21926Y173274D01*
X21926Y173274D01*
X21926Y173274D01*
X22114Y173463D01*
X22697Y173911D01*
X23446Y174221D01*
X24240Y174325D01*
X24250Y174317D01*
Y174317D01*
X24417Y174350D01*
X26700D01*
Y175067D01*
X27800D01*
Y174350D01*
X32200D01*
Y175067D01*
X33482D01*
X44774Y163774D01*
X44774Y163774D01*
X44774D01*
X44774Y163774D01*
X44774D01*
X44774Y163774D01*
Y163774D01*
Y163774D01*
D01*
D01*
X44774D01*
Y163774D01*
X45337Y163399D01*
X46000Y163267D01*
X83320D01*
Y115100D01*
X83440Y114495D01*
X83783Y113982D01*
X85293Y112472D01*
X85292Y112471D01*
X85305Y112460D01*
X85349Y112417D01*
X85857Y111753D01*
X86208Y110907D01*
X86322Y110044D01*
X86316Y110000D01*
X86441Y109046D01*
X86809Y108158D01*
X87395Y107395D01*
X88158Y106809D01*
X89046Y106441D01*
X90000Y106316D01*
X90954Y106441D01*
X91842Y106809D01*
X92605Y107395D01*
X93191Y108158D01*
X93559Y109046D01*
X93684Y110000D01*
X93559Y110954D01*
X93191Y111842D01*
X92605Y112605D01*
X91842Y113191D01*
X90954Y113559D01*
X90000Y113684D01*
X89956Y113679D01*
X89092Y113792D01*
X88247Y114143D01*
X87584Y114651D01*
X87540Y114695D01*
X87529Y114708D01*
X87528Y114707D01*
X86480Y115755D01*
Y117809D01*
X86954Y117970D01*
X87395Y117395D01*
X88158Y116809D01*
X89046Y116441D01*
X90000Y116316D01*
X90954Y116441D01*
X91842Y116809D01*
X92605Y117395D01*
X93191Y118158D01*
X93559Y119046D01*
X93684Y120000D01*
X93559Y120954D01*
X93191Y121842D01*
X92605Y122605D01*
X91842Y123191D01*
X90954Y123559D01*
X90000Y123684D01*
X89046Y123559D01*
X88158Y123191D01*
X87395Y122605D01*
X86954Y122030D01*
X86480Y122191D01*
Y127809D01*
X86954Y127970D01*
X87395Y127395D01*
X88158Y126809D01*
X89046Y126441D01*
X90000Y126316D01*
X90954Y126441D01*
X91842Y126809D01*
X92605Y127395D01*
X93191Y128158D01*
X93559Y129046D01*
X93684Y130000D01*
X93559Y130954D01*
X93191Y131842D01*
X92605Y132605D01*
X91842Y133191D01*
X90954Y133559D01*
X90000Y133684D01*
X89046Y133559D01*
X88158Y133191D01*
X87395Y132605D01*
X86954Y132030D01*
X86480Y132191D01*
Y137809D01*
X86954Y137970D01*
X87395Y137395D01*
X88158Y136809D01*
X89046Y136441D01*
X90000Y136316D01*
X90954Y136441D01*
X91842Y136809D01*
X92605Y137395D01*
X93191Y138158D01*
X93559Y139046D01*
X93684Y140000D01*
X93559Y140954D01*
X93191Y141842D01*
X92605Y142605D01*
X91842Y143191D01*
X90954Y143559D01*
X90000Y143684D01*
X89046Y143559D01*
X88158Y143191D01*
X87395Y142605D01*
X86954Y142031D01*
X86480Y142191D01*
Y147809D01*
X86954Y147969D01*
X87395Y147395D01*
X88158Y146809D01*
X89046Y146441D01*
X90000Y146316D01*
X90954Y146441D01*
X91842Y146809D01*
X92605Y147395D01*
X93191Y148158D01*
X93559Y149046D01*
X93684Y150000D01*
X93559Y150954D01*
X93191Y151842D01*
X92605Y152605D01*
X91842Y153191D01*
X90954Y153559D01*
X90000Y153684D01*
X89046Y153559D01*
X88158Y153191D01*
X87395Y152605D01*
X86954Y152031D01*
X86480Y152191D01*
Y157809D01*
X86954Y157969D01*
X87395Y157395D01*
X88158Y156809D01*
X89046Y156441D01*
X90000Y156316D01*
X90954Y156441D01*
X91842Y156809D01*
X92605Y157395D01*
X93191Y158158D01*
X93559Y159046D01*
X93684Y160000D01*
X93559Y160954D01*
X93191Y161842D01*
X92605Y162605D01*
X91842Y163191D01*
X90954Y163559D01*
X90000Y163684D01*
X89046Y163559D01*
X88158Y163191D01*
X87395Y162605D01*
X86954Y162030D01*
X86480Y162191D01*
Y164305D01*
X86501Y164337D01*
X86633Y165000D01*
X86501Y165663D01*
X86480Y165695D01*
Y167809D01*
X86954Y167970D01*
X87395Y167395D01*
X88158Y166809D01*
X89046Y166441D01*
X90000Y166316D01*
X90954Y166441D01*
X91842Y166809D01*
X92605Y167395D01*
X93191Y168158D01*
X93559Y169046D01*
X93684Y170000D01*
X93559Y170954D01*
X93191Y171842D01*
X92605Y172605D01*
X91842Y173191D01*
X90954Y173559D01*
X90000Y173684D01*
X89046Y173559D01*
X88158Y173191D01*
X87395Y172605D01*
X86954Y172030D01*
X86480Y172191D01*
Y177809D01*
X86954Y177970D01*
X87395Y177395D01*
X88158Y176809D01*
X89046Y176441D01*
X90000Y176316D01*
X90954Y176441D01*
X91842Y176809D01*
X92605Y177395D01*
X93191Y178158D01*
X93559Y179046D01*
X93684Y180000D01*
X93559Y180954D01*
X93191Y181842D01*
X92605Y182605D01*
X91842Y183191D01*
X90954Y183559D01*
X90000Y183684D01*
X89046Y183559D01*
X88158Y183191D01*
X87395Y182605D01*
X86954Y182030D01*
X86480Y182191D01*
Y187809D01*
X86954Y187970D01*
X87395Y187395D01*
X88158Y186809D01*
X89046Y186441D01*
X90000Y186316D01*
X90954Y186441D01*
X91842Y186809D01*
X92605Y187395D01*
X93191Y188158D01*
X93559Y189046D01*
X93684Y190000D01*
X93559Y190954D01*
X93191Y191842D01*
X92605Y192605D01*
X91842Y193191D01*
X90954Y193559D01*
X90000Y193684D01*
X89046Y193559D01*
X88158Y193191D01*
X87395Y192605D01*
X86954Y192031D01*
X86480Y192191D01*
Y197809D01*
X86954Y197969D01*
X87395Y197395D01*
X88158Y196809D01*
X89046Y196441D01*
X90000Y196316D01*
X90954Y196441D01*
X91842Y196809D01*
X92605Y197395D01*
X93191Y198158D01*
X93559Y199046D01*
X93684Y200000D01*
X93559Y200954D01*
X93191Y201842D01*
X92605Y202605D01*
X91842Y203191D01*
X90954Y203559D01*
X90000Y203684D01*
X89046Y203559D01*
X88158Y203191D01*
X87395Y202605D01*
X86954Y202030D01*
X86480Y202191D01*
Y207809D01*
X86954Y207969D01*
X87395Y207395D01*
X88158Y206809D01*
X89046Y206441D01*
X90000Y206316D01*
X90954Y206441D01*
X91842Y206809D01*
X92605Y207395D01*
X93191Y208158D01*
X93559Y209046D01*
X93684Y210000D01*
X93559Y210954D01*
X93191Y211842D01*
X92605Y212605D01*
X91842Y213191D01*
X90954Y213559D01*
X90000Y213684D01*
X89046Y213559D01*
X88158Y213191D01*
X87395Y212605D01*
X86954Y212031D01*
X86480Y212191D01*
Y217809D01*
X86954Y217969D01*
X87395Y217395D01*
X88158Y216809D01*
X89046Y216441D01*
X90000Y216316D01*
X90954Y216441D01*
X91842Y216809D01*
X92605Y217395D01*
X93191Y218158D01*
X93559Y219046D01*
X93684Y220000D01*
X93559Y220954D01*
X93191Y221842D01*
X92605Y222605D01*
X91842Y223191D01*
X90954Y223559D01*
X90000Y223684D01*
X89046Y223559D01*
X88158Y223191D01*
X87395Y222605D01*
X86954Y222030D01*
X86480Y222191D01*
Y224505D01*
X86501Y224537D01*
X86633Y225200D01*
X86501Y225863D01*
X86480Y225895D01*
Y227809D01*
X86954Y227970D01*
X87395Y227395D01*
X88158Y226809D01*
X89046Y226441D01*
X90000Y226316D01*
X90954Y226441D01*
X91842Y226809D01*
X92605Y227395D01*
X93191Y228158D01*
X93559Y229046D01*
X93684Y230000D01*
X93559Y230954D01*
X93191Y231842D01*
X92605Y232605D01*
X91842Y233191D01*
X90954Y233559D01*
X90000Y233684D01*
X89046Y233559D01*
X88158Y233191D01*
X87395Y232605D01*
X86954Y232031D01*
X86480Y232191D01*
Y237809D01*
X86954Y237969D01*
X87395Y237395D01*
X88158Y236809D01*
X89046Y236441D01*
X90000Y236316D01*
X90954Y236441D01*
X91842Y236809D01*
X92605Y237395D01*
X93191Y238158D01*
X93559Y239046D01*
X93684Y240000D01*
X93559Y240954D01*
X93191Y241842D01*
X92605Y242605D01*
X91842Y243191D01*
X90954Y243559D01*
X90000Y243684D01*
X89046Y243559D01*
X88158Y243191D01*
X87395Y242605D01*
X86954Y242031D01*
X86480Y242191D01*
Y247809D01*
X86954Y247970D01*
X87395Y247395D01*
X88158Y246809D01*
X89046Y246441D01*
X90000Y246316D01*
X90954Y246441D01*
X91842Y246809D01*
X92605Y247395D01*
X93191Y248158D01*
X93559Y249046D01*
X93684Y250000D01*
X93559Y250954D01*
X93191Y251842D01*
X92605Y252605D01*
X91842Y253191D01*
X90954Y253559D01*
X90000Y253684D01*
X89046Y253559D01*
X88158Y253191D01*
X87395Y252605D01*
X86954Y252030D01*
X86480Y252191D01*
Y257809D01*
X86954Y257969D01*
X87395Y257395D01*
X88158Y256809D01*
X89046Y256441D01*
X90000Y256316D01*
X90954Y256441D01*
X91842Y256809D01*
X92605Y257395D01*
X93191Y258158D01*
X93559Y259046D01*
X93684Y260000D01*
X93559Y260954D01*
X93191Y261842D01*
X92605Y262605D01*
X91842Y263191D01*
X90954Y263559D01*
X90000Y263684D01*
X89046Y263559D01*
X88158Y263191D01*
X87395Y262605D01*
X86954Y262031D01*
X86480Y262191D01*
Y267809D01*
X86954Y267969D01*
X87395Y267395D01*
X88158Y266809D01*
X89046Y266441D01*
X90000Y266316D01*
X90954Y266441D01*
X91842Y266809D01*
X92605Y267395D01*
X93191Y268158D01*
X93559Y269046D01*
X93684Y270000D01*
X93559Y270954D01*
X93191Y271842D01*
X92605Y272605D01*
X91842Y273191D01*
X90954Y273559D01*
X90000Y273684D01*
X89046Y273559D01*
X88158Y273191D01*
X87395Y272605D01*
X86954Y272030D01*
X86480Y272191D01*
Y277809D01*
X86954Y277970D01*
X87395Y277395D01*
X88158Y276809D01*
X89046Y276441D01*
X89500Y276382D01*
Y279999D01*
Y283618D01*
X89046Y283559D01*
X88158Y283191D01*
X87395Y282605D01*
X86954Y282031D01*
X86480Y282191D01*
Y286347D01*
X93653D01*
Y293653D01*
X86347D01*
Y288041D01*
X85885Y287850D01*
X78377Y295358D01*
X77865Y295700D01*
X77260Y295820D01*
X70983D01*
Y295838D01*
X70851Y295820D01*
X70847D01*
X70053Y295978D01*
X69327Y296464D01*
X69282Y296522D01*
X69284Y296524D01*
X69249Y296548D01*
X68614Y297035D01*
X67835Y297358D01*
X67000Y297468D01*
D02*
G37*
G36*
X-66673Y295004D02*
Y291500D01*
X-64482D01*
Y292378D01*
X-64573Y293075D01*
X-64842Y293724D01*
X-65270Y294281D01*
X-65828Y294709D01*
X-66477Y294978D01*
X-66673Y295004D01*
D02*
G37*
G36*
X-39327D02*
X-39523Y294978D01*
X-40172Y294709D01*
X-40730Y294281D01*
X-41158Y293724D01*
X-41427Y293075D01*
X-41518Y292378D01*
Y291500D01*
X-39327D01*
Y295004D01*
D02*
G37*
G36*
X-38327D02*
Y291500D01*
X-36135D01*
Y292378D01*
X-36227Y293075D01*
X-36496Y293724D01*
X-36924Y294281D01*
X-37481Y294709D01*
X-38130Y294978D01*
X-38327Y295004D01*
D02*
G37*
G36*
X-36135Y290500D02*
X-38327D01*
Y286996D01*
X-38130Y287022D01*
X-37481Y287291D01*
X-36924Y287719D01*
X-36496Y288276D01*
X-36227Y288925D01*
X-36135Y289622D01*
Y290500D01*
D02*
G37*
G36*
X39800Y282200D02*
X38350D01*
Y280500D01*
X39800D01*
Y282200D01*
D02*
G37*
G36*
X42250D02*
X40800D01*
Y280500D01*
X42250D01*
Y282200D01*
D02*
G37*
G36*
X90500Y283618D02*
Y280500D01*
X93618D01*
X93559Y280954D01*
X93191Y281842D01*
X92605Y282605D01*
X91842Y283191D01*
X90954Y283559D01*
X90500Y283618D01*
D02*
G37*
G36*
X66000Y281750D02*
X64300D01*
Y280300D01*
X66000D01*
Y281750D01*
D02*
G37*
G36*
X68700D02*
X67000D01*
Y280300D01*
X68700D01*
Y281750D01*
D02*
G37*
G36*
X-44929Y284710D02*
X-45761Y284544D01*
X-46467Y284073D01*
X-46855Y283491D01*
X-57618D01*
Y278558D01*
Y273627D01*
X-54540D01*
X-54482Y273486D01*
X-54760Y273071D01*
X-60500D01*
X-60500Y273071D01*
X-60910Y272989D01*
X-61257Y272757D01*
X-63257Y270757D01*
X-63489Y270410D01*
X-63571Y270000D01*
Y269373D01*
X-63579D01*
X-63623Y269150D01*
X-64700D01*
Y265250D01*
X-60300D01*
Y269150D01*
X-61183D01*
X-61374Y269612D01*
X-60057Y270929D01*
X-58172D01*
X-57936Y270489D01*
X-57989Y270410D01*
X-58071Y270000D01*
Y269373D01*
X-58079D01*
X-58123Y269150D01*
X-59200D01*
Y265250D01*
X-54800D01*
Y269150D01*
D01*
Y269150D01*
X-54521Y269429D01*
X-52500D01*
X-52090Y269511D01*
X-51743Y269743D01*
X-50235Y271251D01*
X-49757Y271106D01*
X-49696Y270798D01*
X-49298Y270202D01*
X-48702Y269804D01*
X-48000Y269665D01*
X-47298Y269804D01*
X-46702Y270202D01*
X-46304Y270798D01*
X-46165Y271500D01*
X-46304Y272202D01*
X-46404Y272351D01*
Y273627D01*
X-46395D01*
Y280419D01*
X-45954Y280655D01*
X-45761Y280526D01*
X-44929Y280361D01*
X-44097Y280526D01*
X-43392Y280998D01*
X-42920Y281703D01*
X-42755Y282535D01*
X-42920Y283368D01*
X-43392Y284073D01*
X-44097Y284544D01*
X-44929Y284710D01*
D02*
G37*
G36*
X58000Y285326D02*
X54257D01*
Y281976D01*
X58000D01*
Y285326D01*
D02*
G37*
G36*
X-67673Y290500D02*
X-69865D01*
Y289622D01*
X-69773Y288925D01*
X-69504Y288276D01*
X-69076Y287719D01*
X-68519Y287291D01*
X-67870Y287022D01*
X-67673Y286996D01*
Y290500D01*
D02*
G37*
G36*
X-64482D02*
X-66673D01*
Y286996D01*
X-66477Y287022D01*
X-65828Y287291D01*
X-65270Y287719D01*
X-64842Y288276D01*
X-64573Y288925D01*
X-64482Y289622D01*
Y290500D01*
D02*
G37*
G36*
X-39327D02*
X-41518D01*
Y289622D01*
X-41427Y288925D01*
X-41158Y288276D01*
X-40730Y287719D01*
X-40172Y287291D01*
X-39523Y287022D01*
X-39327Y286996D01*
Y290500D01*
D02*
G37*
G36*
X62743Y285326D02*
X59000D01*
Y281976D01*
X62743D01*
Y285326D01*
D02*
G37*
G36*
X51896Y288543D02*
X45378D01*
Y284977D01*
X47566D01*
Y282483D01*
X47356Y282342D01*
X46737Y282219D01*
X46720Y282222D01*
Y282222D01*
X46717Y282219D01*
X46709Y282221D01*
X46606Y282200D01*
X44750D01*
Y277800D01*
X48650D01*
Y280147D01*
X48671Y280250D01*
X48671D01*
X48665Y280258D01*
X48801Y280587D01*
X48817Y280603D01*
D01*
X48817D01*
Y280603D01*
D01*
X49331Y281117D01*
X49401Y281171D01*
D01*
X49402Y281172D01*
X49394Y281180D01*
X49626Y281527D01*
X49708Y281937D01*
X49708Y281937D01*
Y284977D01*
X51896D01*
Y288543D01*
D02*
G37*
G36*
X31097Y298881D02*
X-19097D01*
X-19569Y298787D01*
X-19663Y298769D01*
X-20143Y298448D01*
X-22282Y296309D01*
X-22288D01*
X-22288D01*
X-22316Y296275D01*
X-22346Y296245D01*
X-23075Y295686D01*
X-24003Y295301D01*
X-24989Y295171D01*
X-25000Y295181D01*
Y295181D01*
X-25143Y295153D01*
X-28653D01*
Y287847D01*
X-21347D01*
Y291357D01*
X-21319Y291500D01*
X-21319D01*
X-21329Y291511D01*
X-21199Y292497D01*
X-20814Y293425D01*
X-20255Y294154D01*
X-20225Y294184D01*
X-20191Y294212D01*
Y294212D01*
Y294218D01*
X-18485Y295924D01*
X30485D01*
X31696Y294713D01*
X32048Y294186D01*
X32175Y293550D01*
X32165Y293500D01*
X32304Y292798D01*
X32522Y292473D01*
Y288000D01*
X32634Y287434D01*
X32634Y287434D01*
X32634Y287434D01*
X32955Y286955D01*
X34195Y285714D01*
X34674Y285394D01*
X35240Y285281D01*
X37104D01*
Y284977D01*
X43622D01*
Y288364D01*
X43622Y288364D01*
D01*
D01*
X43622Y288543D01*
Y288564D01*
Y288630D01*
X43622Y288717D01*
D01*
X43622Y288896D01*
X43622Y288896D01*
X43622D01*
Y290000D01*
X40362D01*
Y291000D01*
X43622D01*
Y292104D01*
X43622Y292104D01*
D01*
D01*
X43622Y292283D01*
Y292304D01*
Y292370D01*
X43622Y292458D01*
D01*
X43622Y292636D01*
X43622Y292636D01*
X43622D01*
Y296023D01*
X37104D01*
Y295732D01*
X36632D01*
Y295732D01*
X36532Y295719D01*
X34872D01*
X33806Y296784D01*
X33749Y296859D01*
X33741Y296850D01*
X33741Y296850D01*
X32143Y298448D01*
X31663Y298769D01*
X31097Y298881D01*
D02*
G37*
G36*
X-26505Y240788D02*
X-27530Y239763D01*
X-26328Y238561D01*
X-25303Y239586D01*
X-26505Y240788D01*
D02*
G37*
G36*
X-61750Y210700D02*
X-65650D01*
Y208368D01*
X-65661Y208312D01*
X-65690Y208283D01*
D01*
D01*
X-65690Y208283D01*
D01*
X-65698Y208264D01*
Y208264D01*
D01*
D01*
X-65698D01*
X-65698D01*
Y208264D01*
Y208264D01*
X-65698Y208264D01*
X-65703Y208250D01*
X-65703Y208250D01*
X-65698Y208237D01*
Y208237D01*
X-65697Y208234D01*
X-66231Y207699D01*
X-66278Y207663D01*
X-66272Y207658D01*
X-66407Y207523D01*
X-68651D01*
Y207534D01*
X-68801Y207595D01*
X-68802Y207598D01*
X-69398Y207996D01*
X-70100Y208135D01*
X-70802Y207996D01*
X-71398Y207598D01*
X-71796Y207002D01*
X-71935Y206300D01*
X-71796Y205598D01*
X-71398Y205002D01*
X-70802Y204604D01*
X-70100Y204465D01*
X-69398Y204604D01*
X-68802Y205002D01*
X-68801Y205005D01*
X-68651Y205066D01*
Y205077D01*
X-65900D01*
X-65432Y205170D01*
X-65035Y205435D01*
X-64542Y205928D01*
X-64542Y205928D01*
X-64539Y205925D01*
X-64154Y206183D01*
X-63700Y206273D01*
Y206276D01*
X-63582Y206300D01*
X-61750D01*
Y210700D01*
D02*
G37*
G36*
X29970Y223263D02*
X28944Y222237D01*
X30146Y221035D01*
X31172Y222060D01*
X29970Y223263D01*
D02*
G37*
G36*
X53200Y212452D02*
X50500D01*
Y208252D01*
X53200D01*
Y212452D01*
D02*
G37*
G36*
Y207252D02*
X50500D01*
Y203052D01*
X53200D01*
Y207252D01*
D02*
G37*
G36*
X49500Y212452D02*
X46800D01*
Y208252D01*
X49500D01*
Y212452D01*
D02*
G37*
G36*
X59750Y185200D02*
X55850D01*
Y183705D01*
X55476Y183418D01*
X54384Y182966D01*
X54190Y182940D01*
X54092Y182953D01*
X53200Y183322D01*
Y184911D01*
X45800D01*
Y178589D01*
X53200D01*
Y180178D01*
X54092Y180547D01*
X55073Y180676D01*
X55135Y180670D01*
Y180679D01*
X56550D01*
X56571Y180684D01*
X56593Y180679D01*
Y180672D01*
X57443Y180784D01*
X57482Y180800D01*
X59750D01*
Y185200D01*
D02*
G37*
G36*
X-16500Y183750D02*
X-18200D01*
Y182300D01*
X-16500D01*
Y183750D01*
D02*
G37*
G36*
X-39000Y230700D02*
X-40700D01*
Y229250D01*
X-39000D01*
Y230700D01*
D02*
G37*
G36*
X-13800Y183750D02*
X-15500D01*
Y182300D01*
X-13800D01*
Y183750D01*
D02*
G37*
G36*
X18700D02*
X17000D01*
Y182300D01*
X18700D01*
Y183750D01*
D02*
G37*
G36*
X16000D02*
X14300D01*
Y182300D01*
X16000D01*
Y183750D01*
D02*
G37*
G36*
X49500Y207252D02*
X46800D01*
Y203052D01*
X49500D01*
Y207252D01*
D02*
G37*
G36*
X39000Y189500D02*
X35800D01*
Y186839D01*
X39000D01*
Y189500D01*
D02*
G37*
G36*
X43200D02*
X40000D01*
Y186839D01*
X43200D01*
Y189500D01*
D02*
G37*
G36*
X53200Y193161D02*
X45800D01*
Y186839D01*
X53200D01*
Y188428D01*
X54092Y188797D01*
X54464Y188846D01*
X54765Y188806D01*
X55649Y188440D01*
X55850Y188286D01*
Y186800D01*
X59750D01*
Y191200D01*
X55850D01*
Y191071D01*
X55619D01*
X55506Y191085D01*
Y191080D01*
X55135D01*
Y191080D01*
X55073Y191074D01*
X54092Y191203D01*
X53200Y191572D01*
Y193161D01*
D02*
G37*
G36*
X32200Y184650D02*
X30500D01*
Y183200D01*
X32200D01*
Y184650D01*
D02*
G37*
G36*
X80000Y186835D02*
X79298Y186696D01*
X78702Y186298D01*
X78304Y185702D01*
X78165Y185000D01*
X78164D01*
X78109Y184723D01*
X77952Y184488D01*
X77960Y184480D01*
X77963Y184477D01*
X77557Y184071D01*
X66373D01*
Y184079D01*
X66150Y184123D01*
Y185200D01*
X62250D01*
Y180800D01*
X66150D01*
Y181877D01*
X66373Y181921D01*
Y181922D01*
Y181929D01*
X78000D01*
X78410Y182011D01*
X78757Y182243D01*
X79477Y182963D01*
X79480Y182960D01*
X79488Y182952D01*
X79723Y183109D01*
X80000Y183164D01*
Y183165D01*
X80702Y183304D01*
X81298Y183702D01*
X81696Y184298D01*
X81835Y185000D01*
X81696Y185702D01*
X81298Y186298D01*
X80702Y186696D01*
X80000Y186835D01*
D02*
G37*
G36*
X39000Y193161D02*
X35800D01*
Y190500D01*
X39000D01*
Y193161D01*
D02*
G37*
G36*
X26700Y184650D02*
X25000D01*
Y183200D01*
X26700D01*
Y184650D01*
D02*
G37*
G36*
X24000D02*
X22300D01*
Y183200D01*
X24000D01*
Y184650D01*
D02*
G37*
G36*
X29500D02*
X27800D01*
Y183200D01*
X29500D01*
Y184650D01*
D02*
G37*
G36*
X43200Y193161D02*
X40000D01*
Y190500D01*
X43200D01*
Y193161D01*
D02*
G37*
G36*
X79500Y196835D02*
X78798Y196696D01*
X78202Y196298D01*
X77804Y195702D01*
X77665Y195000D01*
X77664D01*
X77609Y194723D01*
X77452Y194488D01*
X77460Y194480D01*
X77463Y194477D01*
X73057Y190071D01*
X66373D01*
Y190079D01*
X66150Y190123D01*
Y191200D01*
X62250D01*
Y186800D01*
X66150D01*
Y187877D01*
X66373Y187921D01*
Y187922D01*
Y187929D01*
X73500D01*
X73910Y188011D01*
X74257Y188243D01*
X74257Y188243D01*
X74257Y188243D01*
X78977Y192963D01*
X78980Y192960D01*
X78988Y192952D01*
X79223Y193109D01*
X79500Y193164D01*
Y193165D01*
X80202Y193304D01*
X80798Y193702D01*
X81196Y194298D01*
X81335Y195000D01*
X81196Y195702D01*
X80798Y196298D01*
X80202Y196696D01*
X79500Y196835D01*
D02*
G37*
G36*
X3500Y235736D02*
X3298Y235696D01*
X2702Y235298D01*
X2304Y234702D01*
X2264Y234500D01*
X3500D01*
Y235736D01*
D02*
G37*
G36*
X32200Y182200D02*
X30500D01*
Y180750D01*
X32200D01*
Y182200D01*
D02*
G37*
G36*
X29500D02*
X27800D01*
Y180750D01*
X29500D01*
Y182200D01*
D02*
G37*
G36*
X43200Y184911D02*
X40000D01*
Y182250D01*
X43200D01*
Y184911D01*
D02*
G37*
G36*
X39000D02*
X35800D01*
Y182250D01*
X39000D01*
Y184911D01*
D02*
G37*
G36*
X-4500Y235236D02*
Y234000D01*
X-3264D01*
X-3304Y234202D01*
X-3702Y234798D01*
X-4298Y235196D01*
X-4500Y235236D01*
D02*
G37*
G36*
X68000Y236250D02*
X66300D01*
Y234800D01*
X68000D01*
Y236250D01*
D02*
G37*
G36*
X70700D02*
X69000D01*
Y234800D01*
X70700D01*
Y236250D01*
D02*
G37*
G36*
X-28237Y239056D02*
X-29263Y238030D01*
X-28060Y236828D01*
X-27035Y237854D01*
X-28237Y239056D01*
D02*
G37*
G36*
X4500Y235736D02*
Y234500D01*
X5736D01*
X5696Y234702D01*
X5298Y235298D01*
X4702Y235696D01*
X4500Y235736D01*
D02*
G37*
G36*
X-50500Y238748D02*
X-53200D01*
Y234548D01*
X-50500D01*
Y238748D01*
D02*
G37*
G36*
X-46800D02*
X-49500D01*
Y234548D01*
X-46800D01*
Y238748D01*
D02*
G37*
G36*
X-5500Y233000D02*
X-6736D01*
X-6696Y232798D01*
X-6298Y232202D01*
X-5702Y231804D01*
X-5500Y231764D01*
Y233000D01*
D02*
G37*
G36*
X-3264D02*
X-4500D01*
Y231764D01*
X-4298Y231804D01*
X-3702Y232202D01*
X-3304Y232798D01*
X-3264Y233000D01*
D02*
G37*
G36*
X-36300Y233150D02*
X-38000D01*
Y231700D01*
X-36300D01*
Y233150D01*
D02*
G37*
G36*
Y230700D02*
X-38000D01*
Y229250D01*
X-36300D01*
Y230700D01*
D02*
G37*
G36*
X-39000Y233150D02*
X-40700D01*
Y231700D01*
X-39000D01*
Y233150D01*
D02*
G37*
G36*
X3500Y233500D02*
X2264D01*
X2304Y233298D01*
X2702Y232702D01*
X3298Y232304D01*
X3500Y232264D01*
Y233500D01*
D02*
G37*
G36*
X70700Y233800D02*
X69000D01*
Y232350D01*
X70700D01*
Y233800D01*
D02*
G37*
G36*
X68000D02*
X66300D01*
Y232350D01*
X68000D01*
Y233800D01*
D02*
G37*
G36*
X5736Y233500D02*
X4500D01*
Y232264D01*
X4702Y232304D01*
X5298Y232702D01*
X5696Y233298D01*
X5736Y233500D01*
D02*
G37*
G36*
X-5500Y235236D02*
X-5702Y235196D01*
X-6298Y234798D01*
X-6696Y234202D01*
X-6736Y234000D01*
X-5500D01*
Y235236D01*
D02*
G37*
%LPD*%
G36*
X13893Y228039D02*
X13856Y227855D01*
X13780Y227779D01*
X13277Y227679D01*
X12850Y227394D01*
X12564Y226967D01*
X12464Y226463D01*
X12388Y226387D01*
X11885Y226287D01*
X11458Y226002D01*
X11173Y225575D01*
X11073Y225071D01*
D01*
X10996Y224995D01*
X10493Y224895D01*
X10490Y224893D01*
X13856Y221527D01*
X13149Y220820D01*
X9783Y224186D01*
X9781Y224183D01*
X9680Y223679D01*
X9604Y223603D01*
X9101Y223503D01*
X8674Y223218D01*
X8389Y222791D01*
X8289Y222288D01*
X8212Y222211D01*
X7709Y222111D01*
X7282Y221826D01*
X6997Y221399D01*
X6897Y220896D01*
X6820Y220819D01*
D01*
X6317Y220719D01*
X5890Y220434D01*
X5605Y220007D01*
X5505Y219504D01*
X5429Y219428D01*
X4925Y219327D01*
X4498Y219042D01*
X4213Y218615D01*
X4113Y218112D01*
X4037Y218036D01*
X3533Y217935D01*
X3106Y217650D01*
X2821Y217223D01*
X2721Y216720D01*
X2645Y216644D01*
X2141Y216544D01*
X1714Y216258D01*
X1429Y215831D01*
X1368Y215525D01*
X897Y215356D01*
X683Y215532D01*
Y225185D01*
X1124Y225421D01*
X1298Y225304D01*
X1500Y225264D01*
Y227001D01*
X1999D01*
Y227500D01*
X3736D01*
X3696Y227702D01*
X3298Y228298D01*
X3336Y228425D01*
X13576D01*
X13893Y228039D01*
D02*
G37*
G36*
X7429Y255557D02*
Y254755D01*
X6016Y253342D01*
X5760Y253291D01*
X5333Y253006D01*
X322Y247994D01*
X250Y247886D01*
X-250D01*
X-322Y247994D01*
X-5333Y253006D01*
X-5760Y253291D01*
X-6016Y253342D01*
X-17342Y264668D01*
X-17151Y265129D01*
X-2143D01*
X7429Y255557D01*
D02*
G37*
G36*
X-1458Y216618D02*
X-1899Y216382D01*
X-1714Y216258D01*
X-1459Y215876D01*
Y215807D01*
X-4796Y212470D01*
D01*
X-4797Y212469D01*
X-4797Y212468D01*
D01*
X-8162Y209103D01*
X-8159Y209101D01*
X-8029Y208673D01*
X-8544Y208158D01*
X-8544Y208158D01*
X-8562Y208176D01*
X-8676Y208026D01*
X-9710Y206993D01*
X-9914Y207197D01*
X-12672Y204439D01*
X-9561Y201328D01*
X-6803Y204086D01*
X-7849Y205133D01*
X-7835Y205246D01*
X-7523Y205997D01*
X-7028Y206643D01*
X-7030Y206645D01*
X-7030Y206645D01*
X-6016Y207658D01*
X-5760Y207709D01*
X-5333Y207995D01*
X-322Y213005D01*
X-250Y213114D01*
X250D01*
X322Y213005D01*
X2688Y210640D01*
Y209702D01*
X-7765Y199249D01*
X-8243Y199394D01*
X-8164Y199000D01*
X-8202Y198812D01*
X-8514Y198500D01*
X-10001D01*
Y198999D01*
X-10500D01*
Y200736D01*
X-10702Y200696D01*
X-11298Y200298D01*
X-11386Y200165D01*
X-11884Y200116D01*
X-12530Y200763D01*
X-13908Y199384D01*
D01*
X-13909Y199384D01*
X-13910Y199383D01*
D01*
X-15288Y198005D01*
X-15116Y197833D01*
X-15307Y197371D01*
X-21700D01*
X-22110Y197289D01*
X-22457Y197057D01*
X-40152Y179362D01*
X-40752Y178961D01*
X-41443Y178824D01*
X-41500Y178835D01*
X-41608Y179378D01*
X-17557Y203429D01*
X-16256D01*
X-15847Y203511D01*
X-15499Y203743D01*
X-9299Y209943D01*
X-8871Y209813D01*
X-8869Y209810D01*
X-5504Y213175D01*
D01*
X-5504Y213176D01*
X-5503Y213177D01*
D01*
X-2138Y216542D01*
X-2141Y216544D01*
X-2645Y216644D01*
X-2721Y216720D01*
X-2821Y217223D01*
X-3106Y217650D01*
X-3533Y217935D01*
X-4037Y218036D01*
X-4113Y218112D01*
X-4213Y218615D01*
X-4498Y219042D01*
X-4925Y219327D01*
X-5429Y219428D01*
D01*
X-5505Y219504D01*
X-5605Y220007D01*
X-5890Y220434D01*
X-6317Y220719D01*
X-6820Y220819D01*
X-6897Y220896D01*
X-6997Y221399D01*
X-7282Y221826D01*
X-7709Y222111D01*
X-8212Y222211D01*
X-8289Y222288D01*
X-8389Y222791D01*
X-8674Y223218D01*
X-9101Y223503D01*
X-9604Y223603D01*
X-9680Y223679D01*
D01*
X-9781Y224183D01*
X-10066Y224610D01*
X-10493Y224895D01*
X-10996Y224995D01*
X-11073Y225071D01*
X-11173Y225575D01*
X-11458Y226002D01*
X-11885Y226287D01*
X-12388Y226387D01*
X-12464Y226463D01*
X-12565Y226967D01*
X-12850Y227394D01*
X-13277Y227679D01*
X-13780Y227779D01*
X-13856Y227855D01*
X-13957Y228359D01*
X-13921Y228425D01*
X-1458D01*
Y216618D01*
D02*
G37*
%LPC*%
G36*
X-6500Y263736D02*
Y262500D01*
X-5264D01*
X-5304Y262702D01*
X-5702Y263298D01*
X-6298Y263696D01*
X-6500Y263736D01*
D02*
G37*
G36*
X-4000Y227236D02*
Y226000D01*
X-2764D01*
X-2804Y226202D01*
X-3202Y226798D01*
X-3798Y227196D01*
X-4000Y227236D01*
D02*
G37*
G36*
X-5000D02*
X-5202Y227196D01*
X-5798Y226798D01*
X-6196Y226202D01*
X-6236Y226000D01*
X-5000D01*
Y227236D01*
D02*
G37*
G36*
X-7500Y261500D02*
X-8736D01*
X-8696Y261298D01*
X-8298Y260702D01*
X-7702Y260304D01*
X-7500Y260264D01*
Y261500D01*
D02*
G37*
G36*
X-5264D02*
X-6500D01*
Y260264D01*
X-6298Y260304D01*
X-5702Y260702D01*
X-5304Y261298D01*
X-5264Y261500D01*
D02*
G37*
G36*
X-7500Y263736D02*
X-7702Y263696D01*
X-8298Y263298D01*
X-8696Y262702D01*
X-8736Y262500D01*
X-7500D01*
Y263736D01*
D02*
G37*
G36*
X-14439Y202672D02*
X-15465Y201646D01*
X-14263Y200444D01*
X-13237Y201470D01*
X-14439Y202672D01*
D02*
G37*
G36*
X-9500Y200736D02*
Y199500D01*
X-8264D01*
X-8304Y199702D01*
X-8702Y200298D01*
X-9298Y200696D01*
X-9500Y200736D01*
D02*
G37*
G36*
X-16172Y200939D02*
X-17197Y199914D01*
X-15995Y198712D01*
X-14970Y199737D01*
X-16172Y200939D01*
D02*
G37*
G36*
X3736Y226500D02*
X2500D01*
Y225264D01*
X2702Y225304D01*
X3298Y225702D01*
X3696Y226298D01*
X3736Y226500D01*
D02*
G37*
G36*
X-2764Y225000D02*
X-4000D01*
Y223764D01*
X-3798Y223804D01*
X-3202Y224202D01*
X-2804Y224798D01*
X-2764Y225000D01*
D02*
G37*
G36*
X-5000D02*
X-6236D01*
X-6196Y224798D01*
X-5798Y224202D01*
X-5202Y223804D01*
X-5000Y223764D01*
Y225000D01*
D02*
G37*
%LPD*%
D10*
X73946Y244494D02*
G03*
X72800Y245000I-1146J-1046D01*
G01*
D02*
G03*
X73946Y245506I0J1551D01*
G01*
X-19896Y92594D02*
G03*
X-18383Y92717I684J953D01*
G01*
X-19488Y93162D02*
G03*
X-17800Y93300I763J1062D01*
G01*
X22960Y150460D02*
G03*
X21693Y150984I-1267J-1267D01*
G01*
X22465Y149965D02*
G03*
X20003Y150984I-2461J-2461D01*
G01*
X21970Y149470D02*
G03*
X18313Y150984I-3656J-3656D01*
G01*
X-26470Y249530D02*
G03*
X-25189Y249000I1280J1280D01*
G01*
D02*
G03*
X-26470Y248470I0J-1811D01*
G01*
X-34970Y246530D02*
G03*
X-33689Y246000I1280J1280D01*
G01*
D02*
G03*
X-34970Y245470I0J-1811D01*
G01*
X-37970Y243530D02*
G03*
X-36689Y243000I1280J1280D01*
G01*
D02*
G03*
X-37970Y242470I0J-1811D01*
G01*
X23910Y246038D02*
G03*
X22960Y246500I-950J-744D01*
G01*
D02*
G03*
X23910Y246962I0J1206D01*
G01*
X23458Y242481D02*
G03*
X22244Y243000I-1215J-1163D01*
G01*
D02*
G03*
X23458Y243519I0J1681D01*
G01*
X23322Y239180D02*
G03*
X22028Y240000I-1294J-611D01*
G01*
X-26470Y253530D02*
G03*
X-25189Y253000I1280J1280D01*
G01*
D02*
G03*
X-26470Y252470I0J-1811D01*
G01*
X21970Y202970D02*
G03*
X20689Y203500I-1280J-1280D01*
G01*
D02*
G03*
X21970Y204030I0J1811D01*
G01*
X26465Y205465D02*
G03*
X25172Y206000I-1292J-1292D01*
G01*
X25970Y204970D02*
G03*
X23482Y206000I-2487J-2487D01*
G01*
X29470Y207470D02*
G03*
X28189Y208000I-1280J-1280D01*
G01*
D02*
G03*
X29470Y208530I0J1811D01*
G01*
X33970Y209970D02*
G03*
X32689Y210500I-1280J-1280D01*
G01*
D02*
G03*
X33970Y211030I0J1811D01*
G01*
X14100Y260560D02*
G03*
X13203Y262727I-3064J0D01*
G01*
X14100Y258870D02*
G03*
X12708Y262232I-4754J0D01*
G01*
X12488Y262762D02*
G03*
X11958Y264042I-1811J0D01*
G01*
D02*
G03*
X13238Y263512I1280J1280D01*
G01*
X-4921Y158155D02*
G03*
X-4460Y157040I1576J0D01*
G01*
X-4921Y159845D02*
G03*
X-3965Y157535I3266J0D01*
G01*
X-4921Y161535D02*
G03*
X-3470Y158030I4956J0D01*
G01*
X-9535Y154535D02*
G03*
X-8858Y156170I-1635J1635D01*
G01*
X-10030Y155030D02*
G03*
X-8858Y157860I-2830J2830D01*
G01*
X-7970Y147030D02*
G03*
X-6689Y146500I1280J1280D01*
G01*
D02*
G03*
X-7970Y145970I0J-1811D01*
G01*
X-10530Y198470D02*
G03*
X-11811Y199000I-1280J-1280D01*
G01*
D02*
G03*
X-10530Y199530I0J1811D01*
G01*
X-24733Y256625D02*
G03*
X-26000Y257150I-1267J-1267D01*
G01*
X-23539Y255430D02*
G03*
X-26000Y256450I-2461J-2461D01*
G01*
X-22343Y254235D02*
G03*
X-26000Y255750I-3656J-3656D01*
G01*
X37470Y212970D02*
G03*
X36189Y213500I-1280J-1280D01*
G01*
D02*
G03*
X37470Y214030I0J1811D01*
G01*
X40470Y211530D02*
G03*
X41000Y212811I-1280J1280D01*
G01*
D02*
G03*
X41530Y211530I1811J0D01*
G01*
X43470Y209030D02*
G03*
X44000Y210311I-1280J1280D01*
G01*
D02*
G03*
X44530Y209030I1811J0D01*
G01*
X-59030Y256530D02*
G03*
X-58500Y257811I-1280J1280D01*
G01*
D02*
G03*
X-57970Y256530I1811J0D01*
G01*
X-62500Y257328D02*
G03*
X-61965Y256035I1828J0D01*
G01*
X-62500Y259018D02*
G03*
X-61470Y256530I3518J0D01*
G01*
X-7970Y150530D02*
G03*
X-6689Y150000I1280J1280D01*
G01*
D02*
G03*
X-7970Y149470I0J-1811D01*
G01*
X-37750Y219500D02*
G03*
X-37220Y218220I1811J0D01*
G01*
D02*
G03*
X-38500Y218750I-1280J-1280D01*
G01*
X-34465Y220535D02*
G03*
X-33172Y220000I1292J1292D01*
G01*
X-33970Y221030D02*
G03*
X-31482Y220000I2487J2487D01*
G01*
X-30970Y223030D02*
G03*
X-29689Y222500I1280J1280D01*
G01*
D02*
G03*
X-30970Y221970I0J-1811D01*
G01*
X-29460Y224540D02*
G03*
X-28155Y224000I1305J1305D01*
G01*
X-28965Y225035D02*
G03*
X-26465Y224000I2500J2500D01*
G01*
X-28470Y225530D02*
G03*
X-24775Y224000I3695J3695D01*
G01*
X-22950Y177000D02*
G03*
X-22208Y175207I2535J0D01*
G01*
X-22250Y177000D02*
G03*
X-21013Y174013I4225J0D01*
G01*
X-43134Y174866D02*
G03*
X-42250Y177000I-2134J2134D01*
G01*
X-41500Y177750D02*
G03*
X-39366Y178634I0J3018D01*
G01*
X-46634Y175866D02*
G03*
X-45750Y178000I-2134J2134D01*
G01*
X-45000Y178750D02*
G03*
X-42866Y179634I0J3018D01*
G01*
X-63134Y163866D02*
G03*
X-62250Y166000I-2134J2134D01*
G01*
X-61500Y166750D02*
G03*
X-59366Y167634I0J3018D01*
G01*
X-58585Y171665D02*
G03*
X-59865Y171135I0J-1811D01*
G01*
D02*
G03*
X-59335Y172415I-1280J1280D01*
G01*
X-58585Y173165D02*
G03*
X-57305Y173695I0J1811D01*
G01*
D02*
G03*
X-57835Y172415I1280J-1280D01*
G01*
X-48809Y191441D02*
G03*
X-50089Y190911I0J-1811D01*
G01*
D02*
G03*
X-49559Y192191I-1280J1280D01*
G01*
X-48809Y192941D02*
G03*
X-47529Y193471I0J1811D01*
G01*
D02*
G03*
X-48059Y192191I1280J-1280D01*
G01*
X-51221Y185529D02*
G03*
X-49940Y186060I0J1811D01*
G01*
D02*
G03*
X-50471Y184779I1280J-1280D01*
G01*
X-51221Y184029D02*
G03*
X-52501Y183499I0J-1811D01*
G01*
D02*
G03*
X-51971Y184779I-1280J1280D01*
G01*
X-20530Y179970D02*
G03*
X-21407Y180333I-876J-876D01*
G01*
X-22215D02*
G03*
X-20530Y181030I0J2382D01*
G01*
X80000Y184250D02*
G03*
X78720Y183720I0J-1811D01*
G01*
D02*
G03*
X79250Y185000I-1280J1280D01*
G01*
X79500Y194250D02*
G03*
X78220Y193720I0J-1811D01*
G01*
D02*
G03*
X78750Y195000I-1280J1280D01*
G01*
X-12530Y96530D02*
G03*
X-11967Y97891I-1361J1361D01*
G01*
Y97730D02*
G03*
X-11470Y96530I1697J0D01*
G01*
X-28970Y95470D02*
G03*
X-29500Y94189I1280J-1280D01*
G01*
D02*
G03*
X-30030Y95470I-1811J0D01*
G01*
Y96530D02*
G03*
X-29467Y97891I-1361J1361D01*
G01*
Y97730D02*
G03*
X-28970Y96530I1697J0D01*
G01*
X-44207Y121400D02*
G03*
X-46465Y120465I0J-3193D01*
G01*
X-42517Y121400D02*
G03*
X-45970Y119970I0J-4883D01*
G01*
X-48030Y97030D02*
G03*
X-47300Y98794I-1763J1763D01*
G01*
Y97828D02*
G03*
X-46970Y97030I1128J0D01*
G01*
X-52771Y90271D02*
G03*
X-53302Y88991I1280J-1280D01*
G01*
D02*
G03*
X-53832Y90271I-1811J0D01*
G01*
X-53000Y121250D02*
G03*
X-51720Y121780I0J1811D01*
G01*
D02*
G03*
X-52250Y120500I1280J-1280D01*
G01*
Y95980D02*
G03*
X-51720Y94700I1811J0D01*
G01*
D02*
G03*
X-53000Y95230I-1280J-1280D01*
G01*
X-53530Y96510D02*
G03*
X-53300Y97066I-556J556D01*
G01*
Y98515D02*
G03*
X-52470Y96510I2835J0D01*
G01*
X40030Y119470D02*
G03*
X39498Y118186I1284J-1284D01*
G01*
Y118193D02*
G03*
X38970Y119470I-1805J0D01*
G01*
X23250Y135500D02*
G03*
X23780Y134220I1811J0D01*
G01*
D02*
G03*
X22500Y134750I-1280J-1280D01*
G01*
X-16250Y177000D02*
G03*
X-15720Y175720I1811J0D01*
G01*
D02*
G03*
X-17000Y176250I-1280J-1280D01*
G01*
X-90000Y101903D02*
G03*
X-86752Y103248I0J4594D01*
G01*
X-90000Y102603D02*
G03*
X-85557Y104443I0J6284D01*
G01*
X-86752Y103248D02*
G03*
X-88097Y100000I3248J-3248D01*
G01*
X-85557Y104443D02*
G03*
X-87397Y100000I4443J-4443D01*
G01*
X-90000Y111903D02*
G03*
X-86752Y113248I0J4594D01*
G01*
X-90000Y112603D02*
G03*
X-85557Y114443I0J6284D01*
G01*
X-86752Y113248D02*
G03*
X-88097Y110000I3248J-3248D01*
G01*
X-85557Y114443D02*
G03*
X-87397Y110000I4443J-4443D01*
G01*
X-90000Y121903D02*
G03*
X-86752Y123248I0J4594D01*
G01*
X-90000Y122603D02*
G03*
X-85557Y124443I0J6284D01*
G01*
X-86752Y123248D02*
G03*
X-88097Y120000I3248J-3248D01*
G01*
X-85557Y124443D02*
G03*
X-87397Y120000I4443J-4443D01*
G01*
X-90000Y131903D02*
G03*
X-86752Y133248I0J4594D01*
G01*
X-90000Y132603D02*
G03*
X-85557Y134443I0J6284D01*
G01*
X-86752Y133248D02*
G03*
X-88097Y130000I3248J-3248D01*
G01*
X-85557Y134443D02*
G03*
X-87397Y130000I4443J-4443D01*
G01*
X-90000Y141903D02*
G03*
X-88459Y142541I0J2179D01*
G01*
X-90000Y142603D02*
G03*
X-87264Y143736I0J3869D01*
G01*
X-88435Y142565D02*
G03*
X-89497Y140000I2565J-2565D01*
G01*
X-87240Y143760D02*
G03*
X-88797Y140000I3760J-3760D01*
G01*
X-86045Y144955D02*
G03*
X-88097Y140000I4955J-4955D01*
G01*
X-84850Y146150D02*
G03*
X-87397Y140000I6150J-6150D01*
G01*
X-87620Y151054D02*
G03*
X-86000Y150000I1620J718D01*
G01*
D02*
G03*
X-87620Y148946I0J-1772D01*
G01*
X-88655Y161346D02*
G03*
X-85406Y160000I3248J3248D01*
G01*
X-88160Y161840D02*
G03*
X-83716Y160000I4443J4443D01*
G01*
X-85406D02*
G03*
X-88655Y158654I0J-4594D01*
G01*
X-83716Y160000D02*
G03*
X-88160Y158160I0J-6284D01*
G01*
X-88655Y171345D02*
G03*
X-85406Y170000I3248J3248D01*
G01*
X-88160Y171840D02*
G03*
X-83716Y170000I4443J4443D01*
G01*
X-85406D02*
G03*
X-88655Y168655I0J-4594D01*
G01*
X-83716Y170000D02*
G03*
X-88160Y168160I0J-6284D01*
G01*
X-90000Y181903D02*
G03*
X-86752Y183248I0J4594D01*
G01*
X-90000Y182603D02*
G03*
X-85557Y184443I0J6284D01*
G01*
X-86752Y183248D02*
G03*
X-88097Y180000I3248J-3248D01*
G01*
X-85557Y184443D02*
G03*
X-87397Y180000I4443J-4443D01*
G01*
X-90000Y191903D02*
G03*
X-86752Y193248I0J4594D01*
G01*
X-90000Y192603D02*
G03*
X-85557Y194443I0J6284D01*
G01*
X-86752Y193248D02*
G03*
X-88097Y190000I3248J-3248D01*
G01*
X-85557Y194443D02*
G03*
X-87397Y190000I4443J-4443D01*
G01*
X-90000Y201903D02*
G03*
X-86752Y203248I0J4594D01*
G01*
X-90000Y202603D02*
G03*
X-85557Y204443I0J6284D01*
G01*
X-86752Y203248D02*
G03*
X-88097Y200000I3248J-3248D01*
G01*
X-85557Y204443D02*
G03*
X-87397Y200000I4443J-4443D01*
G01*
X-88525Y211202D02*
G03*
X-85994Y210000I2531J2064D01*
G01*
X-87983Y211645D02*
G03*
X-84520Y210000I3463J2823D01*
G01*
X-85994D02*
G03*
X-88525Y208798I0J-3266D01*
G01*
X-84520Y210000D02*
G03*
X-87983Y208355I0J-4468D01*
G01*
X-88365Y220974D02*
G03*
X-86652Y220000I1714J1021D01*
G01*
X-87764Y221332D02*
G03*
X-85420Y220000I2344J1397D01*
G01*
X-86652D02*
G03*
X-88365Y219026I0J-1995D01*
G01*
X-85420Y220000D02*
G03*
X-87764Y218668I0J-2729D01*
G01*
X-88655Y231345D02*
G03*
X-85406Y230000I3248J3248D01*
G01*
X-88160Y231840D02*
G03*
X-83716Y230000I4443J4443D01*
G01*
X-85406D02*
G03*
X-88655Y228655I0J-4594D01*
G01*
X-83716Y230000D02*
G03*
X-88160Y228160I0J-6284D01*
G01*
X-88655Y241345D02*
G03*
X-85406Y240000I3248J3248D01*
G01*
X-88160Y241840D02*
G03*
X-83716Y240000I4443J4443D01*
G01*
X-85406D02*
G03*
X-88655Y238655I0J-4594D01*
G01*
X-83716Y240000D02*
G03*
X-88160Y238160I0J-6284D01*
G01*
X-88655Y251345D02*
G03*
X-85406Y250000I3248J3248D01*
G01*
X-88160Y251840D02*
G03*
X-83716Y250000I4443J4443D01*
G01*
X-85406D02*
G03*
X-88655Y248655I0J-4594D01*
G01*
X-83716Y250000D02*
G03*
X-88160Y248160I0J-6284D01*
G01*
X-39256Y81255D02*
G03*
X-38302Y83559I-2305J2305D01*
G01*
X-39751Y81750D02*
G03*
X-38302Y85249I-3500J3500D01*
G01*
X-40246Y82244D02*
G03*
X-38302Y86939I-4695J4695D01*
G01*
Y83559D02*
G03*
X-37347Y81255I3259J0D01*
G01*
X-38302Y85249D02*
G03*
X-36852Y81750I4949J0D01*
G01*
X-38302Y86939D02*
G03*
X-36357Y82244I6639J0D01*
G01*
X-34256Y71255D02*
G03*
X-33302Y73559I-2305J2305D01*
G01*
X-34751Y71750D02*
G03*
X-33302Y75249I-3500J3500D01*
G01*
X-35246Y72245D02*
G03*
X-33302Y76939I-4695J4695D01*
G01*
Y73559D02*
G03*
X-32347Y71255I3259J0D01*
G01*
X-33302Y75249D02*
G03*
X-31852Y71750I4949J0D01*
G01*
X-33302Y76939D02*
G03*
X-31357Y72245I6639J0D01*
G01*
X-29256Y81255D02*
G03*
X-28302Y83559I-2305J2305D01*
G01*
X-29751Y81750D02*
G03*
X-28302Y85249I-3500J3500D01*
G01*
X-30246Y82244D02*
G03*
X-28302Y86939I-4695J4695D01*
G01*
Y83559D02*
G03*
X-27347Y81255I3259J0D01*
G01*
X-28302Y85249D02*
G03*
X-26852Y81750I4949J0D01*
G01*
X-28302Y86939D02*
G03*
X-26357Y82244I6639J0D01*
G01*
X-61865Y26259D02*
G03*
X-58240Y27760I0J5126D01*
G01*
X-61865Y26959D02*
G03*
X-57045Y28955I0J6816D01*
G01*
X-61865Y27659D02*
G03*
X-55850Y30150I0J8506D01*
G01*
X-61865Y28359D02*
G03*
X-54655Y31345I0J10196D01*
G01*
X-58200Y27800D02*
G03*
X-59315Y25109I2692J-2692D01*
G01*
X-57005Y28995D02*
G03*
X-58615Y25109I3887J-3887D01*
G01*
X-11010Y26417D02*
G03*
X-9702Y29575I-3158J3158D01*
G01*
X-11505Y26912D02*
G03*
X-9702Y31265I-4353J4353D01*
G01*
X-12000Y27407D02*
G03*
X-9702Y32955I-5548J5548D01*
G01*
Y29575D02*
G03*
X-8393Y26417I4466J0D01*
G01*
X-9702Y31265D02*
G03*
X-7898Y26912I6156J0D01*
G01*
X-9702Y32955D02*
G03*
X-7403Y27407I7846J0D01*
G01*
X-54256Y71255D02*
G03*
X-53302Y73559I-2305J2305D01*
G01*
X-54751Y71750D02*
G03*
X-53302Y75249I-3500J3500D01*
G01*
X-55246Y72245D02*
G03*
X-53302Y76939I-4695J4695D01*
G01*
Y73559D02*
G03*
X-52347Y71255I3259J0D01*
G01*
X-53302Y75249D02*
G03*
X-51852Y71750I4949J0D01*
G01*
X-53302Y76939D02*
G03*
X-51357Y72245I6639J0D01*
G01*
X-49256Y81255D02*
G03*
X-48302Y83559I-2305J2305D01*
G01*
X-49751Y81750D02*
G03*
X-48302Y85249I-3500J3500D01*
G01*
X-50246Y82244D02*
G03*
X-48302Y86939I-4695J4695D01*
G01*
Y83559D02*
G03*
X-47347Y81255I3259J0D01*
G01*
X-48302Y85249D02*
G03*
X-46852Y81750I4949J0D01*
G01*
X-48302Y86939D02*
G03*
X-46357Y82244I6639J0D01*
G01*
X25779Y63580D02*
G03*
X26506Y65335I-1755J1755D01*
G01*
D02*
G03*
X27233Y63580I2482J0D01*
G01*
X30110D02*
G03*
X30837Y65335I-1755J1755D01*
G01*
D02*
G03*
X31564Y63580I2482J0D01*
G01*
X38772D02*
G03*
X39498Y65335I-1755J1755D01*
G01*
D02*
G03*
X40225Y63580I2482J0D01*
G01*
X-52691Y274805D02*
G03*
X-53000Y274058I747J-747D01*
G01*
D02*
G03*
X-53309Y274805I-1056J0D01*
G01*
X-50132D02*
G03*
X-50441Y274058I747J-747D01*
G01*
D02*
G03*
X-50750Y274805I-1056J0D01*
G01*
X26446Y262049D02*
G03*
X25263Y259192I2856J-2856D01*
G01*
X26941Y261554D02*
G03*
X25263Y257502I4051J-4051D01*
G01*
Y260099D02*
G03*
X24250Y262544I-3458J0D01*
G01*
X25263Y258409D02*
G03*
X23755Y262049I-5148J0D01*
G01*
X25263Y256719D02*
G03*
X23260Y261554I-6838J0D01*
G01*
X42727Y252419D02*
G03*
X44121Y251141I1394J121D01*
G01*
X43424Y252480D02*
G03*
X44884Y251141I1460J127D01*
G01*
X44426D02*
G03*
X42671Y250414I0J-2482D01*
G01*
X38249Y249672D02*
G03*
X34702Y251141I-3547J-3547D01*
G01*
X37753Y249177D02*
G03*
X33012Y251141I-4742J-4742D01*
G01*
X37258Y248682D02*
G03*
X31322Y251141I-5937J-5937D01*
G01*
X36764Y248187D02*
G03*
X29632Y251141I-7132J-7132D01*
G01*
X35009D02*
G03*
X36764Y251868I0J2482D01*
G01*
X-6797Y182228D02*
G03*
X-6210Y180810I2006J0D01*
G01*
X-5517Y180117D02*
G03*
X-9400Y181726I-3883J-3883D01*
G01*
X-4322Y178922D02*
G03*
X-9400Y181026I-5078J-5078D01*
G01*
X-3127Y177727D02*
G03*
X-9400Y180326I-6273J-6273D01*
G01*
X-1932Y176532D02*
G03*
X-9400Y179626I-7468J-7468D01*
G01*
Y188374D02*
G03*
X-8419Y188781I0J1387D01*
G01*
X-8303Y188898D02*
G03*
X-9597Y185772I3126J-3126D01*
G01*
X-7107Y190093D02*
G03*
X-8897Y185772I4321J-4321D01*
G01*
X-5912Y191288D02*
G03*
X-8197Y185772I5516J-5516D01*
G01*
X-4718Y192482D02*
G03*
X-7497Y185772I6711J-6711D01*
G01*
X-3523Y193677D02*
G03*
X-6797Y185772I7906J-7906D01*
G01*
X-12003D02*
G03*
X-12590Y187190I-2006J0D01*
G01*
X9600Y181822D02*
G03*
X6053Y180353I0J-5016D01*
G01*
X9600Y181122D02*
G03*
X4858Y179158I0J-6706D01*
G01*
X9600Y180422D02*
G03*
X3663Y177963I0J-8396D01*
G01*
X9600Y179722D02*
G03*
X2468Y176769I0J-10086D01*
G01*
X6270Y180570D02*
G03*
X6997Y182325I-1755J1755D01*
G01*
X9797Y185475D02*
G03*
X8434Y188766I-4654J0D01*
G01*
X9097Y185475D02*
G03*
X7239Y189961I-6344J0D01*
G01*
X8397Y185475D02*
G03*
X6044Y191156I-8034J0D01*
G01*
X7697Y185475D02*
G03*
X4849Y192351I-9724J0D01*
G01*
X6997Y185475D02*
G03*
X3654Y193546I-11414J0D01*
G01*
X8785Y188415D02*
G03*
X9600Y188078I815J815D01*
G01*
X10176Y186531D02*
G03*
X12577Y186877I969J1777D01*
G01*
X10511Y187145D02*
G03*
X13238Y187538I1101J2019D01*
G01*
X10846Y187760D02*
G03*
X13900Y188200I1233J2261D01*
G01*
X12930Y187230D02*
G03*
X12203Y185475I1755J-1755D01*
G01*
X-36186Y99664D02*
G03*
X-37723Y100300I-1536J-1536D01*
G01*
D02*
G03*
X-36186Y100936I0J2173D01*
G01*
X-7020Y99664D02*
G03*
X-8556Y100300I-1536J-1536D01*
G01*
D02*
G03*
X-7020Y100936I0J2173D01*
G01*
X-17164Y99664D02*
G03*
X-17800Y98127I1536J-1536D01*
G01*
D02*
G03*
X-18436Y99664I-2173J0D01*
G01*
X-16914Y107336D02*
G03*
X-15377Y106700I1536J1536D01*
G01*
D02*
G03*
X-16914Y106064I0J-2173D01*
G01*
X-18950Y106700D02*
G03*
X-19480Y107980I-1811J0D01*
G01*
X-19842Y108343D02*
G03*
X-18050Y107600I1792J1792D01*
G01*
X-22997Y99664D02*
G03*
X-23633Y98127I1536J-1536D01*
G01*
D02*
G03*
X-24270Y99664I-2173J0D01*
G01*
X-22997D02*
G03*
X-23633Y98127I1536J-1536D01*
G01*
D02*
G03*
X-24270Y99664I-2173J0D01*
G01*
X-24520Y106064D02*
G03*
X-26056Y106700I-1536J-1536D01*
G01*
D02*
G03*
X-24520Y107336I0J2173D01*
G01*
X-23383Y107600D02*
G03*
X-22274Y108060I0J1569D01*
G01*
X-21900Y108433D02*
G03*
X-22488Y106789I1443J-1443D01*
G01*
X32164Y138864D02*
G03*
X30627Y139500I-1536J-1536D01*
G01*
D02*
G03*
X32164Y140136I0J2173D01*
G01*
Y150864D02*
G03*
X30627Y151500I-1536J-1536D01*
G01*
D02*
G03*
X32164Y152136I0J2173D01*
G01*
X-38750Y223900D02*
G03*
X-39860Y223440I0J-1569D01*
G01*
X-40463Y222837D02*
G03*
X-39650Y224800I-1963J1963D01*
G01*
X67614Y240064D02*
G03*
X66077Y240700I-1536J-1536D01*
G01*
D02*
G03*
X67614Y241336I0J2173D01*
G01*
X68750Y241600D02*
G03*
X69860Y242060I0J1569D01*
G01*
X70463Y242663D02*
G03*
X69650Y240700I1963J-1963D01*
G01*
X-27424Y240222D02*
G03*
X-26314Y239763I1110J1110D01*
G01*
X-25461D02*
G03*
X-27424Y238950I0J-2776D01*
G01*
X-31686Y235061D02*
G03*
X-31050Y233524I2173J0D01*
G01*
X-31050Y233524D02*
G03*
X-32586Y234160I-1536J-1536D01*
G01*
X-8982Y206206D02*
G03*
X-9714Y204439I1767J-1767D01*
G01*
X-7787Y207401D02*
G03*
X-9014Y204439I2962J-2962D01*
G01*
X-14086Y199560D02*
G03*
X-13500Y200975I-1415J1415D01*
G01*
X-14581Y200056D02*
G03*
X-13500Y202665I-2610J2610D01*
G01*
X-15076Y200550D02*
G03*
X-13500Y204355I-3805J3805D01*
G01*
X-13945Y199702D02*
G03*
X-12250Y199000I1695J1695D01*
G01*
X-13450Y200197D02*
G03*
X-10560Y199000I2889J2889D01*
G01*
X28237Y221337D02*
G03*
X26701Y220701I0J-2173D01*
G01*
X26701Y220701D02*
G03*
X27337Y222237I-1536J1536D01*
G01*
X6055Y270581D02*
G03*
X7458Y270000I1402J1402D01*
G01*
X6550Y271076D02*
G03*
X9148Y270000I2598J2598D01*
G01*
X11163Y265737D02*
G03*
X11799Y264201I2173J0D01*
G01*
X11799Y264201D02*
G03*
X10263Y264837I-1536J-1536D01*
G01*
X-15109Y188832D02*
G03*
X-13600Y188200I1509J1486D01*
G01*
D02*
G03*
X-15109Y187568I0J-2118D01*
G01*
X15614Y187564D02*
G03*
X14077Y188200I-1536J-1536D01*
G01*
D02*
G03*
X15614Y188836I0J2173D01*
G01*
X25576Y270950D02*
G03*
X25263Y270194I756J-756D01*
G01*
Y270323D02*
G03*
X24798Y271445I-1586J0D01*
G01*
X25263Y268633D02*
G03*
X24303Y270950I-3276J0D01*
G01*
X45686Y249440D02*
G03*
X45050Y250976I-2173J0D01*
G01*
X45050Y250976D02*
G03*
X46586Y250340I1536J1536D01*
G01*
X46709Y281150D02*
G03*
X48637Y281937I27J2687D01*
G01*
X48060Y281360D02*
G03*
X47600Y280250I1110J-1110D01*
G01*
X26952Y77099D02*
G03*
X26506Y76024I1075J-1075D01*
G01*
X27446Y76604D02*
G03*
X26506Y74334I2270J-2270D01*
G01*
X27941Y76109D02*
G03*
X26506Y72644I3465J-3465D01*
G01*
X28436Y75614D02*
G03*
X26506Y70954I4660J-4660D01*
G01*
X32164Y144864D02*
G03*
X30627Y145500I-1536J-1536D01*
G01*
D02*
G03*
X32164Y146136I0J2173D01*
G01*
Y156614D02*
G03*
X31497Y156890I-667J-667D01*
G01*
X31447D02*
G03*
X32659Y157391I0J1713D01*
G01*
X29757Y156890D02*
G03*
X32164Y157886I0J3403D01*
G01*
X-52664Y99664D02*
G03*
X-53300Y98127I1536J-1536D01*
G01*
D02*
G03*
X-53936Y99664I-2173J0D01*
G01*
X-40414Y100936D02*
G03*
X-38877Y100300I1536J1536D01*
G01*
D02*
G03*
X-40414Y99664I0J-2173D01*
G01*
X-40664D02*
G03*
X-41300Y98127I1536J-1536D01*
G01*
D02*
G03*
X-41936Y99664I-2173J0D01*
G01*
X-46664D02*
G03*
X-47300Y98127I1536J-1536D01*
G01*
D02*
G03*
X-47936Y99664I-2173J0D01*
G01*
X-12853Y106064D02*
G03*
X-14390Y106700I-1536J-1536D01*
G01*
D02*
G03*
X-12853Y107336I0J2173D01*
G01*
X-11080Y100936D02*
G03*
X-9544Y100300I1536J1536D01*
G01*
D02*
G03*
X-11080Y99664I0J-2173D01*
G01*
X-11330D02*
G03*
X-11967Y98127I1536J-1536D01*
G01*
D02*
G03*
X-12603Y99664I-2173J0D01*
G01*
X-28830D02*
G03*
X-29467Y98127I1536J-1536D01*
G01*
D02*
G03*
X-30103Y99664I-2173J0D01*
G01*
X-28580Y107336D02*
G03*
X-27044Y106700I1536J1536D01*
G01*
D02*
G03*
X-28580Y106064I0J-2173D01*
G01*
X-64164Y99664D02*
G03*
X-64800Y98127I1536J-1536D01*
G01*
D02*
G03*
X-65436Y99664I-2173J0D01*
G01*
X336D02*
G03*
X-300Y98127I1536J-1536D01*
G01*
D02*
G03*
X-936Y99664I-2173J0D01*
G01*
X-31664Y158636D02*
G03*
X-30127Y158000I1536J1536D01*
G01*
D02*
G03*
X-31664Y157364I0J-2173D01*
G01*
Y153136D02*
G03*
X-30127Y152500I1536J1536D01*
G01*
D02*
G03*
X-31664Y151864I0J-2173D01*
G01*
Y147636D02*
G03*
X-30241Y147047I1422J1422D01*
G01*
X-30013D02*
G03*
X-31664Y146364I0J-2334D01*
G01*
X56593Y181750D02*
G03*
X58153Y182396I0J2207D01*
G01*
X54903Y181750D02*
G03*
X57659Y182891I0J3897D01*
G01*
X53213Y181750D02*
G03*
X57164Y183386I0J5587D01*
G01*
X64836Y183636D02*
G03*
X66373Y183000I1536J1536D01*
G01*
D02*
G03*
X64836Y182364I0J-2173D01*
G01*
Y189636D02*
G03*
X66373Y189000I1536J1536D01*
G01*
D02*
G03*
X64836Y188364I0J-2173D01*
G01*
X57659Y189109D02*
G03*
X55506Y190000I-2152J-2152D01*
G01*
X57164Y188614D02*
G03*
X53816Y190000I-3347J-3347D01*
G01*
X-63136Y267836D02*
G03*
X-62500Y269373I-1536J1536D01*
G01*
D02*
G03*
X-61864Y267836I2173J0D01*
G01*
X-63386Y260164D02*
G03*
X-64923Y260800I-1536J-1536D01*
G01*
D02*
G03*
X-63386Y261436I0J2173D01*
G01*
X-61864Y260164D02*
G03*
X-62500Y258627I1536J-1536D01*
G01*
D02*
G03*
X-63136Y260164I-2173J0D01*
G01*
X-57250Y259900D02*
G03*
X-58360Y259440I0J-1569D01*
G01*
X-58375Y259425D02*
G03*
X-58107Y260526I-770J770D01*
G01*
X-57592Y261165D02*
G03*
X-58500Y259070I1963J-2095D01*
G01*
X-57113Y260654D02*
G03*
X-58500Y257455I2997J-3199D01*
G01*
X-56635Y260143D02*
G03*
X-58500Y255840I4031J-4303D01*
G01*
X-57636Y267836D02*
G03*
X-57000Y269373I-1536J1536D01*
G01*
D02*
G03*
X-56364Y267836I2173J0D01*
G01*
X-31664Y142136D02*
G03*
X-29825Y141375I1838J1838D01*
G01*
X-30429D02*
G03*
X-31664Y140864I0J-1746D01*
G01*
X4100Y193750D02*
G03*
X4560Y192640I1569J0D01*
G01*
X5163Y192037D02*
G03*
X3200Y192850I-1963J-1963D01*
G01*
X-3200D02*
G03*
X-5163Y192037I0J-2776D01*
G01*
X-4560Y192640D02*
G03*
X-4100Y193750I-1110J1110D01*
G01*
X63386Y241336D02*
G03*
X64923Y240700I1536J1536D01*
G01*
D02*
G03*
X63386Y240064I0J-2173D01*
G01*
X61614D02*
G03*
X60077Y240700I-1536J-1536D01*
G01*
D02*
G03*
X61614Y241336I0J2173D01*
G01*
X-67114Y261436D02*
G03*
X-65577Y260800I1536J1536D01*
G01*
D02*
G03*
X-67114Y260164I0J-2173D01*
G01*
X6664Y124386D02*
G03*
X6890Y124932I-546J546D01*
G01*
Y125223D02*
G03*
X7441Y123891I1884J0D01*
G01*
X6890Y126913D02*
G03*
X7936Y124386I3573J0D01*
G01*
X32164Y162864D02*
G03*
X30627Y163500I-1536J-1536D01*
G01*
D02*
G03*
X32164Y164136I0J2173D01*
G01*
X51037Y182747D02*
G03*
X53445Y181750I2408J2408D01*
G01*
X51532Y183242D02*
G03*
X55135Y181750I3603J3603D01*
G01*
X53445D02*
G03*
X51037Y180753I0J-3406D01*
G01*
X55135Y181750D02*
G03*
X51532Y180258I0J-5096D01*
G01*
X51037Y190998D02*
G03*
X53445Y190000I2408J2408D01*
G01*
X51532Y191492D02*
G03*
X55135Y190000I3603J3603D01*
G01*
X53445D02*
G03*
X51037Y189003I0J-3406D01*
G01*
X55135Y190000D02*
G03*
X51532Y188508I0J-5096D01*
G01*
X-21595Y222500D02*
G03*
X-20353Y223014I0J1756D01*
G01*
X-22726Y224000D02*
G03*
X-21745Y224406I0J1387D01*
G01*
Y236594D02*
G03*
X-22726Y237000I-981J-981D01*
G01*
X-48975Y208777D02*
G03*
X-46499Y207752I2475J2475D01*
G01*
X-48480Y209272D02*
G03*
X-44809Y207752I3670J3670D01*
G01*
X-46499D02*
G03*
X-48975Y206727I0J-3501D01*
G01*
X-44809Y207752D02*
G03*
X-48480Y206232I0J-5191D01*
G01*
X-50812Y210453D02*
G03*
X-50000Y211982I-1033J1529D01*
G01*
X-51204Y211033D02*
G03*
X-50000Y213300I-1532J2266D01*
G01*
Y211982D02*
G03*
X-49188Y210453I1845J0D01*
G01*
X-50000Y213300D02*
G03*
X-48796Y211033I2735J0D01*
G01*
X51025Y241773D02*
G03*
X53617Y240700I2591J2591D01*
G01*
X51520Y242268D02*
G03*
X55307Y240700I3786J3786D01*
G01*
X53385D02*
G03*
X51025Y239723I0J-3337D01*
G01*
X55075Y240700D02*
G03*
X51520Y239228I0J-5026D01*
G01*
X49155Y286242D02*
G03*
X48637Y284991I1251J-1251D01*
G01*
D02*
G03*
X48119Y286242I-1769J0D01*
G01*
X-19960Y217500D02*
X-14894Y222566D01*
X-34000Y220000D02*
X-20244D01*
X-16286Y223958D01*
X-20527Y222500D02*
X-17678Y225350D01*
X-31500Y222500D02*
X-20527D01*
X-21811Y224000D02*
X-19070Y226742D01*
X-28000Y224000D02*
X-21811D01*
X-29000Y225000D02*
X-28000Y224000D01*
X-13525Y199000D02*
X-10000D01*
X30000Y139500D02*
X32800D01*
X22453Y147047D02*
X30000Y139500D01*
X30500Y145500D02*
X32800D01*
X23047Y152953D02*
X30500Y145500D01*
X23119Y154921D02*
X26540Y151500D01*
X16142Y154921D02*
X23119D01*
X26540Y151500D02*
X32800D01*
X32190Y156890D02*
X32800Y157500D01*
X16142Y156890D02*
X32190D01*
X27784Y163500D02*
X32800D01*
X23142Y158858D02*
X27784Y163500D01*
X30837Y61082D02*
Y87163D01*
X25500Y92500D02*
X30837Y87163D01*
X25500Y92500D02*
Y132500D01*
X22500Y135500D02*
X25500Y132500D01*
X16142Y147047D02*
X22453D01*
X16142Y158858D02*
X23142D01*
X16142Y152953D02*
X23047D01*
X984Y166142D02*
Y175284D01*
X-984Y166142D02*
Y175584D01*
X-17000Y177000D02*
X-15000Y175000D01*
X-6500D01*
X-2953Y171453D01*
Y166142D02*
Y171453D01*
X984Y175284D02*
X9600Y183900D01*
X-9400Y184000D02*
X-984Y175584D01*
X56550Y181750D02*
X57800Y183000D01*
X49500Y181750D02*
X56550D01*
X49500Y190000D02*
X56800D01*
X78000Y183000D02*
X80000Y185000D01*
X64200Y183000D02*
X78000D01*
X39498Y61082D02*
Y120000D01*
X-9702Y33298D02*
X3000Y46000D01*
X-9702Y25109D02*
Y33298D01*
X3000Y46000D02*
Y63000D01*
X-53300Y96280D02*
Y100300D01*
X-53000Y95980D02*
X-48302Y91281D01*
Y79400D02*
Y91281D01*
X-50700Y122800D02*
X-13700D01*
X-53000Y120500D02*
X-50700Y122800D01*
X-13700D02*
X-10827Y125673D01*
Y133858D01*
X-53302Y69400D02*
Y90802D01*
X-47300Y96700D02*
Y100300D01*
X-46500Y120500D02*
Y120700D01*
X-45800Y121400D01*
X-13120D01*
X-8858Y125662D01*
Y133858D01*
X-41300Y93800D02*
Y100300D01*
X-23633Y95000D02*
Y100300D01*
X-33302Y69400D02*
Y89198D01*
X-29500Y93000D01*
Y96000D02*
X-29467Y96033D01*
X-29500Y93000D02*
Y96000D01*
X-29467Y96033D02*
Y100300D01*
X-12000Y96000D02*
X-11967Y96033D01*
Y100300D01*
X79500Y185000D02*
X80000D01*
X-11967Y100300D02*
X-6133D01*
X-17800Y106700D02*
X-11967D01*
X-29467D02*
X-23633D01*
X-76900Y141100D02*
X-21700Y196300D01*
X-78300Y144200D02*
X-18000Y204500D01*
X-48809Y192191D02*
X-30900Y210100D01*
X-81000Y160000D02*
X-48809Y192191D01*
X-51221Y184779D02*
X-27300Y208700D01*
X-86000Y150000D02*
X-51221Y184779D01*
X26506Y75706D02*
X27300Y76500D01*
X26506Y61082D02*
Y75706D01*
X-300Y66300D02*
Y71200D01*
Y66300D02*
X3000Y63000D01*
X-300Y71500D02*
Y100300D01*
Y71200D02*
Y71500D01*
X-41300Y100300D02*
X-35300D01*
X-90000Y100000D02*
X-75500Y114500D01*
Y137041D01*
X5150Y212822D02*
X9500Y208472D01*
Y207500D02*
Y208472D01*
X4500Y202500D02*
X9500Y207500D01*
X-1000Y202500D02*
X4500D01*
X-8600Y194900D02*
X-1000Y202500D01*
X-17641Y194900D02*
X-8600D01*
X-75500Y137041D02*
X-17641Y194900D01*
X-10320Y115200D02*
X-984Y124536D01*
X-17820Y115200D02*
X-10320D01*
X-20500Y112520D02*
X-17820Y115200D01*
X-2953Y124547D02*
Y133858D01*
X-10900Y116600D02*
X-2953Y124547D01*
X-18400Y116600D02*
X-10900D01*
X-21900Y113100D02*
X-18400Y116600D01*
X-21900Y108433D02*
Y113100D01*
X-23633Y106700D02*
X-21900Y108433D01*
X-20500Y109000D02*
Y112520D01*
X-984Y124536D02*
Y133858D01*
X-19000Y107500D02*
X-17000D01*
X-20500Y109000D02*
X-19000Y107500D01*
X-20167Y180333D02*
X-20000Y180500D01*
X-23667Y180333D02*
X-20167D01*
X-26327Y177673D02*
X-23667Y180333D01*
X-26327Y160827D02*
Y177673D01*
X-23176Y211500D02*
X-13502Y221174D01*
X-34500Y211500D02*
X-23176D01*
X-40789Y205211D02*
X-34500Y211500D01*
X-76000Y170000D02*
X-40789Y205211D01*
X-90000Y170000D02*
X-76000D01*
X-21792Y210100D02*
X-12110Y219782D01*
X-30900Y210100D02*
X-21792D01*
X-90000Y160000D02*
X-81000D01*
X-20408Y208700D02*
X-10718Y218390D01*
X-27300Y208700D02*
X-20408D01*
X-90000Y150000D02*
X-86000D01*
X-79700Y147300D02*
X-21100Y205900D01*
X-90000Y141000D02*
X-23700Y207300D01*
X-90000Y140000D02*
Y141000D01*
X-19024Y207300D02*
X-9326Y216998D01*
X-23700Y207300D02*
X-19024D01*
X-17640Y205900D02*
X-7934Y215606D01*
X-21100Y205900D02*
X-17640D01*
X-79700Y140300D02*
Y147300D01*
X-90000Y130000D02*
X-79700Y140300D01*
X-16256Y204500D02*
X-6542Y214214D01*
X-18000Y204500D02*
X-16256D01*
X-78300Y131700D02*
Y144200D01*
X-90000Y120000D02*
X-78300Y131700D01*
X3758Y209258D02*
Y211430D01*
X-9200Y196300D02*
X3758Y209258D01*
X-21700Y196300D02*
X-9200D01*
X-76900Y123100D02*
Y141100D01*
X-90000Y110000D02*
X-76900Y123100D01*
X13900Y188200D02*
X16500D01*
X9600Y183900D02*
X13900Y188200D01*
X-16000D02*
X-13600D01*
X-9400Y184000D01*
X3200Y194000D02*
X9600Y187600D01*
Y183900D02*
Y187600D01*
X-9400Y187800D02*
X-3200Y194000D01*
X-9400Y184000D02*
Y187800D01*
X22027Y240000D02*
X24000D01*
X-12500Y173500D02*
X-10827Y171827D01*
X-23000Y176000D02*
Y177000D01*
Y176000D02*
X-20500Y173500D01*
X-12500D01*
X-10827Y166142D02*
Y171827D01*
X-36500Y217500D02*
X-19960D01*
X-38500Y219500D02*
X-36500Y217500D01*
X-34500Y220500D02*
X-34000Y220000D01*
X-8500Y150000D02*
X-2000D01*
X6890Y158890D01*
X-62500Y256500D02*
Y260800D01*
Y256500D02*
X-62000Y256000D01*
X-68000Y260800D02*
X-62500D01*
X-58500Y259300D02*
X-57000Y260800D01*
X-58500Y256000D02*
Y259300D01*
X56000Y240700D02*
Y261500D01*
X62500Y240700D02*
X68500D01*
X56000D02*
X62500D01*
X51452D02*
X56000D01*
X50000Y239248D02*
X51452Y240700D01*
X16900Y248792D02*
Y272400D01*
X41000Y276500D02*
X56000Y261500D01*
X16900Y272400D02*
X21000Y276500D01*
X39718Y251141D02*
X44884D01*
X24817D02*
X39718D01*
X13502Y239826D02*
X24817Y251141D01*
X44884D02*
X46763Y249263D01*
X12110Y241218D02*
X25263Y254371D01*
Y270263D02*
Y271263D01*
Y254371D02*
Y270263D01*
X24763Y271763D02*
X25263Y271263D01*
X-90000Y180000D02*
X-74500Y195500D01*
X-80000Y212540D02*
X-77300Y215240D01*
X-80000Y210000D02*
Y212540D01*
X-90000Y200000D02*
X-80000Y210000D01*
X16286Y223958D02*
X22244Y218000D01*
X43000D01*
X44000Y217000D01*
Y208500D02*
Y217000D01*
X41000Y211000D02*
Y214500D01*
X39500Y216000D02*
X41000Y214500D01*
X21460Y216000D02*
X39500D01*
X14894Y222566D02*
X21460Y216000D01*
X18392Y213500D02*
X38000D01*
X12110Y219782D02*
X18392Y213500D01*
X-90000Y240000D02*
X-69379D01*
X-90000Y220000D02*
X-85420D01*
X-84520Y210000D02*
X-78700Y215820D01*
X-53000Y273000D02*
Y279059D01*
X-54000Y272000D02*
X-53000Y273000D01*
X-60500Y272000D02*
X-54000D01*
X-62500Y270000D02*
X-60500Y272000D01*
X-62500Y267200D02*
Y270000D01*
X-57000Y267200D02*
Y270000D01*
X-56500Y270500D01*
X-52500D01*
X-50441Y272559D01*
Y279059D01*
X10500Y253527D02*
Y257500D01*
X5150Y248178D02*
X10500Y253527D01*
X14100Y251560D02*
Y261900D01*
X15500Y250176D02*
Y264106D01*
X7934Y245394D02*
X14100Y251560D01*
X13238Y262762D02*
X14100Y261900D01*
X9326Y244002D02*
X15500Y250176D01*
X9606Y270000D02*
X15500Y264106D01*
X10718Y242610D02*
X16900Y248792D01*
X8500Y254311D02*
Y256000D01*
X3758Y249570D02*
X8500Y254311D01*
X-24608Y256500D02*
X-10718Y242610D01*
X-22676Y249000D02*
X-13502Y239826D01*
X-27000Y249000D02*
X-22676D01*
X-32300Y147000D02*
X-32253Y147047D01*
X-16142D01*
X-32300Y152500D02*
X-27500D01*
X-24016Y149016D01*
X-16142D01*
X-29153Y158000D02*
X-26327Y160827D01*
X-32300Y158000D02*
X-29153D01*
X10827Y160327D02*
Y166142D01*
X-8500Y146500D02*
X-3000D01*
X6890Y158890D02*
Y166142D01*
X-6890Y155890D02*
X-5500Y154500D01*
X-9500D02*
X-8858Y155142D01*
Y166142D01*
X-4921Y158421D02*
X-4000Y157500D01*
X6890Y124410D02*
Y133858D01*
X-23421Y145079D02*
X-16142D01*
X-27125Y141375D02*
X-23421Y145079D01*
X-32300Y141375D02*
X-27125D01*
X-14263Y199737D02*
X-13500Y200500D01*
Y204472D01*
X-5150Y212822D01*
X-9737Y205451D02*
X-3758Y211430D01*
X-9737Y204263D02*
Y205451D01*
X10263Y265737D02*
X13238Y262762D01*
X6000Y270000D02*
X9606D01*
X26500Y220500D02*
X28237Y222237D01*
X22527Y220500D02*
X26500D01*
X17678Y225350D02*
X22527Y220500D01*
X19070Y226742D02*
X19091Y226763D01*
X18608Y210500D02*
X34500D01*
X10718Y218390D02*
X18608Y210500D01*
X18324Y208000D02*
X30000D01*
X9326Y216998D02*
X18324Y208000D01*
X5737Y270263D02*
X6000Y270000D01*
X-28237Y239763D02*
X-21790D01*
X-17678Y235650D01*
X-32763Y235237D02*
X-30525Y233000D01*
X-28500D01*
X-24500Y237000D01*
X-21811D01*
X-19070Y234258D01*
X14307Y229496D02*
X19070Y234258D01*
X-388Y229496D02*
X14307D01*
X15402Y230409D02*
X19070Y226742D01*
X-14307Y229496D02*
X-388D01*
Y237072D01*
Y214801D02*
Y229496D01*
Y237072D02*
X7934Y245394D01*
X-3758Y211430D02*
X-388Y214801D01*
X-19070Y234258D02*
X-14307Y229496D01*
X16316D02*
X19070Y226742D01*
X-6890Y155890D02*
Y166142D01*
X-4921Y158421D02*
Y166142D01*
X26000Y206000D02*
X26500Y205500D01*
X17540Y206000D02*
X26000D01*
X17256Y203500D02*
X22500D01*
X-23892Y253000D02*
X-12110Y241218D01*
X-27000Y253000D02*
X-23892D01*
X24000Y239500D02*
Y240000D01*
X17678Y235650D02*
X22027Y240000D01*
X16286Y237042D02*
X22244Y243000D01*
X24000D01*
X22960Y246500D02*
X24500D01*
X14894Y238434D02*
X22960Y246500D01*
X-26327Y160827D02*
X-16142D01*
X-35500Y246000D02*
X-22460D01*
X7934Y215606D02*
X17540Y206000D01*
X6542Y214214D02*
X17256Y203500D01*
X-22460Y246000D02*
X-14894Y238434D01*
X-26000Y256500D02*
X-24608D01*
X-90000Y210000D02*
X-84520D01*
X-3000Y146500D02*
X10827Y160327D01*
X8858Y127442D02*
X10300Y126000D01*
X8858Y127442D02*
Y133858D01*
X-77000Y213560D02*
X-75900Y214660D01*
X-90000Y190000D02*
X-77000Y203000D01*
Y213560D01*
X-90000Y230000D02*
X-77399D01*
X-78700Y215820D02*
Y224740D01*
X-77300Y215240D02*
Y224160D01*
X-75900Y214660D02*
Y223580D01*
X-74500Y195500D02*
Y223000D01*
X-50000Y207752D02*
X-38157D01*
X-50000Y213300D02*
X-38500Y224800D01*
X-50000Y207752D02*
Y213300D01*
X46700Y280000D02*
X48637Y281937D01*
Y286760D01*
X16142Y150984D02*
X21516D01*
X22500Y150000D01*
X-22244Y243000D02*
X-16286Y237042D01*
X-38500Y243000D02*
X-22244D01*
X-28302Y88198D02*
X-23633Y92867D01*
X-28302Y79400D02*
Y88198D01*
X-23633Y92867D02*
Y100300D01*
X-41300Y93800D02*
X-38302Y90802D01*
Y79400D02*
Y90802D01*
X-17800Y93300D02*
Y100300D01*
X-19925Y92553D02*
X-18547D01*
X-17800Y93300D01*
X-64800Y67800D02*
Y100300D01*
Y67800D02*
X-48000Y51000D01*
Y38000D02*
Y51000D01*
X-61865Y25109D02*
X-60891D01*
X-48000Y38000D01*
X64200Y189000D02*
X73500D01*
X79500Y195000D01*
X68500Y240700D02*
X72800Y245000D01*
X74500D01*
X21000Y276500D02*
X31500D01*
X41000D01*
X-90000Y250000D02*
X-61359D01*
X-42359Y269000D01*
X2500D01*
X12500Y259000D01*
Y252744D02*
Y259000D01*
X6542Y246786D02*
X12500Y252744D01*
X-41779Y267600D02*
X400D01*
X10500Y257500D01*
X-41199Y266200D02*
X-1700D01*
X8500Y256000D01*
X-40620Y264800D02*
X-18989D01*
X-3758Y249570D01*
X-78700Y224740D02*
X-40040Y263400D01*
X-20372D01*
X-5150Y248178D01*
X-77300Y224160D02*
X-39460Y262000D01*
X-21756D01*
X-6542Y246786D01*
X-75900Y223580D02*
X-38880Y260600D01*
X-23140D01*
X-7934Y245394D01*
X-74500Y223000D02*
X-38300Y259200D01*
X-24524D01*
X-9326Y244002D01*
X-69379Y240000D02*
X-41779Y267600D01*
X-77399Y230000D02*
X-41199Y266200D01*
X-85420Y220000D02*
X-40620Y264800D01*
D11*
X-69676Y206724D02*
G03*
X-68651Y206300I1024J1024D01*
G01*
D02*
G03*
X-69676Y205876I0J-1448D01*
G01*
X-27924Y135576D02*
G03*
X-28949Y136000I-1024J-1024D01*
G01*
D02*
G03*
X-27924Y136424I0J1448D01*
G01*
X-8076Y142924D02*
G03*
X-7051Y142500I1024J1024D01*
G01*
D02*
G03*
X-8076Y142076I0J-1448D01*
G01*
X53000Y143900D02*
G03*
X51976Y143476I0J-1448D01*
G01*
X51976Y143476D02*
G03*
X52400Y144500I-1024J1024D01*
G01*
X22924Y129576D02*
G03*
X22500Y128551I1024J-1024D01*
G01*
D02*
G03*
X22076Y129576I-1448J0D01*
G01*
X35168Y107147D02*
G03*
X34576Y108576I-2021J0D01*
G01*
X21555Y63474D02*
G03*
X22500Y65756I-2282J2282D01*
G01*
X34547Y63474D02*
G03*
X35168Y64973I-1499J1499D01*
G01*
D02*
G03*
X35789Y63474I2120J0D01*
G01*
X43208D02*
G03*
X43829Y64973I-1499J1499D01*
G01*
D02*
G03*
X44450Y63474I2120J0D01*
G01*
X-58020Y107230D02*
G03*
X-56739Y106700I1280J1280D01*
G01*
D02*
G03*
X-58020Y106170I0J-1811D01*
G01*
X-59330Y107230D02*
G03*
X-58800Y108511I-1280J1280D01*
G01*
D02*
G03*
X-58270Y107230I1811J0D01*
G01*
X7300Y118000D02*
G03*
X9007Y118707I0J2414D01*
G01*
X8404Y118104D02*
G03*
X8050Y117250I854J-854D01*
G01*
X32056Y226409D02*
G03*
X31202Y226763I-854J-854D01*
G01*
X30349D02*
G03*
X32056Y227470I0J2414D01*
G01*
X35168Y74517D02*
G03*
X34377Y76427I-2700J0D01*
G01*
X35168Y72103D02*
G03*
X33670Y75720I-5114J0D01*
G01*
X34377Y76573D02*
G03*
X35168Y78483I-1909J1909D01*
G01*
X33670Y77280D02*
G03*
X35168Y80897I-3616J3616D01*
G01*
X-31770Y135220D02*
G03*
X-32300Y133939I1280J-1280D01*
G01*
D02*
G03*
X-32830Y135220I-1811J0D01*
G01*
X-31770Y136530D02*
G03*
X-30489Y136000I1280J1280D01*
G01*
D02*
G03*
X-31770Y135470I0J-1811D01*
G01*
X-39230Y136780D02*
G03*
X-38700Y138061I-1280J1280D01*
G01*
D02*
G03*
X-38170Y136780I1811J0D01*
G01*
X-52520Y107230D02*
G03*
X-51239Y106700I1280J1280D01*
G01*
D02*
G03*
X-52520Y106170I0J-1811D01*
G01*
X-54080D02*
G03*
X-55361Y106700I-1280J-1280D01*
G01*
D02*
G03*
X-54080Y107230I0J1811D01*
G01*
X-42080Y106170D02*
G03*
X-43361Y106700I-1280J-1280D01*
G01*
D02*
G03*
X-42080Y107230I0J1811D01*
G01*
X-48080Y106170D02*
G03*
X-49361Y106700I-1280J-1280D01*
G01*
D02*
G03*
X-48080Y107230I0J1811D01*
G01*
X-46520D02*
G03*
X-45239Y106700I1280J1280D01*
G01*
D02*
G03*
X-46520Y106170I0J-1811D01*
G01*
X-38170Y157220D02*
G03*
X-38700Y155939I1280J-1280D01*
G01*
D02*
G03*
X-39230Y157220I-1811J0D01*
G01*
X-38170Y151720D02*
G03*
X-38700Y150439I1280J-1280D01*
G01*
D02*
G03*
X-39230Y151720I-1811J0D01*
G01*
Y153280D02*
G03*
X-38700Y154561I-1280J1280D01*
G01*
D02*
G03*
X-38170Y153280I1811J0D01*
G01*
X-39230Y147780D02*
G03*
X-38700Y149061I-1280J1280D01*
G01*
D02*
G03*
X-38170Y147780I1811J0D01*
G01*
Y146220D02*
G03*
X-38700Y144939I1280J-1280D01*
G01*
D02*
G03*
X-39230Y146220I-1811J0D01*
G01*
X-54403Y209200D02*
G03*
X-56770Y208220I0J-3347D01*
G01*
X-63700Y207500D02*
G03*
X-65407Y206793I0J-2414D01*
G01*
X-64803Y207396D02*
G03*
X-64450Y208250I-854J854D01*
G01*
X-39230Y142280D02*
G03*
X-38700Y143561I-1280J1280D01*
G01*
D02*
G03*
X-38170Y142280I1811J0D01*
G01*
Y140720D02*
G03*
X-38700Y139439I1280J-1280D01*
G01*
D02*
G03*
X-39230Y140720I-1811J0D01*
G01*
X20651Y226763D02*
G03*
X19518Y226294I0J-1602D01*
G01*
X23065Y226763D02*
G03*
X20225Y225587I0J-4016D01*
G01*
X25479Y226763D02*
G03*
X20932Y224879I0J-6430D01*
G01*
X27893Y226763D02*
G03*
X21639Y224172I0J-8845D01*
G01*
X-51414Y207838D02*
G03*
X-54703Y209200I-3289J-3289D01*
G01*
X-52540D02*
G03*
X-50707Y209959I0J2592D01*
G01*
X-54954Y209200D02*
G03*
X-51414Y210666I0J5006D01*
G01*
X7000Y174500D02*
X11000D01*
X4921Y172421D02*
X7000Y174500D01*
X4921Y166142D02*
Y172421D01*
X43829Y135329D02*
X53000Y144500D01*
X43829Y61082D02*
Y135329D01*
X10300Y120000D02*
Y126000D01*
X7300Y117000D02*
X10300Y120000D01*
X35168Y61082D02*
Y108832D01*
X35000Y109000D02*
X35168Y108832D01*
X22500Y61406D02*
Y130000D01*
X22176Y61082D02*
X22500Y61406D01*
X-47300Y106700D02*
X-41300D01*
X-48753Y129500D02*
X-35000D01*
X-58800Y106700D02*
Y119453D01*
X-48753Y129500D01*
X-32300Y132200D02*
Y136000D01*
X-35000Y129500D02*
X-32300Y132200D01*
X-53300Y106700D02*
X-47300D01*
X-58800D02*
X-53300D01*
X-8500Y142500D02*
X-2000D01*
X-4921Y139327D02*
X2876Y147124D01*
X-32300Y136000D02*
X-27500D01*
X-4921Y133858D02*
Y139327D01*
X2876Y147124D02*
X10673Y154921D01*
X16142D01*
X2876Y147124D02*
X5000Y145000D01*
X8858Y141142D01*
X2953Y142953D02*
X5000Y145000D01*
X2953Y133858D02*
Y142953D01*
X8858Y133858D02*
Y140858D01*
X5000Y145000D02*
X7047Y147047D01*
X8858Y140858D02*
X11110Y143110D01*
X16142D01*
X7047Y147047D02*
X16142D01*
X-38700Y152125D02*
Y157500D01*
Y146750D02*
Y152125D01*
Y141375D02*
Y146750D01*
Y136000D02*
Y141375D01*
X19091Y226763D02*
X32763D01*
X-56500Y209200D02*
X-51448D01*
X-65900Y206300D02*
X-63700Y208500D01*
X-70100Y206300D02*
X-65900D01*
D12*
X-71982Y267000D02*
G03*
X-74823Y265823I0J-4018D01*
G01*
X65833Y293073D02*
G03*
X63016Y294240I-2817J-2817D01*
G01*
D02*
G03*
X65833Y295407I0J3983D01*
G01*
X68167D02*
G03*
X70983Y294240I2817J2817D01*
G01*
D02*
G03*
X68167Y293073I0J-3983D01*
G01*
X-75500Y105250D02*
G03*
X-73366Y106134I0J3018D01*
G01*
X87897Y110000D02*
G03*
X86410Y113590I-5077J0D01*
G01*
D02*
G03*
X90000Y112103I3590J3590D01*
G01*
X-69699Y267000D02*
G03*
X-68533Y267483I0J1649D01*
G01*
X57674Y292085D02*
G03*
X52622Y294240I-5051J-4842D01*
G01*
X56446Y290909D02*
G03*
X48638Y294240I-7809J-7486D01*
G01*
X63589D02*
G03*
X59372Y292139I0J-5280D01*
G01*
X67000Y294240D02*
G03*
X60730Y291115I0J-7853D01*
G01*
X84900Y225200D02*
Y286600D01*
Y165000D02*
Y225200D01*
X77260Y294240D02*
X84900Y286600D01*
X67000Y294240D02*
X77260D01*
X84900Y115100D02*
Y165000D01*
Y115100D02*
X90000Y110000D01*
X-75500Y105000D02*
X-74500D01*
X-72800Y106700D01*
X-64800D01*
X-75000Y266000D02*
X-74000Y267000D01*
X-68000D01*
X48637Y294240D02*
X67000D01*
D13*
X-48248Y271747D02*
G03*
X-47882Y272630I-883J883D01*
G01*
X33650Y293500D02*
G03*
X32695Y295805I-3259J0D01*
G01*
X36632Y294240D02*
G03*
X34247Y293252I0J-3372D01*
G01*
X-25000Y293703D02*
G03*
X-21240Y295260I0J5318D01*
G01*
D02*
G03*
X-22797Y291500I3760J-3760D01*
G01*
X-19097Y297403D02*
X31097D01*
X-25000Y291500D02*
X-19097Y297403D01*
X31097D02*
X34000Y294500D01*
X-47882Y278559D02*
Y279059D01*
Y271618D02*
Y278559D01*
X34000Y293500D02*
Y294500D01*
X-48000Y271500D02*
X-47882Y271618D01*
X34740Y294240D02*
X40363D01*
X34000Y293500D02*
X34740Y294240D01*
X34000Y288000D02*
Y293500D01*
Y288000D02*
X35240Y286760D01*
X40363D01*
D14*
X68061Y293179D02*
G03*
X66500Y289412I3768J-3768D01*
G01*
X29573Y176123D02*
G03*
X27939Y176800I-1634J-1634D01*
G01*
X24250Y176050D02*
G03*
X20836Y174636I0J-4828D01*
G01*
X26561Y176800D02*
G03*
X24927Y176123I0J-2311D01*
G01*
X46000Y165000D02*
X84900D01*
X34200Y176800D02*
X46000Y165000D01*
X23000Y176800D02*
X34200D01*
X20700Y174500D02*
X23000Y176800D01*
X11000Y174500D02*
X20700D01*
X6000Y109000D02*
X9000D01*
X3700Y106700D02*
X6000Y109000D01*
X-300Y106700D02*
X3700D01*
X66500Y286200D02*
Y293740D01*
X-68000Y141500D02*
X-38700D01*
X32763Y226763D02*
X37500Y231500D01*
X66500Y293740D02*
X67000Y294240D01*
X37500Y231500D02*
X59700D01*
X62500Y234300D01*
X59700Y231500D02*
X66000Y225200D01*
X84900D01*
D15*
X9600Y183900D02*
D03*
D16*
X-9400Y184000D02*
D03*
D17*
X-10827Y133858D02*
D03*
X-8858D02*
D03*
X-6890D02*
D03*
X-4921D02*
D03*
X-2953D02*
D03*
X-984D02*
D03*
X984D02*
D03*
X2953D02*
D03*
X4921D02*
D03*
X6890D02*
D03*
X8858D02*
D03*
X10827D02*
D03*
Y166142D02*
D03*
X8858D02*
D03*
X6890D02*
D03*
X4921D02*
D03*
X2953D02*
D03*
X984D02*
D03*
X-984D02*
D03*
X-2953D02*
D03*
X-4921D02*
D03*
X-6890D02*
D03*
X-8858D02*
D03*
X-10827D02*
D03*
D18*
X16142Y139173D02*
D03*
Y141142D02*
D03*
Y143110D02*
D03*
Y145079D02*
D03*
Y147047D02*
D03*
Y149016D02*
D03*
Y150984D02*
D03*
Y152953D02*
D03*
Y154921D02*
D03*
Y156890D02*
D03*
Y158858D02*
D03*
Y160827D02*
D03*
X-16142D02*
D03*
Y158858D02*
D03*
Y156890D02*
D03*
Y154921D02*
D03*
Y152953D02*
D03*
Y150984D02*
D03*
Y149016D02*
D03*
Y147047D02*
D03*
Y145079D02*
D03*
Y143110D02*
D03*
Y141142D02*
D03*
Y139173D02*
D03*
D19*
X-50000Y207752D02*
D03*
Y239248D02*
D03*
X50000Y239248D02*
D03*
Y207752D02*
D03*
D20*
X-300Y106700D02*
D03*
Y100300D02*
D03*
X-64800D02*
D03*
Y106700D02*
D03*
X-29467D02*
D03*
Y100300D02*
D03*
X-11967D02*
D03*
Y106700D02*
D03*
X-41300D02*
D03*
Y100300D02*
D03*
X-53300D02*
D03*
Y106700D02*
D03*
X-47300Y100300D02*
D03*
Y106700D02*
D03*
X-68000Y267200D02*
D03*
Y260800D02*
D03*
X-62500D02*
D03*
Y267200D02*
D03*
X-57000D02*
D03*
Y260800D02*
D03*
X62500Y234300D02*
D03*
Y240700D02*
D03*
X-6133Y106700D02*
D03*
Y100300D02*
D03*
X-23633Y106700D02*
D03*
Y100300D02*
D03*
X-17800Y106700D02*
D03*
Y100300D02*
D03*
X-35300D02*
D03*
Y106700D02*
D03*
X24500Y182700D02*
D03*
Y176300D02*
D03*
X30000Y182700D02*
D03*
Y176300D02*
D03*
X-58800Y100300D02*
D03*
Y106700D02*
D03*
X16500Y181800D02*
D03*
Y188200D02*
D03*
X-16000D02*
D03*
Y181800D02*
D03*
X-38500Y224800D02*
D03*
Y231200D02*
D03*
X68500Y234300D02*
D03*
Y240700D02*
D03*
X66500Y279800D02*
D03*
Y286200D02*
D03*
D21*
X32800Y163500D02*
D03*
X39200D02*
D03*
X7300Y123500D02*
D03*
X13700D02*
D03*
X-3200Y194000D02*
D03*
X3200D02*
D03*
X-38700Y158000D02*
D03*
X-32300D02*
D03*
Y152500D02*
D03*
X-38700D02*
D03*
Y147000D02*
D03*
X-32300D02*
D03*
Y141500D02*
D03*
X-38700D02*
D03*
X-63700Y208500D02*
D03*
X-57300D02*
D03*
X64200Y183000D02*
D03*
X57800D02*
D03*
X7300Y117000D02*
D03*
X13700D02*
D03*
X32800Y139500D02*
D03*
X39200D02*
D03*
X32800Y151500D02*
D03*
X39200D02*
D03*
X32800Y157500D02*
D03*
X39200D02*
D03*
X32800Y145500D02*
D03*
X39200D02*
D03*
X27800Y76500D02*
D03*
X34200D02*
D03*
X40300Y280000D02*
D03*
X46700D02*
D03*
X-32300Y136000D02*
D03*
X-38700D02*
D03*
X64200Y189000D02*
D03*
X57800D02*
D03*
D22*
X49500Y181750D02*
D03*
X39500D02*
D03*
Y190000D02*
D03*
X49500D02*
D03*
D23*
X20237Y267237D02*
D03*
X24763Y271763D02*
D03*
X42237Y244737D02*
D03*
X46763Y249263D02*
D03*
X-32763Y235237D02*
D03*
X-28237Y239763D02*
D03*
X-14263Y199737D02*
D03*
X-9737Y204263D02*
D03*
X32763Y226763D02*
D03*
X28237Y222237D02*
D03*
D24*
X10263Y265737D02*
D03*
X5737Y270263D02*
D03*
D25*
X58500Y281476D02*
D03*
Y292500D02*
D03*
D26*
X40363Y294240D02*
D03*
Y290500D02*
D03*
Y286760D02*
D03*
X48637D02*
D03*
Y294240D02*
D03*
D27*
X19070Y226742D02*
D03*
X17678Y225350D02*
D03*
X16286Y223958D02*
D03*
X14894Y222566D02*
D03*
X13502Y221174D02*
D03*
X12110Y219782D02*
D03*
X10718Y218390D02*
D03*
X9326Y216998D02*
D03*
X7934Y215606D02*
D03*
X6542Y214214D02*
D03*
X5150Y212822D02*
D03*
X3758Y211430D02*
D03*
X-19070Y234258D02*
D03*
X-17678Y235650D02*
D03*
X-16286Y237042D02*
D03*
X-14894Y238434D02*
D03*
X-13502Y239826D02*
D03*
X-12110Y241218D02*
D03*
X-10718Y242610D02*
D03*
X-9326Y244002D02*
D03*
X-7934Y245394D02*
D03*
X-6542Y246786D02*
D03*
X-5150Y248178D02*
D03*
X-3758Y249570D02*
D03*
D28*
Y211430D02*
D03*
X-5150Y212822D02*
D03*
X-6542Y214214D02*
D03*
X-7934Y215606D02*
D03*
X-9326Y216998D02*
D03*
X-10718Y218390D02*
D03*
X-12110Y219782D02*
D03*
X-13502Y221174D02*
D03*
X-14894Y222566D02*
D03*
X-16286Y223958D02*
D03*
X-17678Y225350D02*
D03*
X-19070Y226742D02*
D03*
X3758Y249570D02*
D03*
X5150Y248178D02*
D03*
X6542Y246786D02*
D03*
X7934Y245394D02*
D03*
X9326Y244002D02*
D03*
X10718Y242610D02*
D03*
X12110Y241218D02*
D03*
X13502Y239826D02*
D03*
X14894Y238434D02*
D03*
X16286Y237042D02*
D03*
X17678Y235650D02*
D03*
X19070Y234258D02*
D03*
D29*
X8396Y59113D02*
D03*
D30*
X13514Y61082D02*
D03*
X17845D02*
D03*
X22176D02*
D03*
X26506D02*
D03*
X30837D02*
D03*
X35168D02*
D03*
X39498D02*
D03*
X43829D02*
D03*
X48160D02*
D03*
D31*
X8593Y21318D02*
D03*
X69813D02*
D03*
D32*
X66270Y59113D02*
D03*
D33*
X-53000Y278559D02*
D03*
X-47882D02*
D03*
X-50441D02*
D03*
X-58118D02*
D03*
X-55559D02*
D03*
D34*
X26353Y264647D02*
D03*
D35*
X39718Y251141D02*
D03*
D36*
X-6222Y43400D02*
G03*
X-6222Y43400I-7080J0D01*
G01*
X-51222D02*
G03*
X-51222Y43400I-7080J0D01*
G01*
D37*
X90000Y10000D02*
D03*
Y20000D02*
D03*
Y30000D02*
D03*
Y40000D02*
D03*
Y50000D02*
D03*
Y60000D02*
D03*
Y70000D02*
D03*
X-90000Y100000D02*
D03*
Y110000D02*
D03*
Y120000D02*
D03*
Y130000D02*
D03*
Y140000D02*
D03*
Y150000D02*
D03*
Y160000D02*
D03*
Y170000D02*
D03*
Y180000D02*
D03*
Y190000D02*
D03*
Y200000D02*
D03*
Y210000D02*
D03*
Y220000D02*
D03*
Y230000D02*
D03*
Y240000D02*
D03*
Y250000D02*
D03*
Y260000D02*
D03*
X90000Y280000D02*
D03*
Y270000D02*
D03*
Y260000D02*
D03*
Y250000D02*
D03*
Y240000D02*
D03*
Y230000D02*
D03*
Y220000D02*
D03*
Y210000D02*
D03*
Y200000D02*
D03*
Y190000D02*
D03*
Y180000D02*
D03*
Y170000D02*
D03*
Y160000D02*
D03*
Y150000D02*
D03*
Y140000D02*
D03*
Y130000D02*
D03*
Y120000D02*
D03*
Y110000D02*
D03*
Y100000D02*
D03*
X-90000Y70000D02*
D03*
Y60000D02*
D03*
Y50000D02*
D03*
Y40000D02*
D03*
Y30000D02*
D03*
Y20000D02*
D03*
Y10000D02*
D03*
X25000Y291500D02*
D03*
X15000D02*
D03*
X5000D02*
D03*
X-5000D02*
D03*
X-15000D02*
D03*
D38*
X90000Y80000D02*
D03*
X-90000Y270000D02*
D03*
X90000Y290000D02*
D03*
X-90000Y80000D02*
D03*
D39*
X-25000Y291500D02*
D03*
D40*
X-38302Y79400D02*
D03*
X-33302Y69400D02*
D03*
X-43302D02*
D03*
X-28302Y79400D02*
D03*
X-23302Y69400D02*
D03*
X-18302Y79400D02*
D03*
X-48302D02*
D03*
D41*
X-67278Y56408D02*
D03*
X-4286D02*
D03*
D42*
X-61865Y25109D02*
D03*
X-9702D02*
D03*
X-19715D02*
D03*
X-51902D02*
D03*
D43*
X-53302Y69400D02*
D03*
D44*
X-67173Y277339D02*
D03*
X-38827D02*
D03*
X-67173Y291000D02*
D03*
X-38827D02*
D03*
D45*
X88583Y305118D02*
D03*
X-88583Y289370D02*
D03*
X59055Y78740D02*
D03*
X-76772Y9843D02*
D03*
D46*
X-7000Y262000D02*
D03*
X64000Y140000D02*
D03*
X58500Y125500D02*
D03*
X-17000Y177000D02*
D03*
X22500Y135500D02*
D03*
X39500Y120000D02*
D03*
X34000Y293500D02*
D03*
X-53000Y95980D02*
D03*
Y120500D02*
D03*
X-53302Y90802D02*
D03*
X-47500Y96500D02*
D03*
X-46500Y120500D02*
D03*
X-29500Y96000D02*
D03*
X-12000D02*
D03*
X79500Y195000D02*
D03*
X80000Y185000D02*
D03*
X35000Y109000D02*
D03*
X22500Y130000D02*
D03*
X9000Y109000D02*
D03*
X-75500Y105000D02*
D03*
X-20000Y180500D02*
D03*
X-51221Y184779D02*
D03*
X-48809Y192191D02*
D03*
X-58585Y172415D02*
D03*
X-61500Y166000D02*
D03*
X-45000Y178000D02*
D03*
X-41500Y177000D02*
D03*
X53000Y144500D02*
D03*
X-23000Y177000D02*
D03*
X-29000Y225000D02*
D03*
X-31500Y222500D02*
D03*
X-34500Y220500D02*
D03*
X-38500Y219500D02*
D03*
X-8500Y150000D02*
D03*
X-62000Y256000D02*
D03*
X-58500D02*
D03*
X44000Y208500D02*
D03*
X41000Y211000D02*
D03*
X38000Y213500D02*
D03*
X-48000Y271500D02*
D03*
X-26000Y256500D02*
D03*
X4000Y234000D02*
D03*
X-5000Y233500D02*
D03*
X-4500Y225500D02*
D03*
X2000Y227000D02*
D03*
X-10000Y199000D02*
D03*
X-8500Y142500D02*
D03*
Y146500D02*
D03*
X-5500Y154500D02*
D03*
X-9500D02*
D03*
X-4000Y157500D02*
D03*
X-27500Y136000D02*
D03*
X-75000Y266000D02*
D03*
X-68000Y141500D02*
D03*
X13238Y262762D02*
D03*
X34500Y210500D02*
D03*
X30000Y208000D02*
D03*
X26500Y205500D02*
D03*
X22500Y203500D02*
D03*
X-27000Y253000D02*
D03*
X24000Y239500D02*
D03*
Y243000D02*
D03*
X24500Y246500D02*
D03*
X-38500Y243000D02*
D03*
X-35500Y246000D02*
D03*
X-27000Y249000D02*
D03*
X-70100Y206300D02*
D03*
X22500Y150000D02*
D03*
X-19925Y92553D02*
D03*
X74500Y245000D02*
D03*
D47*
X67000Y294240D02*
D03*
D48*
X19813Y19743D02*
D03*
X51310D02*
D03*
M02*
